<svg width="1920" height="1000" viewBox="0 0 1920 1000" fill="none" xmlns="http://www.w3.org/2000/svg">
<g clip-path="url(#clip0_365_94268)">
<rect x="924" y="239" width="1039" height="537" rx="20" fill="#050259"/>
<path d="M1073.25 412H973.75L924 325.5L973.75 239H1073.25L1123 325.5L1073.25 412ZM979.923 401.438H1067.08L1110.65 325.682L1067.08 249.926H979.923L936.347 325.682L979.923 401.438Z" fill="#9150BF" fill-opacity="0.2"/>
<path d="M1073.25 776H973.75L924 689.5L973.75 603H1073.25L1123 689.5L1073.25 776ZM979.923 765.438H1067.08L1110.65 689.682L1067.08 613.926H979.923L936.347 689.682L979.923 765.438Z" fill="#9150BF" fill-opacity="0.2"/>
<path d="M1073.25 594H973.75L924 507.5L973.75 421H1073.25L1123 507.5L1073.25 594ZM979.923 583.438H1067.08L1110.65 507.682L1067.08 431.926H979.923L936.347 507.682L979.923 583.438Z" fill="#9150BF" fill-opacity="0.2"/>
<path d="M1272.25 412H1172.75L1123 325.5L1172.75 239H1272.25L1322 325.5L1272.25 412ZM1178.92 401.438H1266.08L1309.65 325.682L1266.08 249.926H1178.92L1135.35 325.682L1178.92 401.438Z" fill="#9150BF" fill-opacity="0.2"/>
<path d="M1272.25 776H1172.75L1123 689.5L1172.75 603H1272.25L1322 689.5L1272.25 776ZM1178.92 765.438H1266.08L1309.65 689.682L1266.08 613.926H1178.92L1135.35 689.682L1178.92 765.438Z" fill="#9150BF" fill-opacity="0.2"/>
<path d="M1272.25 594H1172.75L1123 507.5L1172.75 421H1272.25L1322 507.5L1272.25 594ZM1178.92 583.438H1266.08L1309.65 507.682L1266.08 431.926H1178.92L1135.35 507.682L1178.92 583.438Z" fill="#9150BF" fill-opacity="0.2"/>
<path d="M1471.25 412H1371.75L1322 325.5L1371.75 239H1471.25L1521 325.5L1471.25 412ZM1377.92 401.438H1465.08L1508.65 325.682L1465.08 249.926H1377.92L1334.35 325.682L1377.92 401.438Z" fill="#9150BF" fill-opacity="0.2"/>
<path d="M1471.25 776H1371.75L1322 689.5L1371.75 603H1471.25L1521 689.5L1471.25 776ZM1377.92 765.438H1465.08L1508.65 689.682L1465.08 613.926H1377.92L1334.35 689.682L1377.92 765.438Z" fill="#9150BF" fill-opacity="0.2"/>
<path d="M1471.25 594H1371.75L1322 507.5L1371.75 421H1471.25L1521 507.5L1471.25 594ZM1377.92 583.438H1465.08L1508.65 507.682L1465.08 431.926H1377.92L1334.35 507.682L1377.92 583.438Z" fill="#9150BF" fill-opacity="0.2"/>
<path d="M1670.25 412H1570.75L1521 325.5L1570.75 239H1670.25L1720 325.5L1670.25 412ZM1576.92 401.438H1664.08L1707.65 325.682L1664.08 249.926H1576.92L1533.35 325.682L1576.92 401.438Z" fill="#9150BF" fill-opacity="0.2"/>
<path d="M1670.25 776H1570.75L1521 689.5L1570.75 603H1670.25L1720 689.5L1670.25 776ZM1576.92 765.438H1664.08L1707.65 689.682L1664.08 613.926H1576.92L1533.35 689.682L1576.92 765.438Z" fill="#9150BF" fill-opacity="0.2"/>
<path d="M1670.25 594H1570.75L1521 507.5L1570.75 421H1670.25L1720 507.5L1670.25 594ZM1576.92 583.438H1664.08L1707.65 507.682L1664.08 431.926H1576.92L1533.35 507.682L1576.92 583.438Z" fill="#9150BF" fill-opacity="0.2"/>
<path d="M1869.25 412H1769.75L1720 325.5L1769.75 239H1869.25L1919 325.5L1869.25 412ZM1775.92 401.438H1863.08L1906.65 325.682L1863.08 249.926H1775.92L1732.35 325.682L1775.92 401.438Z" fill="#9150BF" fill-opacity="0.2"/>
<path d="M1869.25 776H1769.75L1720 689.5L1769.75 603H1869.25L1919 689.5L1869.25 776ZM1775.92 765.438H1863.08L1906.65 689.682L1863.08 613.926H1775.92L1732.35 689.682L1775.92 765.438Z" fill="#9150BF" fill-opacity="0.2"/>
<path d="M1869.25 594H1769.75L1720 507.5L1769.75 421H1869.25L1919 507.5L1869.25 594ZM1775.92 583.438H1863.08L1906.65 507.682L1863.08 431.926H1775.92L1732.35 507.682L1775.92 583.438Z" fill="#9150BF" fill-opacity="0.2"/>
</g>
<defs>
<clipPath id="clip0_365_94268">
<rect width="1920" height="1000" fill="white"/>
</clipPath>
</defs>
</svg>
