<svg width="343" height="294" viewBox="0 0 343 294" fill="none" xmlns="http://www.w3.org/2000/svg">
<path d="M213.756 160.123C212.972 162.23 212.433 164.239 212.139 166.15C212.727 164.827 213.462 163.406 214.295 161.985C214.295 162.034 214.05 161.348 213.756 160.123Z" fill="url(#paint0_linear_911_68)"/>
<path d="M163.776 51.6861V225.146C163.776 225.146 164.511 243.717 138.492 248.617C112.473 253.517 104.339 231.565 104.339 231.565C104.339 231.565 77.928 231.565 84.396 197.412C84.396 197.412 60.827 187.269 75.429 154.733C75.429 154.733 59.994 141.699 72.587 120.58C72.587 120.58 61.611 88.8771 94.539 79.1261C94.539 79.1261 92.089 53.6461 118.108 51.7351C118.157 51.6861 142.314 26.7451 163.776 51.6861Z" fill="white" stroke="white" stroke-width="8.9772" stroke-miterlimit="10"/>
<path d="M163.776 51.6861V225.146C163.776 225.146 164.511 243.717 138.492 248.617C112.473 253.517 104.339 231.565 104.339 231.565C104.339 231.565 77.928 231.565 84.396 197.412C84.396 197.412 60.827 187.269 75.429 154.733C75.429 154.733 59.994 141.699 72.587 120.58C72.587 120.58 61.611 88.8771 94.539 79.1261C94.539 79.1261 92.089 53.6461 118.108 51.7351C118.157 51.6861 142.314 26.7451 163.776 51.6861Z" fill="url(#paint1_linear_911_68)"/>
<path opacity="0.3" d="M140.992 240.581C114.973 245.481 106.839 223.529 106.839 223.529C106.839 223.529 78.4675 223.529 87.2385 193.345C87.2385 193.345 68.9615 181.634 74.1065 158.065C62.4935 187.955 84.4455 197.412 84.4455 197.412C77.9285 231.565 104.389 231.565 104.389 231.565C104.389 231.565 112.523 253.517 138.542 248.617C160.592 244.501 163.434 230.536 163.777 226.371C160.886 231.761 154.565 238.033 140.992 240.581Z" fill="url(#paint2_linear_911_68)"/>
<path d="M117.275 50.2651C117.569 50.5591 133.69 55.4101 135.062 72.9031" stroke="white" stroke-width="5.771" stroke-miterlimit="10" stroke-linecap="round" stroke-linejoin="round"/>
<path d="M146.724 70.208C154.074 83.242 147.802 94.659 138.051 96.031" stroke="white" stroke-width="5.771" stroke-miterlimit="10" stroke-linecap="round" stroke-linejoin="round"/>
<path d="M92.9219 78.7831C122.273 77.9501 128.006 96.7171 127.908 115.288" stroke="white" stroke-width="5.771" stroke-miterlimit="10" stroke-linecap="round" stroke-linejoin="round"/>
<path d="M105.073 106.713C101.398 131.556 122.174 149.49 147.85 127.489" stroke="white" stroke-width="5.771" stroke-miterlimit="10" stroke-linecap="round" stroke-linejoin="round"/>
<path d="M104.633 150.715C120.656 159.192 128.839 145.276 127.908 137.289" stroke="white" stroke-width="5.771" stroke-miterlimit="10" stroke-linecap="round" stroke-linejoin="round"/>
<path d="M165.002 166.052C165.002 148.706 147.852 145.325 147.852 145.325" stroke="white" stroke-width="5.771" stroke-miterlimit="10" stroke-linecap="round" stroke-linejoin="round"/>
<path d="M73.959 155.419C80.182 165.464 91.354 166.052 91.354 166.052" stroke="white" stroke-width="5.771" stroke-miterlimit="10" stroke-linecap="round" stroke-linejoin="round"/>
<path d="M131.779 172.324C106.25 185.113 117.667 218.776 140.746 218.776" stroke="white" stroke-width="5.771" stroke-miterlimit="10" stroke-linecap="round" stroke-linejoin="round"/>
<path d="M96.2051 208.192C103.8 218.776 115.56 215.003 121.097 208.878" stroke="white" stroke-width="5.771" stroke-miterlimit="10" stroke-linecap="round" stroke-linejoin="round"/>
<path d="M140.746 186.436C159.464 193.247 165.687 202.018 165.442 214.856" stroke="white" stroke-width="5.771" stroke-miterlimit="10" stroke-linecap="round" stroke-linejoin="round"/>
<path d="M71.6074 119.012C76.3604 127.979 85.3274 126.313 85.3274 126.313" stroke="white" stroke-width="5.771" stroke-miterlimit="10" stroke-linecap="round" stroke-linejoin="round"/>
<path opacity="0.3" d="M153.339 59.4279V202.802C153.339 202.802 153.927 218.139 132.465 222.157C110.954 226.175 104.241 208.045 104.241 208.045C104.241 208.045 82.3874 208.045 87.7774 179.821C87.7774 179.821 68.2754 171.442 80.3784 144.541C80.3784 144.541 67.5894 133.81 78.0264 116.317C78.0264 116.317 68.9614 90.1019 96.1564 82.0659C96.1564 82.0659 94.1474 60.9959 115.658 59.4279C115.658 59.4279 135.601 38.8479 153.339 59.4279Z" fill="url(#paint3_linear_911_68)"/>
<path d="M167.108 51.6861V225.146C167.108 225.146 166.373 243.717 192.392 248.617C218.411 253.517 226.545 231.565 226.545 231.565C226.545 231.565 252.956 231.565 246.488 197.412C246.488 197.412 270.057 187.269 255.455 154.733C255.455 154.733 270.89 141.699 258.297 120.58C258.297 120.58 269.273 88.8771 236.345 79.1261C236.345 79.1261 238.795 53.6461 212.776 51.7351C212.727 51.6861 188.57 26.7451 167.108 51.6861Z" fill="white" stroke="white" stroke-width="8.9772" stroke-miterlimit="10"/>
<path d="M167.108 51.6861V225.146C167.108 225.146 166.373 243.717 192.392 248.617C218.411 253.517 226.545 231.565 226.545 231.565C226.545 231.565 252.956 231.565 246.488 197.412C246.488 197.412 270.057 187.269 255.455 154.733C255.455 154.733 270.89 141.699 258.297 120.58C258.297 120.58 269.273 88.8771 236.345 79.1261C236.345 79.1261 238.795 53.6461 212.776 51.7351C212.727 51.6861 188.57 26.7451 167.108 51.6861Z" fill="url(#paint4_linear_911_68)"/>
<path d="M189.894 240.581C215.913 245.481 224.047 223.529 224.047 223.529C224.047 223.529 252.418 223.529 243.647 193.345C243.647 193.345 261.924 181.634 256.779 158.065C268.392 187.955 246.44 197.412 246.44 197.412C252.957 231.565 226.497 231.565 226.497 231.565C226.497 231.565 218.363 253.517 192.344 248.617C170.294 244.501 167.452 230.536 167.109 226.371C170 231.761 176.272 238.033 189.894 240.581Z" fill="url(#paint5_linear_911_68)"/>
<path d="M213.609 50.2651C213.315 50.5591 197.194 55.4101 195.822 72.9031" stroke="white" stroke-width="5.771" stroke-miterlimit="10" stroke-linecap="round" stroke-linejoin="round"/>
<path d="M184.161 70.208C176.811 83.242 183.083 94.659 192.834 96.031" stroke="white" stroke-width="5.771" stroke-miterlimit="10" stroke-linecap="round" stroke-linejoin="round"/>
<path d="M237.962 78.7831C208.611 77.9501 202.878 96.7171 202.976 115.288" stroke="white" stroke-width="5.771" stroke-miterlimit="10" stroke-linecap="round" stroke-linejoin="round"/>
<path d="M225.81 106.713C229.485 131.556 208.709 149.49 183.033 127.489" stroke="white" stroke-width="5.771" stroke-miterlimit="10" stroke-linecap="round" stroke-linejoin="round"/>
<path d="M226.202 150.715C210.228 159.192 201.996 145.276 202.927 137.289" stroke="white" stroke-width="5.771" stroke-miterlimit="10" stroke-linecap="round" stroke-linejoin="round"/>
<path d="M165.883 166.052C165.883 148.706 183.033 145.325 183.033 145.325" stroke="white" stroke-width="5.771" stroke-miterlimit="10" stroke-linecap="round" stroke-linejoin="round"/>
<path d="M256.926 155.419C250.703 165.464 239.531 166.052 239.531 166.052" stroke="white" stroke-width="5.771" stroke-miterlimit="10" stroke-linecap="round" stroke-linejoin="round"/>
<path d="M199.106 172.324C224.635 185.113 213.218 218.776 190.139 218.776" stroke="white" stroke-width="5.771" stroke-miterlimit="10" stroke-linecap="round" stroke-linejoin="round"/>
<path d="M234.679 208.192C227.084 218.776 215.324 215.003 209.787 208.878" stroke="white" stroke-width="5.771" stroke-miterlimit="10" stroke-linecap="round" stroke-linejoin="round"/>
<path d="M190.139 186.436C171.372 193.247 165.198 202.018 165.443 214.856" stroke="white" stroke-width="5.771" stroke-miterlimit="10" stroke-linecap="round" stroke-linejoin="round"/>
<path d="M259.277 119.012C254.524 127.979 245.557 126.313 245.557 126.313" stroke="white" stroke-width="5.771" stroke-miterlimit="10" stroke-linecap="round" stroke-linejoin="round"/>
<path opacity="0.4" d="M177.545 59.4279V202.802C177.545 202.802 176.957 218.139 198.419 222.157C219.93 226.175 226.643 208.045 226.643 208.045C226.643 208.045 248.497 208.045 243.107 179.821C243.107 179.821 262.609 171.442 250.506 144.541C250.506 144.541 263.295 133.81 252.858 116.317C252.858 116.317 261.923 90.1019 234.728 82.0659C234.728 82.0659 236.737 60.9959 215.226 59.4279C215.226 59.4279 195.283 38.8479 177.545 59.4279Z" fill="url(#paint6_linear_911_68)"/>
<path d="M57.395 232.545C57.395 235.191 55.239 237.347 52.593 237.347C49.947 237.347 47.791 235.191 47.791 232.545C47.791 229.899 49.947 227.743 52.593 227.743C55.288 227.792 57.395 229.899 57.395 232.545Z" stroke="white" stroke-width="2.9592" stroke-miterlimit="10"/>
<path d="M257.365 54.1362C280.738 77.5092 295.193 109.8 295.193 145.521C295.193 216.865 237.324 274.734 165.98 274.734C132.121 274.734 101.251 261.7 78.2207 240.336" stroke="white" stroke-width="2.932" stroke-miterlimit="10" stroke-linecap="round" stroke-linejoin="round"/>
<path d="M258.492 51.294C258.492 53.891 256.385 56.047 253.739 56.047C251.142 56.047 248.986 53.94 248.986 51.294C248.986 48.697 251.093 46.541 253.739 46.541C256.385 46.541 258.492 48.648 258.492 51.294Z" stroke="white" stroke-width="2.9321" stroke-miterlimit="10"/>
<path d="M56.464 208.143C56.17 207.604 55.876 207.114 55.582 206.575" stroke="white" stroke-width="2.9591" stroke-miterlimit="10"/>
<path d="M224.926 33.9482C225.465 34.2422 226.004 34.5362 226.494 34.7812" stroke="white" stroke-width="2.9591" stroke-miterlimit="10"/>
<path d="M49.066 228.527C32.308 205.105 22.459 176.342 22.459 145.325C22.459 66.19 86.649 2 165.784 2C216.548 2 261.187 28.411 286.667 68.248" stroke="#F59FB7" stroke-width="3" stroke-miterlimit="10" stroke-linecap="round" stroke-linejoin="round" stroke-dasharray="6 6"/>
<path d="M284.666 65.4818C301.424 88.9038 311.273 117.667 311.273 148.684C311.273 227.819 247.083 292.009 167.948 292.009C117.184 292.009 72.5454 265.598 47.0654 225.761" stroke="#F59FB7" stroke-width="3" stroke-miterlimit="10" stroke-linecap="round" stroke-linejoin="round" stroke-dasharray="6 6"/>
<path d="M257.365 54.1362C280.738 77.5092 295.193 109.8 295.193 145.521C295.193 216.865 237.324 274.734 165.98 274.734C132.121 274.734 101.251 261.7 78.2207 240.336" stroke="white" stroke-width="2.932" stroke-miterlimit="10" stroke-linecap="round" stroke-linejoin="round"/>
<path d="M258.492 51.294C258.492 53.891 256.385 56.047 253.739 56.047C251.142 56.047 248.986 53.94 248.986 51.294C248.986 48.697 251.093 46.541 253.739 46.541C256.385 46.541 258.492 48.648 258.492 51.294Z" stroke="white" stroke-width="2.9321" stroke-miterlimit="10"/>
<path d="M56.464 208.143C56.17 207.604 55.876 207.114 55.582 206.575" stroke="white" stroke-width="2.9591" stroke-miterlimit="10"/>
<path d="M224.926 33.9482C225.465 34.2422 226.004 34.5362 226.494 34.7812" stroke="white" stroke-width="2.9591" stroke-miterlimit="10"/>
<path d="M33.7882 98.8494C27.5162 95.5664 22.9592 101.789 22.9592 101.789C22.9592 101.789 18.3532 95.5664 12.0812 98.8494C4.38815 102.916 11.0522 117.175 22.9592 121.242C34.8662 117.175 41.5302 102.867 33.7882 98.8494Z" fill="white"/>
<path d="M304.857 223.849C298.585 220.566 294.028 226.789 294.028 226.789C294.028 226.789 289.422 220.566 283.15 223.849C275.457 227.916 282.121 242.175 294.028 246.242C305.935 242.175 312.599 227.867 304.857 223.849Z" fill="white"/>
<path d="M18.3546 66.019C14.7776 64.157 12.1316 67.734 12.1316 67.734C12.1316 67.734 9.48559 64.157 5.90859 66.019C1.44959 68.371 5.32058 76.554 12.1806 78.906C18.9426 76.603 22.7646 68.371 18.3546 66.019Z" fill="white"/>
<path d="M289.421 191.019C285.844 189.157 283.198 192.734 283.198 192.734C283.198 192.734 280.552 189.157 276.975 191.019C272.516 193.371 276.387 201.554 283.247 203.906C290.009 201.603 293.831 193.371 289.421 191.019Z" fill="white"/>
<path d="M54.5652 75.2309C51.2822 73.5159 48.8812 76.7988 48.8812 76.7988C48.8812 76.7988 46.4802 73.5648 43.1972 75.2798C39.1792 77.3868 42.6582 84.8839 48.8812 86.9909C55.1042 84.8349 58.5832 77.3379 54.5652 75.2309Z" fill="white"/>
<path d="M325.632 200.231C322.349 198.516 319.948 201.799 319.948 201.799C319.948 201.799 317.547 198.565 314.264 200.28C310.246 202.387 313.725 209.884 319.948 211.991C326.171 209.835 329.65 202.338 325.632 200.231Z" fill="white"/>
<path d="M332.286 87.113V77.313H322.486V87.113H312.637V96.913H322.486V106.713H332.286V96.913H342.086V87.113H332.286Z" fill="white"/>
<path d="M19.649 218.282V208.482H9.84899V218.282H0V228.082H9.84899V237.882H19.649V228.082H29.449V218.282H19.649Z" fill="white"/>
<path d="M329.982 136.946V131.703H324.739V136.946H319.447V142.238H324.739V147.481H329.982V142.238H335.274V136.946H329.982Z" fill="white"/>
<path d="M45.412 246.115V240.872H40.1689V246.115H34.877V251.407H40.1689V256.65H45.412V251.407H50.7039V246.115H45.412Z" fill="white"/>
<defs>
<linearGradient id="paint0_linear_911_68" x1="213.215" y1="282.786" x2="213.215" y2="74.0644" gradientUnits="userSpaceOnUse">
<stop offset="0.0376344" stop-color="#165484"/>
<stop offset="0.1049" stop-color="#175F8A"/>
<stop offset="0.2913" stop-color="#1C7C9D"/>
<stop offset="0.4643" stop-color="#1E96AD"/>
<stop offset="0.6186" stop-color="#23AABA"/>
<stop offset="0.7483" stop-color="#27B7C2"/>
<stop offset="0.8379" stop-color="#24BEC6"/>
</linearGradient>
<linearGradient id="paint1_linear_911_68" x1="115.728" y1="306.406" x2="115.728" y2="56.7454" gradientUnits="userSpaceOnUse">
<stop offset="0.1175" stop-color="#165484"/>
<stop offset="0.2146" stop-color="#165886"/>
<stop offset="0.3644" stop-color="#18628D"/>
<stop offset="0.5482" stop-color="#1B7598"/>
<stop offset="0.7588" stop-color="#1E91AA"/>
<stop offset="0.9894" stop-color="#27BAC4"/>
<stop offset="1" stop-color="#24BEC6"/>
</linearGradient>
<linearGradient id="paint2_linear_911_68" x1="117.264" y1="249.319" x2="117.264" y2="40.5958" gradientUnits="userSpaceOnUse">
<stop offset="0.0376344" stop-color="#165484"/>
<stop offset="0.1049" stop-color="#175F8A"/>
<stop offset="0.2913" stop-color="#1C7C9D"/>
<stop offset="0.4643" stop-color="#1E96AD"/>
<stop offset="0.6186" stop-color="#23AABA"/>
<stop offset="0.7483" stop-color="#27B7C2"/>
<stop offset="0.8379" stop-color="#24BEC6"/>
</linearGradient>
<linearGradient id="paint3_linear_911_68" x1="113.65" y1="222.756" x2="113.65" y2="50.2839" gradientUnits="userSpaceOnUse">
<stop offset="0.0376344" stop-color="#165484"/>
<stop offset="0.1049" stop-color="#175F8A"/>
<stop offset="0.2913" stop-color="#1C7C9D"/>
<stop offset="0.4643" stop-color="#1E96AD"/>
<stop offset="0.6186" stop-color="#23AABA"/>
<stop offset="0.7483" stop-color="#27B7C2"/>
<stop offset="0.8379" stop-color="#24BEC6"/>
</linearGradient>
<linearGradient id="paint4_linear_911_68" x1="215.148" y1="33.1029" x2="215.148" y2="282.925" gradientUnits="userSpaceOnUse">
<stop stop-color="#F59FB7"/>
<stop offset="0.097449" stop-color="#F48DA4"/>
<stop offset="0.2472" stop-color="#F2768F"/>
<stop offset="0.4056" stop-color="#F1627F"/>
<stop offset="0.5745" stop-color="#F05274"/>
<stop offset="0.7611" stop-color="#EF476E"/>
<stop offset="1" stop-color="#EF436C"/>
</linearGradient>
<linearGradient id="paint5_linear_911_68" x1="213.614" y1="249.319" x2="213.614" y2="40.5958" gradientUnits="userSpaceOnUse">
<stop offset="0.1683" stop-color="#F59FB7"/>
<stop offset="0.5366" stop-color="#F2768E"/>
<stop offset="0.8407" stop-color="#F05375"/>
<stop offset="1" stop-color="#EF436C"/>
</linearGradient>
<linearGradient id="paint6_linear_911_68" x1="217.226" y1="222.756" x2="217.226" y2="50.2839" gradientUnits="userSpaceOnUse">
<stop offset="0.1683" stop-color="#F59FB7"/>
<stop offset="0.5366" stop-color="#F2768E"/>
<stop offset="0.8407" stop-color="#F05375"/>
<stop offset="1" stop-color="#EF436C"/>
</linearGradient>
</defs>
</svg>
