<svg width="471" height="255" viewBox="0 0 471 255" fill="none" xmlns="http://www.w3.org/2000/svg">
<path d="M414.992 131.385C415.827 132.501 416.105 134.036 415.827 135.431C415.27 138.919 411.931 141.012 408.731 142.407C405.113 144.081 401.635 145.476 398.156 147.429C391.2 151.336 384.938 156.498 379.651 162.358C379.512 162.497 379.512 162.497 379.512 162.637L378.677 162.497C378.677 162.358 378.677 162.218 378.677 162.218C375.895 154.824 371.999 147.848 366.851 141.57C364.346 138.501 361.564 135.85 358.92 133.059C356.555 130.548 354.19 127.479 354.885 123.991C355.163 122.596 355.859 121.34 357.111 120.503C358.781 119.387 360.59 120.224 362.399 120.224C365.599 120.364 368.242 118.131 369.216 115.481C372.138 108.226 364.625 102.087 360.868 96.5065C358.92 93.4371 357.529 89.6702 359.198 86.3219C359.894 84.7872 361.146 83.6711 362.955 83.113C364.764 82.555 366.573 82.555 368.381 82.1364C371.86 81.4388 374.364 79.3461 375.477 76.1373C376.73 72.6494 376.034 69.022 374.642 65.5341C373.112 61.6277 370.886 58.0003 370.19 53.8148C369.494 50.4665 370.051 46.8391 372.555 44.4673C373.808 43.2117 376.451 42.3746 378.26 42.6536C380.208 42.9327 382.156 43.9093 384.104 44.0488C387.582 44.1883 389.947 41.398 390.643 38.4682C391.478 34.7013 389.669 30.9344 388.834 27.307C387.999 23.4005 388.278 19.2151 389.391 15.4482C391.756 8.33291 397.6 2.7523 405.113 0.380546C405.113 0.380546 405.113 0.380546 405.252 0.380546C408.035 -0.456545 411.235 0.101513 413.6 1.91521C419.722 6.79824 423.201 14.1925 422.783 21.7264C422.505 25.7723 421.253 29.6787 419.027 33.0271C416.94 36.0964 413.879 38.8867 413.322 42.6536C412.905 45.723 414.018 49.0713 417.357 50.327C419.305 51.0245 421.531 50.7455 423.479 51.3036C425.288 51.7221 426.679 52.8382 427.653 54.3729C429.601 57.7213 428.766 61.4882 426.818 64.5575C424.592 68.0454 421.114 70.6962 418.331 73.7655C415.827 76.4163 413.879 79.6251 413.74 83.2525C413.6 86.6009 415.131 89.5307 418.192 91.4839C419.722 92.4605 421.531 93.1581 422.922 94.2742C424.314 95.3904 425.149 96.925 425.149 98.5992C425.427 102.366 422.783 105.435 419.861 107.389C414.435 111.295 405.113 114.225 405.252 122.038C405.252 124.968 406.922 127.897 409.983 128.874C411.792 129.851 413.74 129.851 414.992 131.385Z" fill="#81B8AD"/>
<path d="M408.657 96.2135C409.904 95.0992 407.826 93.2884 406.579 94.542L390.369 110.143C392.308 98.9994 394.109 87.9952 396.049 76.8517C396.188 76.7124 396.326 76.7124 396.465 76.5732C402.838 69.8871 409.211 63.3403 415.446 56.6542C416.554 55.4006 414.476 53.7291 413.368 54.9827C407.826 60.6937 402.284 66.544 396.742 72.2551C398.266 63.7582 399.651 55.2613 401.175 46.6251L406.579 15.5627C406.856 13.8912 404.223 13.4733 403.946 15.0055C400.76 33.6708 397.573 52.1968 394.386 70.8621C391.061 64.7332 387.598 58.7436 384.272 52.6147C383.441 51.0825 381.224 52.6147 382.056 54.0076C385.935 60.9723 389.814 67.937 393.694 74.9016C391.754 86.463 389.676 98.1636 387.736 109.725C383.857 104.293 379.839 98.8601 375.96 93.2883C374.99 91.8954 372.773 93.2883 373.743 94.6813C378.176 100.949 382.748 107.078 387.182 113.347C386.489 117.247 385.796 121.286 385.104 125.187C384.134 130.898 383.164 136.469 382.194 142.18C378.869 137.305 375.544 132.569 372.219 127.694C371.249 126.301 369.032 127.694 370.002 129.087L381.501 145.802C380.947 149.284 380.254 152.767 379.7 156.11C379.423 157.781 382.056 158.199 382.333 156.667C383.025 152.906 383.58 149.284 384.272 145.523C388.706 141.762 393.14 138.002 397.573 134.101C398.82 132.987 396.742 131.315 395.495 132.43C392.031 135.355 388.429 138.419 384.965 141.345C386.489 132.29 388.152 123.097 389.676 114.043C395.91 108.471 402.284 102.342 408.657 96.2135Z" fill="#5B847C"/>
<path d="M388.174 162.274C383.871 76.6221 468.213 77.4567 468.213 77.4567C468.213 77.4567 473.598 161.896 388.174 162.274Z" fill="#5B847C"/>
<path d="M444.288 127.79C445.188 127.686 444.675 126.208 443.755 126.435C435.965 127.801 428.052 129.146 420.262 130.511C426.715 123.481 433.271 116.594 439.725 109.564C446.002 108.96 452.28 108.357 458.558 107.753C459.458 107.649 458.924 106.295 458.024 106.399C452.381 106.981 446.88 107.46 441.236 108.042C443.217 105.966 445.075 103.869 447.057 101.793C452.121 96.3047 457.329 90.7133 462.394 85.2248C463.007 84.567 461.799 83.4803 461.309 84.1585C454.1 91.9494 446.89 99.7403 439.558 107.511L442.601 88.2687C442.743 87.4062 441.311 86.9153 441.169 87.7778L437.985 108.642C437.945 108.889 438.047 109.032 438.149 109.176C436.781 110.594 435.535 112.033 434.167 113.451C429.122 118.817 424.201 124.202 419.156 129.568C419.738 120.677 420.422 111.929 421.003 103.039C421.023 102.156 419.59 101.665 419.571 102.548C418.888 112.055 418.225 121.438 417.665 130.966C417.645 131.089 417.645 131.089 417.747 131.233C414.234 134.953 410.701 138.798 407.311 142.539C404.881 145.047 402.553 147.698 400.122 150.206C400.521 142.424 400.797 134.622 401.196 126.84C401.216 125.957 399.783 125.466 399.764 126.349C399.447 134.398 398.987 142.55 398.671 150.598C398.65 150.722 398.753 150.865 398.855 151.009C398.835 151.132 398.794 151.378 398.897 151.522C396.589 154.05 394.302 156.456 391.994 158.984C391.381 159.642 392.589 160.728 393.079 160.05C395.673 157.316 398.144 154.562 400.738 151.828C408.548 150.339 416.256 148.707 424.067 147.219C424.966 147.115 424.453 145.637 423.533 145.864C416.5 147.228 409.466 148.593 402.433 149.957C407.947 144.037 413.461 138.116 418.975 132.196C418.975 132.196 418.975 132.196 419.098 132.216C427.154 130.769 435.721 129.279 444.288 127.79Z" fill="#A6C6C1"/>
<path d="M396.724 109.252C396.724 111 393.739 112.749 388.514 114.247C376.82 117.495 354.055 119.743 327.931 119.743C301.807 119.743 279.042 117.495 267.348 114.247C261.999 112.749 259.014 111.125 259.014 109.252C259.014 103.507 289.865 98.7612 327.931 98.7612C365.873 98.7612 396.724 103.507 396.724 109.252Z" fill="#A35F4C"/>
<path d="M388.515 114.248C376.822 117.495 354.056 119.743 327.932 119.743C301.808 119.743 279.043 117.495 267.35 114.248C270.708 109.252 296.584 105.505 327.932 105.505C359.157 105.38 385.032 109.252 388.515 114.248Z" fill="#EAD4C3"/>
<path d="M327.808 222.901C251.924 222.901 258.89 109.252 258.89 109.252C258.89 114.997 289.741 119.743 327.808 119.743C365.874 119.743 396.725 115.122 396.725 109.252C396.725 109.252 403.692 222.901 327.808 222.901Z" fill="#A37367"/>
<path d="M327.807 41.437C327.807 41.437 303.549 93.5157 327.807 93.5157C352.065 93.3908 327.807 41.437 327.807 41.437Z" fill="#E0BC8D"/>
<path d="M334.649 77.6546C334.525 80.527 334.151 83.7741 332.907 86.3968C331.663 88.7697 329.3 90.3933 326.563 89.8937C323.577 89.2693 321.711 86.6466 320.965 83.899C319.099 77.7795 320.094 70.6608 323.08 65.0408C323.204 64.7911 323.329 64.6662 323.453 64.5413C324.448 62.7928 325.941 61.2942 328.18 61.5439C331.166 61.9186 332.41 65.2906 333.281 67.6635C334.276 70.9106 334.773 74.2826 334.649 77.6546Z" fill="#C8995E"/>
<path d="M327.559 85.6478C326.439 89.5194 326.315 93.5158 326.439 97.3874C326.439 101.634 326.439 105.88 326.564 110.126C326.564 111 327.932 111 327.932 110.126C327.932 106.005 327.932 101.883 327.932 97.6371C327.932 93.6407 327.932 89.6443 329.052 85.8976C329.176 85.1483 327.808 84.7736 327.559 85.6478Z" fill="#804130"/>
<path d="M397.969 120.866C380.802 127.86 362.515 132.231 344.104 133.979C325.692 135.728 306.908 134.979 288.621 131.607C278.42 129.733 268.344 126.986 258.516 123.489C257.646 123.239 257.397 124.488 258.143 124.863C275.684 131.232 294.219 134.854 312.879 135.978C331.415 137.102 350.075 135.603 368.237 131.482C378.438 129.234 388.514 126.111 398.342 122.115C399.088 121.865 398.715 120.491 397.969 120.866Z" fill="#804130"/>
<path d="M395.48 142.972C378.811 149.966 361.146 154.462 343.232 156.46C325.319 158.458 307.032 157.959 289.243 154.961C279.291 153.213 269.463 150.715 259.884 147.468C259.014 147.218 258.64 148.467 259.511 148.842C276.678 154.712 294.716 158.084 312.754 158.833C330.917 159.707 349.079 157.959 366.744 153.712C376.696 151.34 386.399 148.217 395.729 144.221C396.6 143.971 396.351 142.597 395.48 142.972Z" fill="#804130"/>
<path d="M389.136 171.946C373.711 176.941 357.788 180.188 341.74 181.437C325.692 182.811 309.645 182.312 293.722 180.064C284.765 178.815 275.932 176.941 267.224 174.444C266.353 174.194 265.98 175.568 266.851 175.817C282.401 180.188 298.449 182.686 314.621 183.436C330.793 184.185 346.965 183.061 362.888 180.064C371.845 178.44 380.802 176.192 389.51 173.32C390.256 173.07 390.007 171.696 389.136 171.946Z" fill="#804130"/>
<path d="M362.765 245.505C287.751 245.505 307.407 190.055 332.162 149.091C346.095 125.987 379.434 125.987 393.367 149.091C418.123 190.055 437.778 245.505 362.765 245.505Z" fill="#DDBFB5"/>
<path d="M398.343 173.07C397.348 171.571 394.985 172.945 395.98 174.444C403.941 186.308 407.176 200.92 404.812 215.033C404.563 216.781 407.176 217.53 407.425 215.782C409.913 200.92 406.678 185.559 398.343 173.07Z" fill="#CC8979"/>
<path d="M405.31 220.903C404.688 220.528 403.818 220.778 403.444 221.402C401.205 224.774 399.09 228.146 396.851 231.518C396.478 232.143 396.727 233.017 397.349 233.391C397.971 233.766 398.842 233.516 399.215 232.892C401.454 229.52 403.569 226.148 405.808 222.776C406.306 222.151 405.932 221.277 405.31 220.903Z" fill="#CC8979"/>
<path d="M333.406 155.586C329.052 162.954 325.444 170.822 322.583 178.815C321.961 180.438 324.574 181.188 325.196 179.564C328.057 171.696 331.54 164.203 335.77 156.959C336.64 155.461 334.277 154.087 333.406 155.586Z" fill="#CC8979"/>
<path d="M321.091 184.435C320.345 184.31 319.598 184.685 319.474 185.434C318.727 188.431 317.981 191.304 317.235 194.301C317.11 195.05 317.483 195.8 318.23 195.925C318.976 196.049 319.723 195.675 319.847 194.925C320.593 191.928 321.34 189.056 322.086 186.058C322.211 185.434 321.837 184.685 321.091 184.435Z" fill="#CC8979"/>
<path d="M380.927 236.139C380.803 236.014 380.803 236.014 380.678 235.889C380.554 235.764 380.305 235.64 380.056 235.515C379.932 235.515 379.807 235.515 379.683 235.515C379.434 235.515 379.185 235.64 378.937 235.64C378.812 235.764 378.563 235.764 378.439 235.889C378.315 236.014 378.19 236.139 378.066 236.264C377.941 236.389 377.817 236.514 377.817 236.764C377.817 236.888 377.693 237.138 377.817 237.263C377.817 237.388 377.817 237.638 377.941 237.763C378.066 237.888 378.066 237.888 378.19 238.012C378.315 238.137 378.563 238.262 378.812 238.387H379.185C379.434 238.387 379.683 238.262 379.932 238.262C380.056 238.137 380.305 238.137 380.429 238.012C380.554 237.888 380.678 237.763 380.803 237.638C380.927 237.513 381.051 237.388 381.051 237.138C381.051 237.013 381.176 236.764 381.051 236.639C381.051 236.514 381.051 236.264 380.927 236.139Z" fill="#CC8979"/>
<path d="M388.763 229.895C387.022 229.895 387.022 232.642 388.763 232.642C390.505 232.642 390.505 229.895 388.763 229.895Z" fill="#CC8979"/>
<path d="M382.544 227.397C382.42 227.147 382.42 227.022 382.171 226.772C382.047 226.647 382.047 226.647 381.922 226.522C381.673 226.397 381.425 226.397 381.176 226.397H380.927C380.678 226.397 380.554 226.397 380.429 226.522C380.305 226.522 380.056 226.647 379.932 226.772C379.807 226.897 379.683 227.022 379.683 227.272C379.559 227.397 379.559 227.646 379.559 227.771V228.146C379.683 228.396 379.683 228.521 379.932 228.77C380.056 228.895 380.056 228.895 380.181 229.02C380.429 229.145 380.678 229.145 380.927 229.145H381.176C381.425 229.145 381.549 229.145 381.673 229.02C381.798 229.02 382.047 228.895 382.171 228.77C382.295 228.645 382.42 228.521 382.42 228.271C382.544 228.146 382.544 227.896 382.544 227.771C382.544 227.646 382.544 227.521 382.544 227.397Z" fill="#CC8979"/>
<path d="M373.96 231.393C372.219 231.393 372.219 234.141 373.96 234.141C375.702 234.141 375.702 231.393 373.96 231.393Z" fill="#CC8979"/>
<path d="M370.353 147.343C365.253 148.342 360.028 148.717 354.928 148.592C351.569 148.467 346.095 148.717 344.354 144.97C343.98 144.221 343.856 143.472 343.98 142.847C343.856 142.098 343.98 141.473 344.229 140.724C345.846 136.977 351.444 135.978 354.928 135.354C359.53 134.48 364.382 134.48 368.985 135.479C372.219 136.103 377.444 137.227 377.942 141.224C378.439 145.345 373.463 146.719 370.353 147.343Z" fill="#CC8979"/>
<path d="M361.272 74.2832C361.272 74.2832 337.014 126.362 361.272 126.362C385.654 126.362 361.272 74.2832 361.272 74.2832Z" fill="#E0BC8D"/>
<path d="M368.612 111C368.487 113.873 368.114 117.12 366.87 119.743C365.626 122.115 363.263 123.739 360.526 123.239C357.54 122.615 355.674 119.992 354.928 117.245C353.062 111.125 354.057 104.007 357.043 98.3865C357.167 98.1368 357.291 98.0119 357.416 97.887C358.411 96.1385 359.904 94.6399 362.143 94.8896C365.129 95.2643 366.373 98.6363 367.243 101.009C368.239 104.256 368.736 107.753 368.612 111Z" fill="#C8995E"/>
<path d="M362.019 132.731C363.139 128.609 363.761 123.864 361.024 120.117C360.526 119.368 359.282 120.117 359.904 120.866C362.89 124.863 361.397 129.858 360.278 134.229C359.158 138.476 358.287 143.346 360.9 147.218C361.397 147.967 362.517 147.218 362.019 146.469C359.158 142.222 360.9 137.102 362.019 132.731Z" fill="#804130"/>
<path d="M226.049 146.843C226.049 146.843 266.728 136.103 306.536 146.843V236.638C306.536 236.638 267.474 247.129 226.049 236.638V146.843Z" fill="#EAD4C3"/>
<path d="M226.049 146.843C226.049 146.843 259.637 162.08 306.536 146.843C306.536 146.843 271.828 135.728 226.049 146.843Z" fill="#DBBDAA"/>
<path d="M261.129 80.2778C261.129 80.2778 236.871 132.356 261.129 132.356C285.387 132.232 261.129 80.2778 261.129 80.2778Z" fill="#E0BC8D"/>
<path d="M239.732 188.057C238.986 188.057 238.364 188.682 238.364 189.431C238.24 191.429 238.115 193.427 238.115 195.426C238.115 196.175 238.737 196.799 239.484 196.799C240.23 196.799 240.852 196.175 240.852 195.426C240.976 193.427 241.101 191.429 241.101 189.431C241.101 188.682 240.479 187.932 239.732 188.057Z" fill="#DBBDAA"/>
<path d="M263.493 189.555C263.493 188.806 262.871 188.182 262.124 188.182C261.378 188.182 260.756 188.806 260.756 189.555C260.756 191.803 260.88 194.051 260.88 196.424C260.88 197.174 261.502 197.798 262.249 197.798C262.995 197.798 263.617 197.174 263.617 196.424C263.493 194.176 263.493 191.928 263.493 189.555Z" fill="#DBBDAA"/>
<path d="M280.163 192.428C280.163 192.053 280.038 191.679 279.79 191.429C279.541 191.179 279.168 191.054 278.794 191.054C278.172 191.054 277.302 191.679 277.426 192.428C277.675 194.301 277.799 196.175 278.048 198.048C278.048 198.423 278.172 198.797 278.421 199.047C278.67 199.297 279.043 199.422 279.416 199.422C280.038 199.422 280.909 198.797 280.785 198.048C280.66 196.05 280.412 194.301 280.163 192.428Z" fill="#DBBDAA"/>
<path d="M300.192 189.68C300.068 188.931 299.57 188.307 298.824 188.307C298.202 188.307 297.331 188.931 297.455 189.68C297.704 192.178 297.953 194.551 298.202 197.049C298.326 197.798 298.824 198.423 299.57 198.423C300.192 198.423 301.063 197.798 300.939 197.049C300.69 194.551 300.441 192.053 300.192 189.68Z" fill="#DBBDAA"/>
<path d="M248.69 204.917C247.944 204.917 247.446 205.541 247.322 206.291C247.197 208.789 246.949 211.161 246.824 213.659C246.824 214.409 247.446 215.033 248.193 215.033C248.939 215.033 249.437 214.409 249.561 213.659C249.685 211.161 249.934 208.789 250.059 206.291C250.183 205.541 249.437 204.917 248.69 204.917Z" fill="#DBBDAA"/>
<path d="M270.087 209.538C269.962 208.788 269.465 208.164 268.718 208.164C268.096 208.164 267.225 208.788 267.35 209.538C267.599 211.911 267.847 214.284 268.096 216.656C268.221 217.406 268.718 218.03 269.465 218.03C270.087 218.03 270.957 217.406 270.833 216.656C270.46 214.284 270.211 211.911 270.087 209.538Z" fill="#DBBDAA"/>
<path d="M293.101 207.665C292.354 207.665 291.732 208.289 291.732 209.038C291.732 211.786 291.732 214.409 291.732 217.156C291.732 217.905 292.354 218.53 293.101 218.53C293.847 218.53 294.469 217.905 294.469 217.156C294.469 214.409 294.469 211.786 294.469 209.038C294.469 208.289 293.847 207.665 293.101 207.665Z" fill="#DBBDAA"/>
<path d="M229.904 206.416C229.158 206.416 228.66 207.04 228.536 207.789C228.287 210.287 228.163 212.785 227.914 215.408C227.914 216.157 228.536 216.781 229.282 216.781C230.029 216.781 230.526 216.157 230.651 215.408C230.9 212.91 231.024 210.412 231.273 207.789C231.273 207.04 230.526 206.416 229.904 206.416Z" fill="#DBBDAA"/>
<path d="M236.748 221.277C236.002 221.277 235.38 221.902 235.38 222.651C235.255 224.899 235.131 227.147 235.131 229.52C235.131 230.269 235.753 230.894 236.499 230.894C237.246 230.894 237.868 230.269 237.868 229.52C237.992 227.272 238.116 225.024 238.116 222.651C238.116 222.027 237.494 221.277 236.748 221.277Z" fill="#DBBDAA"/>
<path d="M256.776 224.399C256.03 224.399 255.408 225.024 255.408 225.773C255.408 227.771 255.283 229.77 255.283 231.893C255.283 232.642 255.905 233.267 256.652 233.267C257.398 233.267 258.02 232.642 258.02 231.893C258.02 229.895 258.144 227.896 258.144 225.773C258.144 225.024 257.398 224.275 256.776 224.399Z" fill="#DBBDAA"/>
<path d="M280.288 225.773C280.288 225.024 279.666 224.399 278.919 224.399C278.173 224.399 277.551 225.024 277.551 225.773C277.675 227.896 277.8 230.019 277.924 232.143C277.924 232.892 278.546 233.516 279.292 233.516C280.039 233.516 280.661 232.892 280.661 232.143C280.536 229.895 280.412 227.896 280.288 225.773Z" fill="#DBBDAA"/>
<path d="M301.809 230.644C301.436 228.396 301.187 226.148 300.814 223.775C300.689 223.026 299.818 222.651 299.196 222.776C298.45 223.026 298.201 223.65 298.201 224.4C298.574 226.648 298.823 228.896 299.196 231.269C299.321 232.018 300.192 232.393 300.814 232.268C301.684 232.143 301.933 231.393 301.809 230.644Z" fill="#DBBDAA"/>
<path d="M247.819 172.945C247.819 172.196 247.197 171.571 246.45 171.571C245.828 171.571 245.082 172.196 245.082 172.945C245.331 175.443 245.455 177.816 245.704 180.314C245.704 181.063 246.326 181.687 247.072 181.687C247.694 181.687 248.441 181.063 248.441 180.314C248.316 177.816 248.068 175.318 247.819 172.945Z" fill="#DBBDAA"/>
<path d="M234.258 162.704C234.258 161.955 233.636 161.33 232.89 161.33C232.143 161.33 231.521 161.955 231.521 162.704C231.646 164.827 231.646 166.95 231.77 169.198C231.77 169.947 232.392 170.572 233.139 170.572C233.885 170.572 234.507 169.947 234.507 169.198C234.507 166.95 234.383 164.827 234.258 162.704Z" fill="#DBBDAA"/>
<path d="M273.321 182.936C272.947 180.563 272.698 178.19 272.325 175.693C272.201 174.943 271.33 174.569 270.708 174.694C269.962 174.943 269.713 175.568 269.713 176.317C270.086 178.69 270.335 181.063 270.708 183.561C270.833 184.31 271.703 184.685 272.325 184.56C273.196 184.31 273.445 183.686 273.321 182.936Z" fill="#DBBDAA"/>
<path d="M262.748 167.95C262.375 165.577 262.001 163.329 261.628 160.956C261.504 160.207 260.633 159.832 260.011 159.957C259.265 160.207 258.891 160.831 259.016 161.58C259.389 163.953 259.762 166.201 260.135 168.574C260.26 169.323 261.131 169.698 261.753 169.573C262.499 169.448 262.748 168.699 262.748 167.95Z" fill="#DBBDAA"/>
<path d="M290.116 176.317C290.116 175.568 289.494 174.943 288.747 174.943C288.001 174.943 287.379 175.568 287.379 176.317C287.503 178.44 287.752 180.438 287.876 182.562C287.876 183.311 288.499 183.935 289.245 183.935C289.991 183.935 290.613 183.311 290.613 182.562C290.489 180.438 290.24 178.315 290.116 176.317Z" fill="#DBBDAA"/>
<path d="M301.559 159.207C301.559 158.458 300.937 157.833 300.191 157.833C299.444 157.833 298.822 158.458 298.822 159.207C298.947 161.33 298.947 163.453 299.071 165.701C299.071 166.451 299.693 167.075 300.439 167.075C301.186 167.075 301.808 166.451 301.808 165.701C301.808 163.578 301.683 161.455 301.559 159.207Z" fill="#DBBDAA"/>
<path d="M281.282 161.08C281.282 160.706 281.158 160.456 280.909 160.081C280.66 159.831 280.287 159.707 279.914 159.707C279.292 159.707 278.421 160.331 278.545 161.08C278.794 163.079 279.043 164.952 279.292 166.95C279.292 167.325 279.416 167.575 279.665 167.949C279.914 168.199 280.287 168.324 280.66 168.324C281.282 168.324 282.153 167.699 282.028 166.95C281.78 165.077 281.531 163.079 281.282 161.08Z" fill="#DBBDAA"/>
<path d="M267.971 116.495C267.847 119.368 267.474 122.615 266.23 125.238C264.986 127.611 262.622 129.234 259.885 128.735C256.9 128.11 255.034 125.487 254.287 122.74C252.421 116.62 253.416 109.502 256.402 103.882C256.526 103.632 256.651 103.507 256.775 103.382C257.77 101.634 259.263 100.135 261.502 100.385C264.488 100.759 265.732 104.131 266.603 106.504C267.598 109.751 268.096 113.123 267.971 116.495Z" fill="#C8995E"/>
<path d="M260.881 124.488C259.762 128.36 259.637 132.356 259.762 136.228C259.762 140.474 259.762 144.72 259.886 148.966C259.886 149.841 261.254 149.841 261.254 148.966C261.254 144.845 261.254 140.724 261.254 136.478C261.254 132.481 261.254 128.485 262.374 124.738C262.374 123.989 261.13 123.614 260.881 124.488Z" fill="#804130"/>
<path d="M82.574 160.348C-2.81168 162.214 0.429238 77.6672 0.429238 77.6672C0.429238 77.6672 84.5784 74.5323 82.574 160.348Z" fill="#5B847C"/>
<path d="M49.8932 103.086C49.8159 102.216 48.3621 102.722 48.4394 103.592C49.5173 111.521 50.7192 119.438 51.7971 127.366C45.0855 120.694 38.25 114.033 31.5274 107.236C31.0886 100.881 30.6607 94.6497 30.2219 88.2944C30.1446 87.4237 28.6908 87.9298 28.7681 88.8006C29.1407 94.4095 29.5134 100.018 30.021 105.741C27.9747 103.792 26.0414 101.708 23.9951 99.7595C18.6551 94.4693 13.315 89.1791 7.97492 83.8889C7.42411 83.3112 6.27329 84.4171 6.8241 84.9948C14.3564 92.4713 21.8887 99.9478 29.5449 107.413L10.3711 103.861C9.48161 103.69 8.98345 105.114 9.87288 105.285L30.5667 109.077C30.8145 109.055 30.9384 109.044 31.0513 108.908C32.4228 110.29 33.7943 111.672 35.1659 113.054C40.371 118.231 45.5761 123.408 50.9051 128.574C42.088 127.732 33.2709 126.891 24.5777 126.038C23.6993 125.991 23.2011 127.415 24.0795 127.462C33.5272 128.372 42.851 129.294 52.2987 130.205C52.4226 130.194 52.4226 130.194 52.5465 130.183C56.2342 133.74 59.8089 137.432 63.4966 140.99C65.9587 143.403 68.4318 145.94 70.8939 148.353C63.1012 147.796 55.4323 147.227 47.6286 146.546C46.7502 146.499 46.252 147.923 47.1304 147.97C55.182 148.629 63.2226 149.164 71.2741 149.823C71.3981 149.812 71.6459 149.79 71.7587 149.655C71.8827 149.644 72.0066 149.633 72.2544 149.61C74.7165 152.023 77.0547 154.447 79.5058 156.736C80.0566 157.314 81.2074 156.208 80.6566 155.63C78.0485 152.979 75.3165 150.34 72.7195 147.813C71.3937 139.907 70.079 132.126 68.7532 124.22C68.552 123.36 67.2221 123.855 67.2994 124.726C68.424 131.772 69.6835 138.932 70.8082 145.978C65.0522 140.224 59.3073 134.593 53.5514 128.839C53.5514 128.839 53.5514 128.839 53.5404 128.715C52.2944 120.3 51.1612 111.75 49.8932 103.086Z" fill="#A6C6C1"/>
<path d="M146.318 51.3424C146.194 51.7171 146.194 52.0917 146.069 52.4664C144.452 57.8366 138.108 60.5842 132.51 61.958C118.701 65.33 104.271 66.0793 90.2136 63.8313C85.1132 63.082 79.0175 60.834 78.1467 55.7135C78.1467 55.5886 78.1467 55.4637 78.1467 55.214C77.8979 52.0917 79.6395 49.3442 81.8787 46.9713C81.8787 46.9713 81.8788 46.9713 82.0032 46.8464C82.7496 46.0971 83.3716 45.4726 84.118 44.8482C87.1036 42.3504 90.2136 39.9775 93.448 37.8544C106.634 30.7357 123.553 29.9864 136.864 37.1051C142.088 40.3522 147.313 45.4726 146.318 51.3424Z" fill="#51515C"/>
<path d="M185.255 78.5676C183.887 85.5614 177.418 90.3072 171.074 93.4294C166.595 95.5525 161.993 97.3009 157.141 98.5498C142.835 102.421 127.534 102.921 112.606 103.046C102.529 103.171 92.0798 102.921 82.1278 101.672C71.305 100.173 60.731 97.4258 51.2766 91.8058C48.0422 89.9325 44.559 87.185 44.0614 83.4383C43.5638 79.6916 46.1762 76.3196 48.7886 73.5721C56.8746 65.2045 67.0754 58.8352 78.147 55.3383C78.147 55.4632 78.147 55.5881 78.147 55.8378C79.0178 60.9583 85.1134 63.2063 90.2138 63.9556C104.271 66.2036 118.701 65.4543 132.51 62.0823C138.108 60.7085 144.452 57.961 146.069 52.5907C155.648 51.217 165.849 53.2152 174.059 58.4605C180.901 62.8316 186.748 70.4498 185.255 78.5676Z" fill="#60606C"/>
<path d="M174.557 157.997C172.566 159.996 170.327 161.619 167.964 162.993C161.619 166.615 154.155 168.488 146.816 169.612C125.916 173.109 104.271 172.734 83.4959 168.613C82.7495 168.488 82.0031 168.363 81.2567 168.113C74.5391 166.615 67.6971 164.367 62.8455 159.621C53.7643 150.629 54.2619 135.268 60.4819 124.028C65.5823 114.786 73.6683 107.917 82.1275 101.548C92.2039 102.921 102.529 103.046 112.605 102.921C127.533 102.796 142.835 102.297 157.141 98.4253C159.877 99.5493 162.49 100.923 164.978 102.547C173.935 108.416 180.901 117.658 183.016 128.149C185.131 138.764 182.145 150.379 174.557 157.997Z" fill="#51515C"/>
<path d="M206.776 206.954C203.417 214.198 194.833 216.945 187.121 218.694C148.183 227.561 107.629 229.309 68.3187 222.315C64.2135 221.566 60.1083 220.692 56.3763 218.819C52.6443 216.82 49.5343 213.698 48.4147 209.577C47.0463 204.206 49.6587 198.711 52.6443 194.09C59.7351 183.225 69.6871 174.233 81.1319 168.114C81.8783 168.239 82.6247 168.488 83.3711 168.613C104.146 172.734 125.791 173.109 146.691 169.612C154.03 168.363 161.494 166.615 167.839 162.993C171.695 163.992 175.551 165.241 179.283 166.865C189.609 171.361 199.063 178.479 204.537 188.346C207.771 193.966 209.513 201.084 206.776 206.954Z" fill="#60606C"/>
<path d="M73.9169 60.7089C67.1993 62.832 60.9793 66.7035 56.1277 71.9489C53.8885 74.4466 51.6493 77.444 51.4005 80.9409C51.1517 84.0631 52.8933 87.0604 55.7545 88.1844C57.3717 88.8089 58.1181 86.1862 56.5009 85.4368C54.0129 84.4377 53.8885 81.3155 54.6349 79.1924C55.6301 76.4448 57.8693 74.1969 59.8597 72.1986C64.0893 68.2022 69.1897 65.2049 74.6633 63.4564C76.4049 62.832 75.6585 60.2093 73.9169 60.7089Z" fill="#353540"/>
<path d="M66.0793 90.557C64.2133 89.5579 62.2229 88.6837 60.3569 87.6846C59.7349 87.3099 58.8641 87.4348 58.4909 88.1841C58.1177 88.8086 58.2421 89.8077 58.9885 90.0575C60.8545 91.0566 62.8449 91.9308 64.7109 92.9299C65.3329 93.3046 66.2037 93.1797 66.5769 92.4303C66.9501 91.9308 66.8257 90.9317 66.0793 90.557Z" fill="#353540"/>
<path d="M85.1127 107.043C76.2803 113.537 67.8211 121.655 64.8355 132.52C62.2231 142.136 64.8355 153.127 73.4191 158.872C74.9119 159.871 76.2803 157.498 74.7875 156.499C66.8259 151.128 65.0843 140.763 67.8211 132.145C70.9311 122.529 78.5195 115.285 86.4811 109.416C87.9739 108.416 86.6055 105.919 85.1127 107.043Z" fill="#353540"/>
<path d="M112.73 162.243C103.027 162.868 93.1991 161.619 83.9935 158.621C82.2519 158.122 81.5055 160.745 83.2471 161.369C92.7015 164.491 102.778 165.74 112.73 165.116C114.472 164.991 114.472 162.243 112.73 162.243Z" fill="#353540"/>
<path d="M81.5063 150.879C81.5063 150.754 81.3819 150.504 81.2575 150.379C81.1331 150.254 81.0087 150.129 80.7599 150.129C80.6355 150.004 80.3867 150.004 80.2623 150.004C80.1379 150.004 80.0135 150.004 79.8891 150.004C79.6403 150.129 79.3915 150.129 79.2671 150.379C79.1427 150.504 79.1427 150.629 79.0183 150.629C78.8939 150.879 78.7695 151.128 78.7695 151.378V151.628C78.7695 151.878 78.7695 152.003 78.8939 152.128C78.8939 152.252 79.0183 152.502 79.1427 152.627C79.2671 152.752 79.3915 152.877 79.6403 152.877C79.7647 153.002 80.0135 153.002 80.1379 153.002H80.5111C80.7599 152.877 81.0087 152.752 81.1331 152.627C81.2575 152.502 81.2575 152.377 81.3819 152.377C81.5063 152.127 81.6307 151.878 81.6307 151.628V151.378C81.6307 151.253 81.6307 151.004 81.5063 150.879Z" fill="#353540"/>
<path d="M81.0083 141.012C81.0083 140.888 80.8839 140.638 80.7595 140.513C80.6351 140.388 80.5107 140.263 80.2619 140.263C80.1375 140.138 79.8887 140.138 79.7643 140.138C79.6399 140.138 79.5155 140.138 79.3911 140.138C79.1423 140.263 78.8935 140.388 78.7691 140.513C78.6447 140.638 78.6447 140.763 78.5203 140.763C78.3959 141.012 78.2715 141.262 78.2715 141.512V141.762C78.2715 142.012 78.2715 142.136 78.3959 142.261C78.3959 142.386 78.5203 142.636 78.6447 142.761C78.7691 142.886 78.8935 143.011 79.1423 143.011C79.2667 143.136 79.5155 143.136 79.6399 143.136H80.0131C80.2619 143.011 80.5107 142.886 80.6351 142.761C80.7595 142.636 80.7595 142.511 80.8839 142.511C81.0083 142.261 81.1327 142.012 81.1327 141.762V141.512C81.1327 141.262 81.0083 141.137 81.0083 141.012Z" fill="#353540"/>
<path d="M90.0903 143.884C90.0903 143.76 89.9659 143.51 89.8415 143.385C89.7171 143.26 89.5927 143.135 89.3439 143.135C89.2195 143.01 88.9707 143.01 88.8463 143.01H88.4731C88.2243 143.135 87.9755 143.26 87.8511 143.385C87.7267 143.51 87.7267 143.635 87.6023 143.635C87.4779 143.884 87.3535 144.134 87.3535 144.384V144.634C87.3535 144.884 87.3535 145.008 87.4779 145.133C87.4779 145.258 87.6023 145.508 87.7267 145.633C87.8511 145.758 87.9755 145.883 88.2243 145.883C88.3487 146.008 88.5975 146.008 88.7219 146.008C88.8463 146.008 88.9707 146.008 89.0951 146.008C89.3439 145.883 89.5927 145.758 89.7171 145.633C89.8415 145.508 89.8415 145.383 89.9659 145.383C90.0903 145.133 90.2147 144.884 90.2147 144.634V144.384C90.2147 144.134 90.2147 144.009 90.0903 143.884Z" fill="#353540"/>
<path d="M88.5963 153.377C88.4719 153.127 88.3475 152.877 88.2231 152.752C88.0987 152.627 88.0987 152.627 87.9743 152.503C87.8499 152.378 87.7255 152.253 87.4767 152.253C87.3523 152.128 87.1035 152.128 86.9791 152.128C86.7303 152.128 86.6059 152.128 86.4815 152.253C86.3571 152.253 86.1083 152.378 85.9839 152.503C85.8595 152.627 85.8595 152.752 85.7351 152.752C85.6107 153.002 85.4863 153.252 85.4863 153.502C85.4863 153.627 85.4863 153.751 85.4863 153.876C85.6107 154.126 85.7351 154.376 85.8595 154.501L86.1083 154.751C86.2327 154.875 86.3571 155 86.6059 155C86.7303 155.125 86.9791 155.125 87.1035 155.125C87.3523 155.125 87.4767 155.125 87.6011 155C87.7255 155 87.9743 154.875 88.0987 154.751C88.2231 154.626 88.2231 154.501 88.3475 154.501C88.4719 154.251 88.5963 154.001 88.5963 153.751C88.5963 153.627 88.5963 153.502 88.5963 153.377Z" fill="#353540"/>
<path d="M93.945 153.127C92.2034 153.127 92.079 155.999 93.945 155.999C95.811 155.999 95.811 153.127 93.945 153.127Z" fill="#353540"/>
<path d="M100.042 152.877C99.9172 152.627 99.9172 152.377 99.6684 152.252L99.4196 152.003C99.2952 151.878 99.1708 151.753 98.922 151.753C98.7976 151.628 98.5488 151.628 98.4244 151.628C98.1756 151.628 98.0512 151.628 97.9268 151.753C97.8024 151.753 97.5536 151.878 97.4292 152.003C97.3048 152.127 97.3048 152.252 97.1804 152.252C97.056 152.502 96.9316 152.752 96.9316 153.002C96.9316 153.127 96.9316 153.251 96.9316 153.376C97.056 153.626 97.1804 153.876 97.3048 154.001L97.5536 154.251C97.678 154.375 97.8024 154.5 98.0512 154.5C98.1756 154.625 98.4244 154.625 98.5488 154.625C98.7976 154.625 98.922 154.625 99.0464 154.5C99.1708 154.5 99.4196 154.375 99.544 154.251C99.6684 154.126 99.6684 154.001 99.7928 154.001C99.9172 153.751 100.042 153.501 100.042 153.251C100.042 153.127 100.042 153.002 100.042 152.877Z" fill="#353540"/>
<path d="M162.989 89.3083C162.989 89.1834 162.864 88.9336 162.74 88.8088C162.616 88.6839 162.491 88.559 162.242 88.559C162.118 88.4341 161.869 88.4341 161.745 88.4341C161.62 88.4341 161.496 88.4341 161.372 88.4341C161.123 88.559 160.874 88.6839 160.75 88.8088C160.625 88.9336 160.625 89.0585 160.501 89.0585C160.376 89.3083 160.252 89.5581 160.252 89.8078V90.0576C160.252 90.3074 160.252 90.4323 160.376 90.5572C160.376 90.6821 160.501 90.9318 160.625 91.0567C160.75 91.1816 160.874 91.3065 161.123 91.3065C161.247 91.4314 161.496 91.4314 161.62 91.4314H161.994C162.242 91.3065 162.491 91.1816 162.616 91.0567C162.74 90.9318 162.74 90.807 162.864 90.807C162.989 90.5572 163.113 90.3074 163.113 90.0576V89.8078C163.113 89.683 163.113 89.5581 162.989 89.3083Z" fill="#353540"/>
<path d="M173.188 84.0633C173.064 83.8136 172.939 83.5638 172.815 83.4389C172.691 83.314 172.691 83.314 172.566 83.1891C172.442 83.0642 172.317 82.9393 172.069 82.9393C171.944 82.8144 171.695 82.8145 171.571 82.8145C171.322 82.8145 171.198 82.8144 171.073 82.9393C170.949 82.9393 170.7 83.0642 170.576 83.1891L170.327 83.4389C170.203 83.6887 170.078 83.9384 170.078 84.1882C170.078 84.3131 170.078 84.438 170.078 84.5629C170.203 84.8127 170.327 85.0624 170.451 85.1873L170.7 85.4371C170.825 85.562 170.949 85.6869 171.198 85.6869C171.322 85.8118 171.571 85.8118 171.695 85.8118C171.944 85.8118 172.069 85.8118 172.193 85.6869C172.317 85.6869 172.566 85.562 172.691 85.4371C172.815 85.3122 172.815 85.1873 172.939 85.1873C173.064 84.9376 173.188 84.6878 173.188 84.438C173.313 84.3131 173.188 84.1882 173.188 84.0633Z" fill="#353540"/>
<path d="M169.83 78.5683C169.705 78.3185 169.705 78.0687 169.581 77.8189C169.581 77.6941 169.456 77.4443 169.332 77.3194C169.207 77.1945 169.083 77.0696 168.959 76.9447C168.834 76.8198 168.585 76.8198 168.461 76.8198C168.337 76.8198 168.088 76.8198 167.964 76.8198C167.839 76.8198 167.715 76.9447 167.59 76.9447C167.342 77.0696 167.217 77.1945 167.093 77.4443C167.093 77.5692 166.968 77.6941 166.968 77.8189C166.844 78.0687 166.844 78.3185 166.968 78.5683C167.093 78.818 167.093 79.0678 167.217 79.3176C167.217 79.4425 167.341 79.6923 167.466 79.8171C167.59 79.942 167.715 80.0669 167.839 80.1918C167.963 80.3167 168.212 80.3167 168.337 80.3167C168.461 80.3167 168.71 80.3167 168.834 80.3167C168.959 80.3167 169.083 80.1918 169.208 80.1918C169.456 80.0669 169.581 79.9421 169.705 79.6923C169.705 79.5674 169.83 79.4425 169.83 79.3176C169.83 79.0678 169.83 78.818 169.83 78.5683Z" fill="#353540"/>
<path d="M160.998 80.4414C159.256 80.4414 159.132 83.3139 160.998 83.3139C162.739 83.189 162.739 80.4414 160.998 80.4414Z" fill="#353540"/>
<path d="M151.666 90.1828C151.666 90.0579 151.542 89.8082 151.418 89.6833C151.293 89.5584 151.169 89.4335 150.92 89.4335C150.796 89.3086 150.547 89.3086 150.422 89.3086H150.049C149.8 89.4335 149.552 89.5584 149.427 89.6833C149.303 89.8082 149.303 89.933 149.178 89.933C149.054 90.1828 148.93 90.4326 148.93 90.6824V90.9322C148.93 91.1819 148.93 91.3068 149.054 91.4317C149.054 91.5566 149.178 91.8064 149.303 91.9313C149.427 92.0562 149.552 92.181 149.8 92.181C149.925 92.3059 150.174 92.3059 150.298 92.3059C150.422 92.3059 150.547 92.3059 150.671 92.3059C150.92 92.181 151.169 92.0562 151.293 91.9313C151.418 91.8064 151.418 91.6815 151.542 91.6815C151.666 91.4317 151.791 91.1819 151.791 90.9322V90.6824C151.791 90.4326 151.666 90.3077 151.666 90.1828Z" fill="#353540"/>
<path d="M159.131 71.0747C157.389 71.0747 157.265 73.9472 159.131 73.9472C160.997 73.8223 160.997 71.0747 159.131 71.0747Z" fill="#353540"/>
<path d="M133.754 54.3398C132.012 54.3398 131.888 57.2123 133.754 57.2123C135.495 57.0874 135.495 54.3398 133.754 54.3398Z" fill="#353540"/>
<path d="M141.592 51.7172C141.592 51.5923 141.468 51.4674 141.468 51.3425C141.343 51.0927 141.219 50.9678 140.97 50.8429L140.472 50.5932C140.348 50.4683 140.099 50.4683 139.975 50.4683C139.85 50.4683 139.602 50.4683 139.477 50.4683C139.353 50.4683 139.104 50.5932 138.98 50.7181C138.855 50.8429 138.731 50.9678 138.606 51.0927C138.606 51.2176 138.482 51.3425 138.482 51.4674C138.358 51.7172 138.358 51.9669 138.482 52.2167C138.482 52.3416 138.606 52.4665 138.606 52.5914C138.731 52.8412 138.855 52.966 139.104 53.0909C139.228 53.2158 139.477 53.2158 139.602 53.3407C139.726 53.4656 139.975 53.4656 140.099 53.4656C140.224 53.4656 140.472 53.4656 140.597 53.4656C140.721 53.4656 140.97 53.3407 141.094 53.2158C141.219 53.0909 141.343 52.9661 141.468 52.8412C141.468 52.7163 141.592 52.5914 141.592 52.4665C141.592 52.2167 141.592 51.9669 141.592 51.7172Z" fill="#353540"/>
<path d="M138.979 43.5995C138.979 43.4746 138.854 43.3497 138.854 43.2248C138.73 42.975 138.605 42.8501 138.357 42.7253C138.232 42.6004 137.983 42.6004 137.859 42.4755C137.735 42.3506 137.486 42.3506 137.361 42.3506C137.237 42.3506 136.988 42.3506 136.864 42.3506C136.739 42.3506 136.491 42.4755 136.366 42.6004C136.242 42.7253 136.117 42.8501 135.993 42.975C135.993 43.0999 135.869 43.2248 135.869 43.3497C135.744 43.5995 135.744 43.8493 135.869 44.099C135.869 44.2239 135.993 44.3488 135.993 44.4737C136.117 44.7235 136.242 44.8484 136.491 44.9733C136.615 45.0981 136.864 45.0981 136.988 45.223C137.113 45.3479 137.361 45.3479 137.486 45.3479C137.61 45.3479 137.859 45.3479 137.983 45.3479C138.108 45.3479 138.357 45.223 138.481 45.0982C138.605 44.9733 138.73 44.8484 138.854 44.7235C138.854 44.5986 138.979 44.4737 138.979 44.3488C138.979 44.099 138.979 43.8493 138.979 43.5995Z" fill="#353540"/>
<path d="M131.888 45.4727C130.147 45.4727 130.022 48.3451 131.888 48.3451C133.754 48.2202 133.754 45.4727 131.888 45.4727Z" fill="#353540"/>
<path d="M102.653 37.3548C102.28 36.7303 101.409 36.4806 100.787 36.8552C98.4236 38.1041 96.06 39.4779 93.6964 40.7268C93.0744 41.1015 92.8256 41.9757 93.1988 42.6001C93.572 43.2246 94.4428 43.4743 95.0648 43.0997C97.4284 41.8508 99.792 40.477 102.156 39.2281C102.778 38.8535 103.026 37.9792 102.653 37.3548Z" fill="#353540"/>
<path d="M91.5822 46.2217C91.4578 45.8471 91.209 45.5973 90.9602 45.3475C90.587 45.2226 90.2138 45.0977 89.8406 45.2226C89.4674 45.3475 89.2186 45.5973 88.9698 45.8471C88.4722 46.7213 87.9746 47.5955 87.3526 48.4697C87.1038 48.7195 87.1038 49.2191 87.2282 49.5937C87.3526 49.9684 87.6014 50.2182 87.8502 50.468C88.2234 50.5928 88.5966 50.7177 88.9698 50.5929C89.343 50.468 89.5918 50.2182 89.8406 49.9684C90.3382 49.0942 90.8358 48.22 91.4578 47.3457C91.7066 46.9711 91.7066 46.5964 91.5822 46.2217Z" fill="#353540"/>
<path d="M196.825 197.837C195.954 186.971 186.126 180.727 177.543 175.856C175.926 174.982 174.557 177.355 176.174 178.229C183.389 182.35 192.097 187.471 193.839 196.463C195.581 205.205 188.614 213.198 179.906 213.323C178.165 213.323 178.04 216.195 179.906 216.195C189.609 216.07 197.696 207.828 196.825 197.837Z" fill="#353540"/>
<path d="M170.701 217.694C170.452 216.945 169.706 216.57 168.96 216.695C164.73 217.444 160.5 218.069 156.271 218.818C155.524 218.943 155.151 219.817 155.276 220.567C155.524 221.316 156.271 221.691 157.017 221.566C161.247 220.816 165.476 220.192 169.706 219.443C170.452 219.318 170.826 218.319 170.701 217.694Z" fill="#353540"/>
<path d="M163.609 211.2C161.868 211.2 161.743 214.072 163.609 214.072C165.351 214.072 165.351 211.2 163.609 211.2Z" fill="#353540"/>
<path d="M175.302 206.329C173.561 206.329 173.436 209.202 175.302 209.202C177.044 209.077 177.044 206.329 175.302 206.329Z" fill="#353540"/>
<path d="M168.834 200.584C168.834 200.459 168.71 200.335 168.71 200.21C168.585 199.96 168.461 199.835 168.212 199.71C168.088 199.585 167.839 199.585 167.715 199.46C167.59 199.335 167.341 199.335 167.217 199.335C167.093 199.335 166.844 199.335 166.719 199.335C166.595 199.335 166.346 199.46 166.222 199.585C166.097 199.71 165.973 199.835 165.849 199.96C165.849 200.085 165.724 200.21 165.724 200.335C165.6 200.584 165.6 200.834 165.724 201.084C165.724 201.209 165.849 201.334 165.849 201.459C165.973 201.708 166.097 201.833 166.346 201.958C166.471 202.083 166.719 202.083 166.844 202.208C166.968 202.333 167.217 202.333 167.341 202.333C167.466 202.333 167.715 202.333 167.839 202.333C167.963 202.333 168.212 202.208 168.337 202.083C168.461 201.958 168.585 201.833 168.71 201.708C168.71 201.583 168.834 201.459 168.834 201.334C168.834 201.084 168.834 200.834 168.834 200.584Z" fill="#353540"/>
<path d="M160.252 203.707C158.51 203.707 158.386 206.579 160.252 206.579C161.993 206.454 161.993 203.707 160.252 203.707Z" fill="#353540"/>
<path d="M82.6264 174.233C82.502 173.983 82.3776 173.733 82.2532 173.609C82.1288 173.484 81.88 173.234 81.7556 173.109C81.6312 172.984 81.5068 172.859 81.258 172.859C81.1336 172.734 80.8848 172.734 80.7604 172.734C80.5116 172.734 80.3872 172.734 80.2628 172.859C80.1384 172.859 79.8896 172.984 79.7652 173.109C79.6408 173.234 79.6408 173.359 79.5164 173.359C79.392 173.609 79.2676 173.858 79.2676 174.108C79.2676 174.233 79.2676 174.358 79.2676 174.483C79.392 174.733 79.5164 174.982 79.6408 175.107C79.7652 175.232 80.014 175.482 80.1384 175.607C80.2628 175.732 80.3872 175.857 80.636 175.857C80.7604 175.981 81.0092 175.981 81.1336 175.981C81.3824 175.981 81.5068 175.981 81.6312 175.857C81.7556 175.857 82.0044 175.732 82.1288 175.607C82.2532 175.482 82.2532 175.357 82.3776 175.357C82.502 175.107 82.6264 174.857 82.6264 174.608C82.6264 174.483 82.6264 174.358 82.6264 174.233Z" fill="#353540"/>
<path d="M92.453 175.607C92.453 175.482 92.3286 175.232 92.2042 175.107C92.0798 174.982 91.9554 174.982 91.9554 174.857C91.7066 174.732 91.4578 174.607 91.209 174.607H90.8358C90.587 174.732 90.3382 174.857 90.2138 174.982L89.965 175.232C89.8406 175.357 89.7162 175.482 89.7162 175.731C89.5918 175.856 89.5918 176.106 89.5918 176.231C89.5918 176.481 89.5918 176.606 89.7162 176.731C89.7162 176.855 89.8406 177.105 89.965 177.23C90.0894 177.355 90.2138 177.355 90.2138 177.48C90.4626 177.605 90.7114 177.73 90.9602 177.73H91.3334C91.5822 177.605 91.831 177.48 91.9554 177.355L92.2042 177.105C92.3286 176.98 92.453 176.855 92.453 176.606C92.5774 176.481 92.5774 176.231 92.5774 176.106C92.5774 175.981 92.453 175.856 92.453 175.607Z" fill="#353540"/>
<path d="M86.4822 182.351C84.7406 182.351 84.6162 185.223 86.4822 185.223C88.2238 185.098 88.2238 182.351 86.4822 182.351Z" fill="#353540"/>
<path d="M83.4954 191.592C83.371 191.467 83.371 191.342 83.2466 191.342C83.1222 191.218 82.8734 191.093 82.6246 190.968C82.5002 190.968 82.3758 190.968 82.2514 190.968C82.0026 190.968 81.7538 191.093 81.505 191.218C81.3806 191.342 81.1318 191.342 81.0074 191.467C80.883 191.592 80.7586 191.717 80.6342 191.842C80.5098 191.967 80.3854 192.092 80.3854 192.342C80.3854 192.466 80.261 192.716 80.3854 192.841C80.3854 192.966 80.5098 193.216 80.5098 193.341C80.6342 193.466 80.6342 193.59 80.7586 193.59C80.883 193.715 81.1318 193.84 81.3806 193.965H81.7538C82.0026 193.965 82.2514 193.84 82.5002 193.715C82.6246 193.59 82.8734 193.59 82.9978 193.466C83.1222 193.341 83.2466 193.216 83.371 193.091C83.4954 192.966 83.6198 192.841 83.6198 192.591C83.6198 192.466 83.7442 192.217 83.6198 192.092C83.6198 191.967 83.6198 191.717 83.4954 191.592Z" fill="#353540"/>
<path d="M74.2904 184.349C74.166 184.099 74.0416 183.849 73.9172 183.724C73.7928 183.599 73.544 183.35 73.4196 183.225C73.2952 183.1 73.1708 182.975 72.922 182.975C72.7976 182.85 72.5488 182.85 72.4244 182.85C72.1756 182.85 72.0512 182.85 71.9268 182.975C71.8024 182.975 71.5536 183.1 71.4292 183.225C71.3048 183.35 71.3048 183.475 71.1804 183.475C71.056 183.724 70.9316 183.974 70.9316 184.224V184.599C71.056 184.848 71.1804 185.098 71.3048 185.223C71.4292 185.348 71.678 185.598 71.8024 185.723C71.9268 185.847 72.0512 185.972 72.3 185.972C72.4244 186.097 72.6732 186.097 72.7976 186.097C73.0464 186.097 73.1708 186.097 73.2952 185.972C73.4196 185.972 73.6684 185.847 73.7928 185.723C73.9172 185.598 73.9172 185.473 74.0416 185.473C74.166 185.223 74.2904 184.973 74.2904 184.723V184.349Z" fill="#353540"/>
<path d="M93.6977 189.969C93.6977 189.844 93.5733 189.594 93.4489 189.469C93.3245 189.345 93.2001 189.22 92.9513 189.22C92.8269 189.095 92.5781 189.095 92.4537 189.095H92.0805C91.8317 189.22 91.5829 189.345 91.4585 189.469C91.3341 189.594 91.3341 189.719 91.2097 189.719C91.0853 189.969 90.9609 190.219 90.9609 190.469V190.718C90.9609 190.968 90.9609 191.093 91.0853 191.218C91.0853 191.343 91.2097 191.593 91.3341 191.717C91.4585 191.842 91.5829 191.967 91.8317 191.967C91.9561 192.092 92.2049 192.092 92.3293 192.092C92.4537 192.092 92.5781 192.092 92.7025 192.092C92.9513 191.967 93.2001 191.842 93.3245 191.717C93.4489 191.593 93.4489 191.468 93.5733 191.468C93.6977 191.218 93.8221 190.968 93.8221 190.718V190.469C93.8221 190.344 93.8221 190.094 93.6977 189.969Z" fill="#353540"/>
<path d="M72.6737 197.212C72.6737 197.088 72.5493 196.838 72.4249 196.713C72.3005 196.588 72.1761 196.588 72.1761 196.463C71.9273 196.338 71.6785 196.213 71.4297 196.213H71.0565C70.8077 196.338 70.5589 196.463 70.4345 196.588L70.1857 196.838C70.0613 196.963 69.9369 197.088 69.9369 197.337C69.8125 197.462 69.8125 197.712 69.8125 197.837C69.8125 198.087 69.8125 198.212 69.9369 198.336C69.9369 198.461 70.0613 198.711 70.1857 198.836C70.3101 198.961 70.4345 198.961 70.4345 199.086C70.6833 199.211 70.9321 199.336 71.1809 199.336C71.3053 199.336 71.4297 199.336 71.5541 199.336C71.8029 199.211 72.0517 199.086 72.1761 198.961L72.4249 198.711C72.5493 198.586 72.6737 198.461 72.6737 198.212C72.7981 198.087 72.7981 197.837 72.7981 197.712C72.7981 197.587 72.7981 197.462 72.6737 197.212Z" fill="#353540"/>
<path d="M130.022 176.731C125.544 176.606 121.065 176.481 116.462 176.356C114.721 176.356 114.721 179.104 116.462 179.228C120.941 179.353 125.419 179.478 130.022 179.603C131.888 179.603 131.888 176.731 130.022 176.731Z" fill="#353540"/>
<path d="M146.443 175.107C146.194 174.358 145.447 173.983 144.701 174.108C142.213 174.483 139.601 174.982 137.113 175.357C136.366 175.482 135.869 176.356 136.117 177.105C136.366 177.855 137.113 178.229 137.859 178.105C140.347 177.73 142.959 177.23 145.447 176.856C146.194 176.731 146.691 175.732 146.443 175.107Z" fill="#353540"/>
<path d="M138.357 181.976C136.118 181.851 133.879 181.851 131.64 181.726C130.893 181.726 130.147 182.351 130.271 183.1C130.271 183.849 130.893 184.474 131.64 184.474C133.879 184.599 136.118 184.599 138.357 184.723C139.104 184.723 139.85 184.099 139.726 183.35C139.726 182.6 139.104 181.976 138.357 181.976Z" fill="#353540"/>
<path d="M135.744 161.584C137.486 163.082 138.73 164.956 139.228 167.204C139.601 169.327 139.352 171.45 139.103 173.573C138.854 175.946 138.979 178.319 140.472 180.317C141.84 182.315 144.079 183.689 146.318 184.438C154.653 187.436 166.844 183.564 172.691 191.682L181.026 185.562C175.055 177.445 182.394 166.954 182.146 158.087C182.021 155.714 181.524 153.216 180.031 151.218C178.538 149.22 176.423 148.47 174.06 147.846C171.945 147.346 169.83 146.972 167.964 145.973C165.974 144.849 164.481 143.1 163.61 140.977C161.62 135.982 163.112 130.486 162.242 125.366C161.868 122.743 160.749 120.246 158.261 118.997C156.395 117.998 154.156 117.748 152.165 117.623C147.811 117.123 143.83 116.249 140.969 112.627C137.735 108.631 136.74 103.261 134.376 98.7646C131.764 93.7691 126.788 90.0224 121.19 88.8984C115.965 87.8993 110.616 89.0233 106.386 92.0207C102.281 95.2678 99.544 100.014 98.922 105.259C98.3 110.879 100.415 116.749 104.271 120.745C107.879 124.367 112.606 126.99 115.467 131.236C118.08 135.107 117.582 139.104 116.711 143.475C116.338 145.473 115.84 147.721 116.214 149.719C116.711 152.342 118.826 154.215 121.065 155.464C125.917 157.837 131.515 158.212 135.744 161.584Z" fill="#CC8979"/>
<path d="M124.174 142.601C122.681 142.226 123.677 139.978 125.169 140.477C131.763 142.351 138.231 144.349 144.825 146.222C138.48 137.855 132.136 129.487 125.916 121.12C121.437 115.25 117.083 109.38 112.605 103.51C111.734 102.261 113.6 100.888 114.471 102.137C125.169 116.374 135.992 130.611 146.691 144.724C146.193 138.105 145.571 131.61 145.073 124.991C144.949 123.493 147.313 123.243 147.437 124.741C148.059 132.485 148.681 140.353 149.303 148.096C153.284 153.466 157.389 158.711 161.37 164.081L165.351 169.452C165.724 168.453 165.599 167.079 165.599 166.205C165.848 163.457 165.973 160.709 166.221 158.087C166.346 156.588 168.709 156.963 168.585 158.461C168.336 161.584 168.087 164.831 167.839 167.953C167.714 169.077 167.714 170.326 167.092 171.325C166.968 171.45 166.968 171.45 166.843 171.575C169.456 174.947 171.944 178.444 174.556 181.816C175.427 183.065 173.561 184.438 172.69 183.189C170.078 179.693 167.341 176.196 164.729 172.699C164.48 172.699 164.355 172.699 164.107 172.699C162.738 172.699 161.494 172.199 160.25 171.825C158.757 171.45 157.14 171.075 155.647 170.576C152.537 169.826 149.427 168.952 146.442 168.203C144.949 167.828 145.322 165.455 146.815 165.83C152.04 167.204 157.389 168.577 162.614 169.826C162.738 169.826 162.863 169.951 162.987 169.951C157.762 162.957 152.537 156.089 147.188 149.095C139.475 147.097 131.887 144.849 124.174 142.601Z" fill="#DDBFB5"/>
<path d="M239.981 103.596C238.861 106.469 236 107.967 233.388 109.341C230.153 111.09 226.795 112.838 223.436 114.337C217.091 117.334 210.498 120.082 203.905 122.455C203.656 129.823 204.154 137.191 205.398 144.435C207.388 139.939 210.125 135.693 213.484 132.071C217.216 128.075 221.694 124.578 226.67 122.33C228.909 121.206 231.522 120.331 234.01 121.455C236.498 122.579 237.369 125.077 236.747 127.575C235.254 133.195 228.661 136.192 224.058 138.815C218.211 142.062 212.364 145.309 206.517 148.556V148.681C206.517 148.806 206.393 148.806 206.393 148.931C207.637 154.801 209.254 160.546 211.493 166.166C212.115 167.664 209.627 168.289 209.13 166.79C206.891 161.045 205.149 155.175 203.905 149.056C203.656 148.806 203.532 148.556 203.532 148.182C197.685 146.059 192.336 142.687 187.857 138.191C183.752 134.069 180.393 129.199 178.279 123.703C177.283 121.331 176.413 118.458 177.283 115.96C178.279 113.338 181.14 112.463 183.752 113.338C186.738 114.337 188.853 117.584 190.594 119.957C192.709 122.704 194.699 125.577 196.441 128.574C198.556 132.071 200.546 135.693 202.412 139.439C201.79 133.944 201.541 128.324 201.666 122.829C196.814 117.959 192.46 112.838 188.479 107.343C186.613 104.72 184.872 102.098 183.255 99.475C181.886 97.227 180.02 94.4795 180.393 91.607C181.015 86.4866 187.36 86.3617 190.594 88.9844C192.709 90.7328 194.202 93.2306 195.446 95.7284C196.939 98.351 198.183 100.974 199.302 103.721C200.546 106.843 201.541 109.966 202.288 113.213C202.91 107.468 204.029 101.848 205.522 96.2279C205.273 95.8533 198.307 86.9861 195.57 82.3652C194.451 80.367 193.331 78.2439 192.46 75.9959C191.589 73.7479 190.47 71.375 190.221 69.127C189.972 67.2537 190.594 65.0057 192.585 64.2564C194.451 63.507 196.192 64.5061 197.312 65.8799C198.805 67.7532 199.8 70.1261 200.795 72.2493C201.915 74.6221 202.91 76.995 203.781 79.3679C205.149 82.9897 206.269 86.7364 207.139 90.6079C207.761 88.8595 209.503 83.9888 209.503 83.9888C209.627 83.6141 209.752 83.3644 209.876 82.9897C210.125 76.7452 211.742 70.6257 214.852 65.1306C216.221 62.7577 217.713 60.5097 219.579 58.3866C221.197 56.5133 223.187 54.3901 225.426 53.1413C227.417 52.0173 230.029 51.6426 231.771 53.5159C233.512 55.5141 232.89 58.2617 231.895 60.5097C227.665 70.5008 220.326 79.243 211.618 85.6124C210.996 87.2359 210.374 88.8595 209.752 90.6079C212.613 88.1101 215.723 85.8621 219.206 84.1137C223.56 81.8657 228.287 80.2421 233.139 79.6177C235.254 79.3679 237.617 79.7426 238.861 81.7408C239.857 83.6141 238.861 85.6124 237.369 86.8612C235.378 88.4848 232.766 89.359 230.527 90.3581C228.039 91.4821 225.426 92.3564 222.814 93.2306C217.962 94.7293 212.986 95.7284 208.01 96.3528C207.637 97.7266 207.264 99.2253 206.891 100.599C205.647 105.844 204.9 111.09 204.403 116.335C206.766 111.839 209.876 107.843 213.857 104.471C218.211 100.849 223.311 97.9764 228.785 96.4777C231.646 95.7284 234.881 94.979 237.742 96.4777C239.981 98.1012 240.976 100.974 239.981 103.596Z" fill="#81B8AD"/>
<path d="M307.281 141.562C307.281 147.807 271.951 152.802 228.287 152.802C184.623 152.802 149.293 147.807 149.293 141.562C149.293 135.318 184.623 130.322 228.287 130.322C271.827 130.322 307.281 135.318 307.281 141.562Z" fill="#CDA36F"/>
<path d="M260.382 171.661C259.511 172.16 258.267 172.41 257.023 172.285C254.909 172.16 252.296 171.411 250.057 170.412H249.933C247.818 169.288 245.579 167.789 244.086 166.29C243.215 165.291 242.593 164.292 242.344 163.293C241.598 158.048 270.832 90.8574 274.688 85.737C275.932 83.9885 278.793 83.9885 281.903 84.4881C283.272 84.7379 284.765 85.2374 286.257 85.6121C287.999 86.2365 289.616 86.9859 291.233 87.8601C292.477 88.6094 293.721 89.4836 294.841 90.3579C297.329 92.3561 299.071 94.6041 298.573 96.7272C297.205 103.097 264.861 168.788 260.382 171.661Z" fill="#A37367"/>
<path d="M274.813 97.1019C275.435 95.3535 272.947 94.2295 272.2 95.853C264.487 115.71 256.775 135.693 249.062 155.55C248.44 157.298 250.928 158.422 251.674 156.799C259.263 136.941 266.975 116.959 274.813 97.1019Z" fill="#78453C"/>
<path d="M261.254 145.808C261.503 145.059 261.254 144.31 260.632 143.935C260.01 143.685 259.015 143.935 258.766 144.56C257.273 148.681 255.78 152.802 254.412 156.924C254.163 157.673 254.412 158.422 255.034 158.797C255.656 159.047 256.651 158.797 256.9 158.172C258.268 154.176 259.761 150.055 261.254 145.808Z" fill="#78453C"/>
<path d="M295.96 98.2259C296.085 97.6014 295.587 96.6023 294.841 96.6023C287.626 96.3525 280.784 92.9805 276.181 87.3605C275.061 85.9868 272.698 87.6103 273.817 88.9841C278.918 95.1036 286.382 98.9752 294.343 99.3499C295.09 99.3499 295.836 98.9752 295.96 98.2259Z" fill="#78453C"/>
<path d="M322.209 210.626C320.841 232.606 303.922 235.354 303.922 235.354C303.922 235.354 310.142 235.354 310.142 246.594C310.142 257.834 228.163 253.462 228.163 253.462C228.163 253.462 146.183 257.958 146.183 246.594C146.183 235.354 152.403 235.354 152.403 235.354C152.403 235.354 135.485 232.731 134.116 210.626C132.748 188.645 160.987 181.651 183.752 183.15C206.517 184.649 228.163 195.264 228.163 195.264C228.163 195.264 249.808 184.649 272.573 183.15C295.339 181.526 323.577 188.52 322.209 210.626Z" fill="#DDA292"/>
<path d="M307.281 141.562C307.281 141.562 307.53 220.617 228.287 220.617C149.169 220.617 149.293 141.562 149.293 141.562C149.293 147.807 184.623 152.802 228.287 152.802C271.827 152.678 307.281 147.682 307.281 141.562Z" fill="#E0BC8D"/>
<path d="M272.2 226.237C248.688 217.12 222.316 215.871 198.058 222.865C196.316 223.364 197.062 226.112 198.804 225.612C222.689 218.868 248.315 220.117 271.454 228.984C273.195 229.609 273.942 226.861 272.2 226.237Z" fill="#CC8979"/>
<path d="M179.398 223.864C173.178 213.374 162.853 205.63 151.035 202.508C149.293 202.009 148.547 204.756 150.288 205.256C161.36 208.253 171.063 215.497 176.91 225.363C177.905 226.861 180.393 225.488 179.398 223.864Z" fill="#CC8979"/>
<path d="M173.303 209.377C169.944 203.882 165.59 199.136 160.365 195.39C159.743 194.89 158.748 195.265 158.375 195.889C158.001 196.639 158.25 197.388 158.872 197.887C163.599 201.384 167.705 205.88 170.69 210.876C171.685 212.375 174.173 211.001 173.303 209.377Z" fill="#CC8979"/>
<path d="M302.928 199.136C291.483 201.759 281.282 208.628 274.191 218.119C273.072 219.618 275.56 220.992 276.679 219.493C283.272 210.501 292.976 204.257 303.674 201.759C305.416 201.509 304.669 198.761 302.928 199.136Z" fill="#CC8979"/>
<path d="M300.936 211.625C294.84 212.125 288.869 213.748 283.395 216.621C281.778 217.495 283.271 219.868 284.764 219.119C289.74 216.496 295.213 214.872 300.811 214.498C302.802 214.248 302.802 211.5 300.936 211.625Z" fill="#CC8979"/>
<path d="M294.716 242.722C292.85 242.722 292.85 245.595 294.716 245.595C296.458 245.595 296.458 242.722 294.716 242.722Z" fill="#CC8979"/>
<path d="M296.831 235.104C294.965 235.104 294.965 237.976 296.831 237.976C298.573 237.976 298.573 235.104 296.831 235.104Z" fill="#CC8979"/>
<path d="M288.745 237.727C286.879 237.727 286.879 240.599 288.745 240.599C290.487 240.599 290.487 237.727 288.745 237.727Z" fill="#CC8979"/>
<path d="M285.759 244.346C283.893 244.346 283.893 247.218 285.759 247.218C287.625 247.218 287.625 244.346 285.759 244.346Z" fill="#CC8979"/>
<path d="M309.894 224.863C308.028 224.863 308.028 227.736 309.894 227.736C311.635 227.736 311.635 224.863 309.894 224.863Z" fill="#CC8979"/>
<path d="M316.362 215.247C314.496 215.247 314.496 218.12 316.362 218.12C318.228 217.995 318.228 215.247 316.362 215.247Z" fill="#CC8979"/>
<path d="M310.392 214.748C308.526 214.748 308.526 217.62 310.392 217.62C312.133 217.495 312.133 214.748 310.392 214.748Z" fill="#CC8979"/>
<path d="M159.12 239.35C158.995 239.101 158.871 238.851 158.747 238.726C158.622 238.601 158.622 238.601 158.498 238.476C158.373 238.351 158.249 238.226 158 238.226C157.876 238.102 157.627 238.102 157.503 238.102C157.254 238.102 157.129 238.102 157.005 238.226C156.881 238.226 156.632 238.351 156.507 238.476C156.383 238.601 156.383 238.726 156.259 238.726C156.134 238.976 156.01 239.226 156.01 239.475C156.01 239.6 156.01 239.725 156.01 239.85C156.134 240.1 156.259 240.35 156.383 240.474C156.507 240.599 156.507 240.599 156.632 240.724C156.756 240.849 156.881 240.974 157.129 240.974C157.254 241.099 157.503 241.099 157.627 241.099C157.876 241.099 158 241.099 158.125 240.974C158.249 240.974 158.498 240.849 158.622 240.724C158.747 240.599 158.747 240.474 158.871 240.474C158.995 240.225 159.12 239.975 159.12 239.725V239.35Z" fill="#CC8979"/>
<path d="M163.474 230.109C161.608 230.109 161.608 232.981 163.474 232.981C165.34 232.981 165.34 230.109 163.474 230.109Z" fill="#CC8979"/>
<path d="M166.958 240.599C165.092 240.599 165.092 243.472 166.958 243.472C168.7 243.472 168.7 240.599 166.958 240.599Z" fill="#CC8979"/>
<path d="M183.13 242.722C181.264 242.722 181.264 245.595 183.13 245.595C184.872 245.595 184.996 242.722 183.13 242.722Z" fill="#CC8979"/>
<path d="M178.155 230.733C178.155 230.608 178.03 230.358 177.906 230.234C177.782 230.109 177.657 229.984 177.408 229.984C177.284 229.859 177.035 229.859 176.911 229.859H176.538C176.289 229.984 176.04 230.109 175.916 230.234C175.791 230.358 175.791 230.483 175.667 230.483C175.542 230.733 175.418 230.983 175.418 231.233V231.482C175.418 231.732 175.418 231.857 175.542 231.982C175.542 232.107 175.667 232.357 175.791 232.482C175.916 232.606 176.04 232.731 176.289 232.731C176.413 232.856 176.662 232.856 176.786 232.856C176.911 232.856 177.035 232.856 177.16 232.856C177.408 232.731 177.657 232.606 177.782 232.482C177.906 232.357 177.906 232.232 178.03 232.232C178.155 231.982 178.279 231.732 178.279 231.482V231.233C178.279 231.108 178.279 230.983 178.155 230.733Z" fill="#CC8979"/>
<path d="M152.278 220.492C152.278 220.368 152.153 220.118 152.029 219.993C151.905 219.868 151.78 219.743 151.531 219.743C151.407 219.618 151.158 219.618 151.034 219.618C150.909 219.618 150.785 219.618 150.661 219.618C150.412 219.743 150.163 219.868 150.039 219.993C149.914 220.118 149.914 220.243 149.79 220.243C149.665 220.492 149.541 220.742 149.541 220.992V221.242C149.541 221.492 149.541 221.616 149.665 221.741C149.665 221.866 149.79 222.116 149.914 222.241C150.039 222.366 150.163 222.491 150.412 222.491C150.536 222.616 150.785 222.616 150.909 222.616H151.283C151.531 222.491 151.78 222.366 151.905 222.241C152.029 222.116 152.029 221.991 152.153 221.991C152.278 221.741 152.402 221.492 152.402 221.242V220.992C152.402 220.867 152.402 220.742 152.278 220.492Z" fill="#CC8979"/>
<path d="M308.898 146.558C288.87 153.926 267.971 158.547 246.823 160.296C225.675 162.044 204.154 160.795 183.254 156.799C171.561 154.551 159.992 151.304 148.671 147.307C146.93 146.683 146.183 149.43 147.925 150.055C168.078 157.298 189.226 161.794 210.622 163.293C232.019 164.792 253.54 163.543 274.564 159.297C286.506 156.924 298.2 153.552 309.645 149.306C311.386 148.681 310.64 145.934 308.898 146.558Z" fill="#CDA36F"/>
<path d="M183.379 200.76C175.293 195.015 169.073 186.897 165.59 177.53C164.968 175.782 162.231 176.531 162.853 178.28C166.585 188.271 173.178 197.013 181.886 203.133C183.503 204.257 184.872 201.759 183.379 200.76Z" fill="#CDA36F"/>
<path d="M200.545 211.75C195.943 210.376 191.589 208.253 187.732 205.505C187.11 205.006 186.115 205.381 185.742 206.005C185.369 206.754 185.617 207.504 186.239 208.003C190.345 210.876 194.947 213.124 199.675 214.497C201.541 214.997 202.287 212.249 200.545 211.75Z" fill="#CDA36F"/>
<path d="M191.962 200.51C190.096 200.51 190.096 203.382 191.962 203.382C193.828 203.382 193.828 200.51 191.962 200.51Z" fill="#CDA36F"/>
<path d="M187.484 193.017C187.36 192.892 187.36 192.767 187.235 192.642C187.111 192.517 186.987 192.392 186.862 192.267C186.738 192.142 186.613 192.017 186.365 192.017C186.116 192.017 185.991 191.893 185.743 192.017C185.494 192.017 185.369 192.142 185.245 192.142C185.121 192.267 184.996 192.267 184.996 192.392C184.872 192.517 184.747 192.767 184.623 193.017C184.623 193.141 184.623 193.266 184.623 193.391C184.623 193.641 184.747 193.891 184.872 194.141C184.996 194.265 184.996 194.39 185.121 194.515C185.245 194.64 185.369 194.765 185.494 194.89C185.618 195.015 185.743 195.14 185.991 195.14C186.24 195.14 186.365 195.265 186.613 195.14C186.862 195.14 186.987 195.015 187.111 195.015C187.235 194.89 187.36 194.89 187.36 194.765C187.484 194.64 187.609 194.39 187.733 194.141C187.733 194.016 187.733 193.891 187.733 193.766C187.733 193.391 187.609 193.141 187.484 193.017Z" fill="#CDA36F"/>
<path d="M189.474 188.146C187.608 188.146 187.608 191.018 189.474 191.018C191.215 191.018 191.215 188.146 189.474 188.146Z" fill="#CDA36F"/>
<path d="M194.698 192.642C192.832 192.642 192.832 195.514 194.698 195.514C196.564 195.514 196.564 192.642 194.698 192.642Z" fill="#CDA36F"/>
<path d="M299.693 158.547C297.951 168.414 293.349 177.53 286.382 184.649C285.138 185.898 287.129 188.021 288.373 186.647C295.588 179.154 300.564 169.538 302.43 159.297C302.803 157.548 300.066 156.799 299.693 158.547Z" fill="#CDA36F"/>
<path d="M283.521 189.645C281.655 189.645 281.655 192.517 283.521 192.517C285.387 192.517 285.387 189.645 283.521 189.645Z" fill="#CDA36F"/>
<path d="M279.913 197.262C279.913 197.137 279.788 196.888 279.664 196.763C279.539 196.638 279.415 196.513 279.166 196.513C279.042 196.388 278.793 196.388 278.669 196.388C278.544 196.388 278.42 196.388 278.295 196.388C278.047 196.513 277.798 196.638 277.673 196.763C277.549 196.888 277.549 197.013 277.425 197.013C277.3 197.262 277.176 197.512 277.176 197.762V198.012C277.176 198.262 277.176 198.386 277.3 198.511C277.3 198.636 277.425 198.886 277.549 199.011C277.673 199.136 277.798 199.261 278.047 199.261C278.171 199.386 278.42 199.386 278.544 199.386C278.669 199.386 278.793 199.386 278.917 199.386C279.166 199.261 279.415 199.136 279.539 199.011C279.664 198.886 279.664 198.761 279.788 198.761C279.913 198.511 280.037 198.262 280.037 198.012V197.762C280.037 197.637 280.037 197.387 279.913 197.262Z" fill="#CDA36F"/>
<path d="M277.3 189.52C275.434 189.52 275.434 192.392 277.3 192.392C279.041 192.392 279.041 189.52 277.3 189.52Z" fill="#CDA36F"/>
<path d="M270.956 197.138C269.09 197.138 269.09 200.01 270.956 200.01C272.822 200.01 272.822 197.138 270.956 197.138Z" fill="#CDA36F"/>
<path d="M271.204 203.132C269.338 203.132 269.338 206.005 271.204 206.005C272.946 205.88 272.946 203.132 271.204 203.132Z" fill="#CDA36F"/>
</svg>
