<svg width="274" height="314" viewBox="0 0 274 314" fill="none" xmlns="http://www.w3.org/2000/svg">
<path d="M37.2949 271.814C37.039 271.046 34.2241 272.837 36.5272 274.885C38.8303 276.932 43.1806 277.188 45.4837 276.932C48.5544 276.676 49.578 275.396 49.578 275.396C49.578 275.396 46.5072 275.396 42.4129 275.396C38.3185 275.396 38.8303 274.885 37.2949 271.814Z" fill="#FCD7CC"/>
<path d="M19.3811 266.696C19.1252 265.928 16.0544 268.231 18.1016 270.278C20.4047 272.326 24.755 272.581 27.0581 272.326C30.1289 272.07 31.1525 270.79 31.1525 270.79C31.1525 270.79 30.1289 270.534 26.0345 270.534C21.6842 270.534 20.6606 269.767 19.3811 266.696Z" fill="#FCD7CC"/>
<path d="M2.23638 253.133C1.72458 252.365 -1.6021 254.924 0.956884 257.228C3.25997 259.531 8.12205 259.787 10.9369 259.531C14.2636 259.019 15.5431 257.995 15.5431 257.995C15.5431 257.995 14.5195 257.739 9.91334 257.739C5.05126 257.483 3.77177 256.46 2.23638 253.133Z" fill="#FCD7CC"/>
<path d="M8.88996 228.567C8.63406 227.543 4.79558 229.335 6.58687 232.15C8.37816 234.964 12.9843 236.5 15.5433 236.756C18.87 237.268 20.4054 236.244 20.4054 236.244C20.4054 236.244 19.3818 235.732 15.0315 234.453C10.4254 233.429 9.65766 232.15 8.88996 228.567Z" fill="#FCD7CC"/>
<path d="M108.177 253.389C112.272 249.551 114.575 243.665 121.996 237.523L122.508 234.197C121.74 234.197 63.651 268.999 37.2935 273.605C37.8053 274.373 38.8288 275.396 39.8524 275.652C44.7145 277.444 53.4151 276.42 62.3715 272.837C65.6982 271.302 80.2844 266.184 86.1701 262.601C93.8471 257.995 101.268 255.692 108.177 253.389Z" fill="#F7A093"/>
<path d="M105.108 254.413C118.926 249.295 130.697 247.248 140.166 242.897C147.331 239.827 153.472 236.756 163.708 224.984C167.035 221.146 195.184 209.63 200.814 207.071C204.908 205.792 207.723 201.186 208.235 194.277C199.534 197.603 190.834 200.93 182.389 204.768C173.177 208.863 161.917 212.701 155.775 221.402C152.705 226.008 118.158 238.035 113.808 242.13C109.458 246.224 96.6628 257.484 105.108 254.413Z" fill="#F7A093"/>
<path d="M59.8131 260.043C62.628 257.484 72.0962 252.621 79.0055 250.83C82.3322 248.015 85.9148 242.13 89.4974 241.362C86.1707 239.059 85.403 238.291 84.6353 238.291C83.3558 240.082 82.3322 241.874 81.8204 242.386C80.7968 243.153 72.3521 247.248 64.4193 251.854C60.8367 256.716 51.8803 261.578 44.7151 263.113C39.5971 266.184 38.3176 266.952 32.6879 269.511C29.6171 270.79 24.4991 271.814 20.9165 271.046C24.2432 272.837 28.0817 273.093 34.9909 271.558C39.0853 270.534 44.971 269.767 46.2505 268.999C49.8331 264.393 54.6951 261.322 59.8131 260.043Z" fill="#F7A093"/>
<path d="M75.4228 231.126C75.4228 231.126 72.6079 229.079 71.3284 228.055C69.5371 229.591 70.3048 229.591 70.3048 231.638C64.9309 234.453 58.0216 238.803 53.6714 242.13C51.1124 243.409 29.6169 246.224 26.2902 250.83C23.7312 250.83 17.3338 252.877 11.4481 253.901C6.58601 254.669 6.0742 258.251 3.00342 256.716C4.02701 257.484 7.0978 258.763 10.6804 259.019C15.5425 259.275 24.4989 257.484 27.5697 256.46C36.5262 253.645 40.1087 254.413 41.1323 254.157C45.4826 252.621 45.7385 250.318 54.695 245.968C57.7658 242.13 71.0725 233.429 75.4228 231.126Z" fill="#F7A093"/>
<path d="M66.4669 221.402C64.4197 219.355 64.4197 219.355 62.8843 218.587C61.0931 219.611 60.5813 221.914 59.8136 222.169C53.9279 224.728 44.7155 228.823 38.8299 231.382C36.2709 232.405 34.2237 232.917 31.6647 234.197C27.5703 235.988 22.1964 236.244 18.1021 235.22C12.9841 233.941 10.1692 233.941 7.35433 229.591C6.84253 231.382 7.35433 232.15 8.63382 233.173C9.65741 233.941 14.0077 237.268 20.4052 237.268C23.22 237.268 26.8026 238.035 30.3852 237.523C34.4796 235.732 39.3417 233.685 44.4596 232.405C50.3453 228.567 60.8372 223.961 66.4669 221.402Z" fill="#F7A093"/>
<path d="M191.09 159.73C186.483 156.915 182.133 157.171 179.062 159.218C177.271 160.242 153.984 170.734 144.004 175.084C137.095 178.155 135.559 177.643 132.745 178.155C118.67 180.97 113.296 179.434 99.9896 185.32C86.4269 191.462 79.0059 198.627 66.2109 206.048C61.3489 208.863 60.3253 210.654 56.7427 213.981C51.6247 214.748 47.5303 216.796 41.1329 220.122C38.0621 220.122 29.1056 222.425 26.5466 224.728C21.1728 225.24 14.5194 223.193 10.1691 226.264C8.88962 227.287 8.12192 228.311 7.86602 229.591C10.6809 233.685 13.4958 233.941 18.6138 235.22C22.7082 236.244 28.082 236.244 32.1764 234.197C34.4795 233.173 36.7826 232.661 39.3416 231.382C45.2272 228.823 54.1837 224.473 60.3253 222.17C60.8371 221.914 61.6048 219.611 63.3961 218.587C64.9314 219.355 64.9314 219.355 66.9786 221.402C61.6047 223.705 50.857 228.311 45.739 232.405C40.3652 233.685 35.759 235.732 31.6646 237.523H31.9205C29.1056 239.059 27.0584 240.85 25.0112 242.13C24.7553 242.386 11.9604 244.177 7.86602 246.736C1.98035 250.318 0.700856 253.645 4.02754 256.46C4.02754 256.46 4.02754 256.46 4.28343 256.46C7.35422 257.739 10.1691 256.46 14.7753 255.436C20.661 254.413 26.2907 251.598 28.8497 251.854C34.4795 247.503 52.1365 243.153 54.6955 241.618C59.3017 238.291 65.955 233.941 71.3289 231.126C71.3289 228.823 70.8171 228.823 72.3525 227.543C73.632 228.567 76.4469 230.614 76.4469 230.614C72.0966 233.173 58.7899 241.874 55.975 245.712C45.2272 250.574 39.0857 253.645 32.9441 257.739C32.9441 257.739 24.2435 260.043 21.4287 263.113C19.3815 265.16 18.6138 267.464 22.1963 270.278C25.523 271.302 30.8969 270.278 33.9677 268.743C39.3416 266.184 40.6211 265.416 45.9949 262.346C53.1601 261.066 62.1165 255.948 65.6991 251.086C73.632 246.48 82.0767 242.13 83.1002 241.618C83.3561 241.106 84.6357 239.315 85.9151 237.523C86.6828 237.523 87.4505 238.547 90.7772 240.594C87.4505 241.618 76.9587 248.271 73.632 251.086C66.7227 252.877 60.0694 257.739 57.2545 260.298C52.1365 261.578 42.9242 263.881 39.3416 267.975C38.318 269.255 37.5503 271.046 38.5739 272.582C39.3416 273.861 41.6447 274.117 44.4595 273.605C49.8334 272.582 55.2073 271.046 62.1166 266.696C69.5376 263.369 75.4233 262.09 82.8443 256.46C91.5449 252.621 101.013 248.527 108.178 244.177C117.647 238.547 126.603 236.5 133 234.197C139.398 231.894 149.634 230.358 156.799 220.122C162.685 211.678 174.2 207.583 183.413 203.489C191.857 199.65 200.558 196.324 209.258 192.997C209.258 192.741 209.258 192.485 209.258 192.229C209.258 191.973 209.258 191.462 209.258 191.206C208.235 179.946 200.558 165.36 191.09 159.73Z" fill="#FBC8B6"/>
<path d="M133.001 204.513C124.556 207.583 120.973 212.957 116.623 218.843C112.785 223.705 108.178 229.079 103.316 233.429C104.852 233.173 107.411 232.405 114.064 227.032C117.903 223.705 120.973 216.796 125.324 212.701C129.418 208.863 133.001 207.072 134.792 205.792C135.816 205.024 136.327 203.233 133.001 204.513Z" fill="#F7A093"/>
<path d="M129.418 195.556C122.253 199.139 115.344 202.977 107.667 205.28C99.9898 207.583 92.0569 208.095 84.1241 209.119C83.8682 209.119 83.8682 209.374 84.1241 209.374C99.2221 211.422 118.159 205.536 129.93 196.324C130.186 195.812 129.93 195.3 129.418 195.556Z" fill="#F7A093"/>
<path d="M140.934 178.667C140.678 178.667 140.422 179.179 140.678 179.179C144.772 181.993 148.867 184.041 152.193 187.623C155.52 191.206 157.311 195.556 159.614 199.65C159.87 200.162 160.894 199.906 160.638 199.139C159.614 190.694 149.378 180.458 140.934 178.667Z" fill="#F7A093"/>
<path d="M130.186 178.923C130.186 178.923 116.367 178.923 106.643 177.643C96.663 176.364 80.2854 181.226 69.5377 182.249C55.9751 183.785 49.0658 184.296 47.2745 189.414C45.2273 194.532 51.3689 198.883 60.0695 197.347C68.5141 195.812 71.0731 194.277 77.9824 194.277C84.6357 194.277 96.9189 195.3 98.9661 195.556C101.013 195.812 130.186 178.923 130.186 178.923Z" fill="#FBC8B6"/>
<path d="M102.292 308.407C102.037 307.64 99.2217 309.431 101.525 311.478C103.828 313.525 108.178 313.781 110.481 313.525C113.552 313.27 114.576 311.99 114.576 311.99C114.576 311.99 111.505 311.99 107.41 311.99C103.06 311.99 103.572 311.478 102.292 308.407Z" fill="#FCD7CC"/>
<path d="M84.1228 303.034C83.8669 302.266 80.7961 304.569 82.8433 306.616C85.1464 308.663 89.4967 308.919 91.7998 308.663C94.8706 308.408 95.8942 307.128 95.8942 307.128C95.8942 307.128 94.8706 306.872 90.7762 306.872C86.6818 306.872 85.4023 306.104 84.1228 303.034Z" fill="#FCD7CC"/>
<path d="M66.9781 289.727C66.4663 288.959 63.1396 291.518 65.6986 293.821C68.0017 296.124 72.8638 296.38 75.6787 296.124C79.0053 295.613 80.2848 294.589 80.2848 294.589C80.2848 294.589 79.2612 294.333 74.655 294.333C69.793 294.077 68.5135 293.054 66.9781 289.727Z" fill="#FCD7CC"/>
<path d="M73.6322 265.161C73.3763 264.137 69.5378 265.928 71.3291 268.743C73.1203 271.558 77.7265 273.093 80.2855 273.349C83.6122 273.861 85.1476 272.838 85.1476 272.838C85.1476 272.838 84.124 272.326 79.7737 271.046C75.1675 270.023 74.3999 268.743 73.6322 265.161Z" fill="#FCD7CC"/>
<path d="M172.92 289.727C177.014 285.888 179.318 280.003 186.739 273.861L187.25 270.534C186.483 270.534 128.394 305.337 102.036 309.943C102.548 310.711 103.572 311.734 104.595 311.99C109.457 313.781 118.158 312.758 127.114 309.175C130.441 307.64 145.027 302.522 150.913 298.939C158.59 294.333 166.011 292.03 172.92 289.727Z" fill="#F7A093"/>
<path d="M184.947 302.266C192.624 297.916 203.115 294.077 209.001 286.912C212.84 282.306 218.214 275.653 221.028 270.279C224.099 265.161 224.611 263.625 228.449 261.322C232.8 258.507 259.925 245.968 265.555 243.409C269.649 242.13 272.464 237.524 272.976 230.614C264.275 233.941 255.575 237.268 247.13 241.106C237.918 245.201 226.658 249.039 220.517 257.74C217.446 262.346 216.422 267.72 214.375 272.838C212.072 278.467 207.21 283.841 202.86 287.936C195.439 294.845 179.061 301.754 175.99 307.128C177.014 306.616 177.782 306.104 178.805 305.593C180.852 304.569 182.9 303.29 184.947 302.266Z" fill="#F7A093"/>
<path d="M124.555 296.636C127.37 294.077 136.838 289.215 143.748 287.424C147.074 284.609 150.657 278.723 154.24 277.956C150.913 275.653 150.145 274.885 149.377 274.885C148.098 276.676 147.074 278.467 146.563 278.979C145.539 279.747 137.094 283.841 129.161 288.447C125.579 293.31 116.622 298.172 109.457 299.707C104.339 302.778 103.06 303.545 97.43 306.104C94.3593 307.384 89.2413 308.408 85.6587 307.64C88.9854 309.431 92.8239 309.687 99.7331 308.152C103.827 307.128 109.713 306.36 110.993 305.593C114.575 300.986 119.437 297.916 124.555 296.636Z" fill="#F7A093"/>
<path d="M140.165 267.464C140.165 267.464 137.35 265.416 136.071 264.393C134.279 265.928 135.047 265.928 135.047 267.975C129.673 270.79 122.764 275.141 118.414 278.467C115.855 279.747 94.3591 282.562 91.0324 287.168C88.4734 287.168 82.0759 289.215 76.1903 290.239C71.3282 291.006 70.8164 294.589 67.7456 293.053C68.7692 293.821 71.84 295.101 75.4226 295.357C80.2846 295.612 89.2411 293.821 92.3119 292.798C101.268 289.983 104.851 290.75 105.874 290.494C110.225 288.959 110.481 286.656 119.437 282.306C122.764 278.723 136.071 270.023 140.165 267.464Z" fill="#F7A093"/>
<path d="M131.209 257.995C129.162 255.948 129.162 255.948 127.627 255.181C125.835 256.204 125.323 258.507 124.556 258.763C118.67 261.322 109.458 265.416 103.572 267.975C101.013 268.999 98.9659 269.511 96.4069 270.79C92.3125 272.582 86.9386 272.838 82.8442 271.814C77.7263 270.534 74.9114 270.534 72.0965 266.184C71.5847 267.975 72.0965 268.743 73.376 269.767C74.3996 270.534 78.7499 273.861 85.1474 273.861C87.9622 273.861 91.5448 274.629 95.1274 274.117C99.2218 272.326 104.084 270.279 109.202 268.999C115.087 265.161 125.579 260.298 131.209 257.995Z" fill="#F7A093"/>
<path d="M255.831 196.324C251.225 193.509 246.874 193.765 243.803 195.812C242.012 196.836 218.725 207.328 208.745 211.678C201.836 214.749 200.301 214.237 197.486 214.749C183.411 217.563 178.037 216.028 164.731 221.914C151.168 228.055 143.747 235.22 130.952 242.642C126.09 245.456 125.066 247.248 121.484 250.574C116.366 251.342 112.272 253.389 105.874 256.716C102.803 256.716 93.8468 259.019 91.2878 261.322C85.914 261.834 79.2606 259.787 74.9103 262.858C73.6308 263.881 72.8631 264.905 72.6072 266.184C75.4221 270.279 78.237 270.534 83.355 271.814C87.4494 272.838 92.8232 272.838 96.9176 270.79C99.2207 269.767 101.524 269.255 104.083 267.976C109.968 265.417 118.925 261.066 125.066 258.763C125.578 258.507 126.346 256.204 128.137 255.181C129.673 255.948 129.673 255.948 131.72 257.995C126.346 260.299 115.598 264.905 110.48 268.999C105.106 270.279 100.5 272.326 96.4058 274.117H96.6617C93.8468 275.652 91.7997 277.444 89.7525 278.723C89.4966 278.979 76.7016 280.77 72.6072 283.329C66.7215 286.912 65.4421 290.239 68.7688 293.054C68.7688 293.054 68.7688 293.054 69.0247 293.054C72.0954 294.333 74.9103 293.054 79.5165 292.03C85.4022 291.006 91.032 288.192 93.5909 288.447C99.2207 284.097 116.878 279.747 119.437 278.211C124.043 274.885 130.696 270.534 136.07 267.72C136.07 265.417 135.558 265.417 137.094 264.137C138.373 265.161 141.188 267.208 141.188 267.208C136.838 269.767 123.531 278.467 120.716 282.306C109.968 287.168 103.827 290.239 97.6853 294.333C97.6853 294.333 88.9847 296.636 86.1699 299.707C84.1227 301.754 83.355 304.057 86.9376 306.872C90.2642 307.896 95.6381 306.872 98.7089 305.337C104.083 302.778 105.362 302.01 110.736 298.939C117.901 297.66 126.858 292.542 130.44 287.68C138.373 283.074 146.818 278.723 147.841 278.211C148.097 277.7 149.377 275.908 150.656 274.117C151.424 274.117 152.192 275.141 155.518 277.188C152.192 278.211 141.7 284.865 138.373 287.68C131.464 289.471 124.811 294.333 121.996 296.892C116.878 298.172 107.665 300.475 104.083 304.569C103.059 305.848 102.291 307.64 103.315 309.175C104.083 310.455 106.386 310.711 109.201 310.199C114.575 309.175 119.949 307.64 126.858 303.289C134.279 299.963 140.164 298.683 147.586 293.054C156.286 289.215 165.754 285.121 172.92 280.77C182.388 275.141 188.018 269.511 188.273 269.511L187.762 272.838C180.341 278.723 178.038 284.865 173.943 288.703C166.778 291.006 160.892 298.172 159.613 305.337C158.845 308.919 161.148 312.502 162.684 312.758C165.754 313.27 169.593 310.199 171.896 308.919C173.687 307.896 175.223 307.128 177.014 306.104C181.62 303.545 196.718 293.821 203.883 286.912C208.234 282.818 213.096 277.444 215.399 271.814C217.446 266.696 218.214 261.322 221.54 256.716C227.426 248.271 238.941 244.177 248.154 240.083C256.598 236.244 265.299 232.917 274 229.591C274 229.335 274 229.079 274 228.823C274 228.567 274 228.055 274 227.799C272.976 216.284 265.299 201.698 255.831 196.324Z" fill="#FBC8B6"/>
<path d="M160.125 312.758C160.125 312.758 162.684 313.781 166.267 310.967C169.849 308.152 174.711 305.081 175.991 304.313C176.247 304.057 175.991 307.128 175.991 307.128C175.991 307.128 167.546 313.014 163.963 313.781C160.381 314.549 160.125 312.758 160.125 312.758Z" fill="#FCD7CC"/>
<path d="M197.743 240.85C189.298 243.921 185.716 249.295 181.365 255.181C177.527 260.043 172.921 265.417 168.059 269.767C169.594 269.511 172.153 268.743 178.806 263.369C182.645 260.043 185.716 253.133 190.066 249.039C194.16 245.201 197.743 243.409 199.534 242.13C200.558 241.618 201.07 239.827 197.743 240.85Z" fill="#F7A093"/>
<path d="M194.159 232.15C186.994 235.732 180.085 239.571 172.408 241.874C164.731 244.177 156.798 244.689 148.865 245.712C148.609 245.712 148.609 245.968 148.865 245.968C163.963 248.015 182.9 242.13 194.671 232.917C195.183 232.406 194.671 231.894 194.159 232.15Z" fill="#F7A093"/>
<path d="M205.676 215.26C205.42 215.26 205.164 215.772 205.42 215.772C209.514 218.587 213.609 220.634 216.935 224.217C220.262 227.799 222.053 232.15 224.356 236.244C224.612 236.756 225.636 236.5 225.38 235.732C224.356 227.288 214.376 217.052 205.676 215.26Z" fill="#F7A093"/>
<path d="M140.933 152.053C134.536 147.191 128.138 145.656 120.206 148.471C114.32 147.447 108.434 150.774 106.387 153.077C101.525 150.262 96.407 151.541 93.3362 156.404C85.6593 156.404 81.309 160.498 80.7972 167.919C72.3525 169.966 68.514 181.482 70.3053 187.111C59.8135 191.718 61.6048 200.674 62.6284 204.512C58.7899 205.792 55.4632 209.63 53.416 215.004C51.8806 218.843 51.3688 223.705 51.8806 228.567C50.0893 231.894 50.3452 239.827 55.2073 241.618C56.4868 248.783 64.6756 251.086 70.5613 248.783C72.0966 248.015 73.8879 247.248 75.4233 246.48C82.0767 243.153 87.9623 239.059 94.3598 235.22C110.481 226.008 126.603 215.004 136.583 198.627C141.189 190.95 144.516 182.249 145.284 173.037C146.307 165.616 147.587 157.171 140.933 152.053Z" fill="#F9B09D"/>
<path d="M70.3051 238.035C68.2579 236.5 68.002 237.779 67.7461 237.779C64.4194 236.5 56.2307 231.382 54.6953 228.055C52.6481 223.705 52.904 219.61 53.4158 215.26C55.463 209.886 58.7896 206.048 62.6281 204.768C61.6045 200.93 59.8132 191.973 70.3051 187.367C68.2579 181.482 72.3523 170.222 80.7969 168.175C81.3087 160.754 85.659 156.659 93.336 156.659C96.4068 151.797 101.525 150.518 106.387 153.333C108.434 151.03 114.32 147.703 120.205 148.726C128.138 145.912 134.536 147.447 140.933 152.309C147.842 157.427 146.307 165.872 145.539 173.805C144.772 183.017 141.445 191.717 136.839 199.394C126.859 215.772 110.737 226.776 94.6155 235.988C88.218 239.826 82.3323 243.921 75.679 247.247C75.1672 243.665 72.8641 240.082 70.3051 238.035Z" fill="#C683B8"/>
<path d="M55.4627 242.13C50.6006 240.338 50.3447 232.405 52.136 229.079C51.6242 223.961 52.136 219.355 53.6714 215.516C52.9037 219.866 52.9037 223.705 54.9509 228.311C56.4863 231.638 64.675 236.5 68.0017 238.035C68.2576 238.035 68.5135 236.756 70.5607 238.291C73.3756 240.338 75.4228 243.921 75.9346 247.248C74.3992 248.015 72.8638 248.783 71.0725 249.551C64.9309 251.598 56.7422 249.039 55.4627 242.13Z" fill="#B262A7"/>
<path d="M63.9068 229.335C63.395 227.543 63.9068 225.752 65.6981 224.728C65.6981 222.937 66.7217 221.658 68.2571 221.914C68.0012 216.284 70.8161 208.095 74.1428 204.768C76.4459 202.465 79.7726 200.418 83.3552 199.139C83.3552 198.115 83.8669 196.835 84.3787 196.068C85.1464 195.044 86.17 193.765 87.7054 194.021C86.17 182.505 97.1736 170.734 108.433 172.525C108.945 167.663 113.551 164.336 118.413 164.336C120.205 158.195 127.114 153.844 132.999 153.077C138.629 152.309 145.539 154.868 146.818 160.754C147.33 160.754 147.586 161.266 147.074 161.521C147.074 161.521 147.074 161.521 147.074 161.777C147.074 162.545 146.306 162.545 146.05 162.289C128.649 172.269 110.992 181.993 94.8706 193.765C92.8234 195.3 90.5203 200.93 89.4967 200.93C84.6346 205.792 78.4931 210.142 75.9341 216.796C72.3515 225.752 71.072 235.476 70.8161 244.944C70.8161 244.944 70.8161 244.944 70.8161 245.2C71.072 245.2 71.072 245.712 70.8161 245.712H70.5602C70.3043 245.968 69.7925 245.968 69.5366 245.712C61.8596 244.689 59.5566 234.964 63.9068 229.335Z" fill="#B262A7"/>
<path d="M184.691 204.512C184.947 203.745 185.203 202.721 185.459 201.698C186.227 197.859 185.459 194.021 183.668 190.694C183.156 189.67 182.388 188.903 181.62 187.879C181.109 187.367 180.597 186.855 180.085 186.6C179.829 186.344 179.317 186.088 179.061 185.832C178.806 185.832 178.806 185.576 178.55 185.576C178.55 184.808 178.55 184.041 178.55 183.273C178.294 182.505 178.038 181.737 177.782 180.97C177.014 179.434 176.247 178.155 175.223 176.875C174.711 176.364 174.199 175.852 173.943 175.34C172.408 173.805 169.593 171.757 167.034 170.99C166.267 166.128 164.987 162.289 161.404 158.962C159.101 156.659 154.239 156.148 150.657 157.171C147.842 155.124 142.468 155.124 138.885 157.171C129.417 153.077 119.693 159.73 118.669 165.104C113.04 166.639 109.969 170.734 109.201 174.572C104.339 174.572 97.1738 178.411 94.3589 181.737C90.5205 186.088 88.9851 192.741 88.2174 198.883C76.4461 200.418 70.3045 213.981 69.7927 226.008C67.7455 227.543 65.9542 229.846 65.1865 232.405C63.6511 237.012 65.1865 242.897 69.025 245.712C68.7691 247.248 68.7691 249.039 69.025 250.574C69.025 251.086 69.2809 251.598 69.5368 252.11C70.0486 253.645 70.8163 255.18 71.8399 256.204C72.0958 256.46 72.3517 256.716 72.6076 256.972C73.1194 257.483 73.8871 257.995 74.6548 258.507C76.1901 259.275 77.7256 260.042 79.5169 260.554C80.2846 260.81 81.3081 260.81 82.0758 260.81C82.5876 260.81 82.8435 260.81 83.3553 260.81C85.9143 260.81 88.4733 260.042 90.2646 258.251C92.0559 261.578 96.4061 262.601 100.245 261.578C100.756 261.578 101.012 261.322 101.524 261.322C103.06 260.81 104.595 260.042 105.874 258.763C106.13 258.507 106.386 258.251 106.642 257.739C106.642 257.739 107.41 258.507 108.945 259.531C109.713 260.042 110.992 260.81 112.016 261.322C112.528 261.578 112.784 261.834 113.295 261.834C114.575 262.346 116.366 262.857 117.902 263.113C118.413 263.113 119.181 263.369 119.693 263.369C121.484 263.625 123.531 263.369 125.579 263.113C126.09 263.113 126.602 262.857 127.114 262.857C127.626 262.857 128.138 262.601 128.649 262.346C129.417 262.09 130.441 261.834 131.208 261.322C131.976 261.066 132.488 260.81 133.256 260.298C134.791 259.531 136.07 258.507 137.094 257.228C137.35 257.228 137.862 257.483 138.629 257.483C139.141 257.483 139.909 257.739 140.677 257.739C141.444 257.739 142.212 257.739 142.98 257.739C143.747 257.739 144.771 257.739 145.539 257.483C147.842 257.228 150.145 256.46 151.936 255.18C152.96 254.413 153.983 253.389 155.007 251.854C161.149 252.11 165.755 249.039 166.778 244.944C167.546 244.944 168.314 244.944 169.337 244.944C169.849 244.944 170.617 244.689 171.129 244.433C171.64 244.177 172.408 243.921 172.92 243.665C173.432 243.409 173.688 243.153 173.943 242.897C174.455 242.641 174.711 242.385 174.967 241.874C175.223 241.618 175.479 241.362 175.479 241.106C176.502 239.826 177.014 238.291 176.758 236.5C178.55 235.988 180.085 234.197 181.109 231.894C181.365 231.638 181.365 231.126 181.62 230.87C181.876 230.102 182.132 229.335 182.388 228.567C182.388 228.311 182.644 227.799 182.644 227.543C182.644 226.776 182.9 226.008 182.9 225.24C182.9 224.217 182.644 223.193 182.388 222.169C186.483 218.331 188.274 210.654 184.691 204.512Z" fill="#C683B8"/>
<path d="M178.55 186.088C184.691 189.159 187.506 197.603 184.691 204.768C188.274 210.91 186.482 218.587 182.132 223.705C183.923 228.311 180.597 237.012 176.758 238.035C177.526 243.409 170.873 246.992 166.522 246.48C165.755 250.574 160.893 253.645 154.751 253.389C150.657 260.81 139.909 259.275 136.838 258.763C134.023 262.09 129.161 263.881 125.323 264.393C114.319 266.44 106.386 259.019 106.386 259.019C102.292 264.137 92.8235 264.393 90.0086 259.275C84.8906 263.881 75.9342 261.834 71.5839 257.228C70.3044 255.692 69.2808 253.645 69.0249 251.598C70.3044 252.365 71.5839 252.877 72.8634 253.389C75.1665 254.157 79.005 254.157 80.7963 252.365C82.8434 254.413 86.1701 255.18 88.985 254.413C90.7763 254.157 93.3353 252.365 94.103 250.574C95.3825 251.342 96.9179 251.854 98.4533 252.11C101.524 252.365 104.851 251.342 106.642 249.039C108.945 250.574 112.016 251.342 114.575 251.086C116.11 251.086 118.157 250.574 119.181 249.295C123.02 251.598 126.602 251.598 130.952 249.295C134.279 247.759 137.35 245.456 139.141 242.385C141.188 243.153 143.491 243.153 145.539 242.13C147.074 241.362 149.121 239.571 149.889 237.523C153.216 237.267 155.519 235.988 157.822 233.173C158.845 231.894 159.613 230.87 160.381 229.335C162.172 229.335 164.219 228.311 165.243 227.032C166.522 225.496 167.034 223.193 166.522 221.146C169.081 220.378 171.384 219.099 173.176 216.284C174.455 213.981 174.967 211.678 174.711 209.119C174.711 208.607 174.455 208.095 174.455 207.583C175.735 206.304 176.502 204.768 177.014 203.233C177.526 201.953 177.526 200.162 176.758 198.883C176.758 198.883 176.758 198.883 176.758 198.627C177.782 196.835 178.294 195.044 178.038 192.741C177.782 188.903 175.479 185.832 172.664 183.529C172.408 183.273 172.408 182.505 172.664 182.249C174.199 180.97 174.967 179.434 175.479 178.155C177.014 179.946 179.061 183.273 178.55 186.088Z" fill="#B262A7"/>
<path d="M98.7097 176.875C99.2215 176.875 99.9892 176.875 100.245 177.387C100.501 176.108 101.525 174.572 103.06 174.572C103.06 174.572 103.06 174.572 103.06 174.828C102.548 176.62 101.013 177.643 102.036 179.69C102.804 181.226 104.851 182.505 105.875 183.785C106.387 184.552 105.363 185.576 104.595 185.064C102.804 183.785 101.013 182.505 99.4774 181.482C98.4538 180.714 97.1743 180.202 97.1743 178.667C97.1743 177.643 97.942 177.131 98.7097 176.875Z" fill="#B262A7"/>
<path d="M109.713 172.525C110.737 173.037 111.761 173.805 112.784 173.805C114.32 174.061 115.599 172.525 116.367 172.525C117.646 172.525 119.182 173.037 120.461 173.549C120.973 173.805 121.485 174.061 122.253 174.316C122.764 174.061 123.276 173.549 123.788 173.037C123.788 172.269 124.044 171.246 124.3 170.478C124.3 170.222 124.3 169.966 124.3 169.454C124.3 168.175 124.812 167.151 126.091 166.639C126.603 166.384 127.115 167.151 126.859 167.663C125.835 169.966 125.323 172.525 125.323 174.828C125.323 175.084 125.323 175.34 125.067 175.34C127.882 176.619 130.697 178.411 133 179.946C133.512 180.458 133.768 181.226 132.488 180.714C130.441 179.946 128.65 178.923 126.603 178.155C123.788 176.875 119.438 173.805 116.111 174.572C114.064 175.084 111.249 175.852 109.458 174.828C108.946 174.572 108.69 174.572 108.434 173.549C108.178 173.037 108.946 172.013 109.713 172.525Z" fill="#B262A7"/>
<path d="M70.8175 244.944C74.656 244.433 75.1678 241.618 74.4001 238.547C74.1442 237.779 73.8883 237.012 74.1442 236.244C74.9119 232.661 80.5416 233.173 80.2857 229.335C79.2622 228.311 78.7504 227.287 78.4945 225.752C78.4945 225.496 78.2386 224.217 79.0063 223.705C79.518 223.449 80.2858 223.705 80.5417 224.473C81.3094 229.079 86.6832 228.567 89.2422 226.52C90.0099 225.752 91.5453 224.728 92.0571 223.193C92.313 222.425 92.313 221.658 92.0571 220.634C91.5453 217.819 92.313 215.516 92.5689 212.957C91.2894 212.701 89.754 211.934 88.7304 211.422C87.4509 210.91 87.9627 209.375 89.2422 209.375C91.0335 209.63 93.0807 211.678 95.3838 209.119C95.8956 208.607 97.6869 205.792 97.9428 205.024C98.7105 203.489 99.4781 201.953 100.758 200.674C102.805 198.627 106.643 196.835 109.714 196.58C109.458 195.3 108.691 193.509 108.435 192.485C108.179 191.718 108.691 191.206 109.458 191.718C109.714 191.973 110.482 193.253 111.505 194.276C112.529 195.3 113.808 195.556 114.576 195.556C116.112 195.556 117.647 195.3 118.926 195.044C121.23 194.788 123.789 194.021 122.253 190.95C120.462 187.111 114.576 187.879 113.297 183.529C113.041 182.505 114.064 181.993 114.832 182.761C115.344 183.529 116.623 184.296 117.391 184.296C117.135 183.785 117.135 182.761 117.135 181.993C117.391 180.97 118.671 181.226 118.926 182.249C118.926 182.761 119.438 184.041 119.694 184.552C120.462 185.832 121.997 186.855 122.509 187.623C123.277 188.391 124.3 189.414 124.812 190.694C125.836 193.253 125.58 194.276 124.3 195.556C123.277 196.324 121.997 196.58 120.974 196.835C120.974 196.835 120.974 196.835 121.23 196.835C122.509 197.347 124.812 198.883 126.092 201.442C126.859 202.977 126.348 205.536 125.836 206.816C125.324 208.095 123.277 211.166 123.277 211.678C123.277 212.957 123.789 214.748 124.3 215.516C125.58 217.307 128.395 219.61 130.698 220.89C131.466 221.402 130.954 222.681 129.93 222.425C127.115 221.402 125.068 219.355 123.021 217.307C122.509 216.54 121.485 214.237 120.206 215.004C118.159 217.051 115.088 218.331 112.273 218.587C111.505 218.587 110.738 218.587 110.226 218.331C109.97 219.099 109.97 220.122 110.482 220.634C110.994 221.146 111.505 221.146 112.017 221.402C112.785 221.914 113.808 222.169 114.32 222.937C115.6 224.473 115.856 226.264 115.856 228.055C115.856 229.335 114.064 229.079 114.064 228.055C113.809 225.752 112.017 223.961 109.97 222.681C108.946 222.169 107.667 221.658 107.155 220.634C106.899 220.122 106.899 219.61 106.899 219.099C105.876 219.61 104.596 219.866 103.573 219.866C102.549 219.866 102.549 218.587 103.317 218.331C104.852 217.819 107.411 217.051 108.691 216.028C107.667 213.469 107.923 209.63 107.667 207.071C107.667 206.304 108.946 205.792 109.202 206.56C110.226 208.863 109.458 215.26 113.553 215.26C117.903 215.26 119.182 211.933 119.438 211.166C119.694 210.398 116.112 207.583 115.088 206.56C114.32 205.792 115.344 204.768 116.112 205.536C116.623 206.048 118.926 208.095 120.462 208.351C122.253 208.607 123.277 205.536 123.533 204.257C123.789 203.489 123.789 201.698 122.253 199.906C120.974 198.371 117.647 197.091 117.135 196.835C114.832 197.091 112.529 197.091 112.273 197.091C112.017 198.627 111.25 198.883 109.458 198.371C108.691 198.115 105.364 198.883 103.828 199.906C100.758 201.953 100.246 204.512 98.4546 207.327C97.6869 208.351 96.9192 210.398 93.8484 211.933C93.8484 212.189 94.1043 212.445 94.1043 212.957C94.3602 215.516 92.8248 217.307 93.8484 219.866C95.1279 223.193 94.1043 224.728 91.5453 227.032C91.0335 227.543 90.2658 228.055 89.754 228.567C89.754 228.567 89.754 228.567 89.754 228.823C89.2422 230.614 91.5453 232.15 92.8248 233.173C93.8484 234.197 94.3602 235.22 94.872 236.5C95.1279 237.267 94.1043 237.779 93.5925 237.267C92.0571 235.476 90.2658 233.685 88.7304 231.894C88.2186 231.382 87.7068 230.614 87.4509 230.102C86.1714 230.614 84.892 230.87 83.3566 230.614C82.8448 230.614 82.5888 230.358 82.3329 230.358C82.3329 230.87 82.0771 231.126 82.0771 231.638C81.5653 232.917 80.7976 233.429 79.5181 234.197C76.9591 235.476 75.9355 236.5 76.9591 239.315C77.7268 241.362 79.0063 243.665 77.215 245.712C75.6796 247.503 72.8647 247.248 70.8175 246.992C69.7939 246.736 69.7939 244.944 70.8175 244.944Z" fill="#B262A7"/>
<path d="M90.0092 186.855C90.2651 186.855 90.2651 186.855 90.0092 186.855C90.2651 188.647 89.4974 190.438 90.521 192.229C91.2887 193.509 93.0801 194.021 94.1036 194.788C94.6154 195.3 94.6154 195.812 93.8477 195.812C92.5682 196.068 89.4975 196.836 88.4739 195.3C87.7062 194.277 89.2416 187.879 90.0092 186.855Z" fill="#B262A7"/>
<path d="M75.4237 206.304C75.9355 206.56 75.9355 207.071 75.9355 207.583C76.1914 208.095 77.9827 209.886 79.2622 210.91C79.774 211.422 80.2857 212.189 79.7739 212.445C78.2386 212.957 74.9119 210.398 74.4001 208.863C73.3765 207.071 75.1678 206.304 75.4237 206.304Z" fill="#B262A7"/>
<path d="M80.5409 246.48C80.7968 245.712 81.5645 245.712 82.0763 246.224C82.844 247.504 84.1235 248.271 85.1471 248.527C85.6588 248.527 86.4265 248.527 86.9383 248.527C87.4501 248.527 87.9619 248.271 88.4737 248.271C88.7296 248.271 89.2414 248.015 89.4973 248.015C89.7532 248.015 90.0091 247.759 90.265 247.759C91.0327 247.503 92.0563 247.248 92.824 246.736C93.5917 246.48 93.8476 247.503 93.3358 247.759C92.824 248.015 90.5209 249.551 89.7532 249.551C89.2414 249.807 88.2178 250.574 88.2178 251.854C88.2178 253.901 89.7532 256.716 90.0091 256.972C90.5209 257.739 89.2414 258.507 88.7296 257.739C87.706 256.204 83.6116 252.11 85.4029 250.062C82.3321 250.318 79.7732 249.551 80.5409 246.48Z" fill="#B262A7"/>
<path d="M102.036 247.248C104.595 247.503 107.41 247.248 109.201 245.712C109.713 245.2 110.225 244.689 110.481 243.921C111.248 242.13 110.992 240.338 110.225 238.547C109.457 236.244 108.433 234.453 109.201 232.15C109.457 231.382 110.481 231.382 110.737 231.894C112.528 234.709 113.551 238.035 113.04 241.362C114.063 241.874 115.087 242.385 116.11 242.641C117.902 243.153 120.205 243.153 121.74 242.13C124.555 240.338 124.555 237.523 123.531 233.685C123.02 231.894 122.252 230.102 123.531 228.311C124.043 227.543 125.067 227.799 125.067 228.823C125.067 232.405 127.37 235.476 126.858 238.803C126.602 240.85 124.299 243.153 122.764 243.665C120.461 244.689 114.319 246.224 112.272 244.433C112.272 244.689 110.737 246.48 109.457 246.992C107.154 248.527 104.083 248.271 101.524 247.759C101.268 248.271 101.268 247.248 102.036 247.248Z" fill="#B262A7"/>
<path d="M138.63 201.698C140.165 202.209 141.701 202.465 143.236 203.233C143.492 202.465 147.075 201.442 147.586 200.418C148.354 198.627 147.075 196.835 145.539 195.3C145.027 194.788 139.909 190.438 139.398 190.182C139.142 189.926 139.398 189.67 139.653 189.67C140.677 189.926 146.563 193.253 147.075 193.765C147.075 193.509 152.704 189.158 153.728 188.135C154.24 187.623 155.519 187.879 154.752 188.903C153.472 190.95 148.866 194.276 148.098 195.3C148.098 195.556 150.401 197.859 150.401 199.906C150.401 202.209 147.33 203.489 146.307 204.001C148.098 204.768 149.634 206.56 150.657 207.839C151.169 208.607 150.401 209.374 149.634 208.863C147.842 207.327 146.051 206.816 143.748 206.56C143.748 206.816 143.748 208.607 142.98 210.142C142.212 211.678 140.677 212.957 140.933 213.213C142.468 215.772 145.027 216.796 145.283 219.61C145.283 220.634 144.26 220.634 143.748 220.122C142.212 218.075 140.677 216.284 138.886 214.748C138.63 214.492 138.63 213.981 138.63 213.725C139.398 212.445 140.933 210.654 141.445 209.374C142.468 206.304 140.677 204.768 138.374 203.745C137.35 202.721 137.862 201.442 138.63 201.698Z" fill="#B262A7"/>
<path d="M131.721 234.709C131.721 234.453 131.721 234.197 131.721 233.941C131.977 233.173 133.257 233.429 133.001 234.197C133.001 234.964 133.001 235.732 133.001 236.5C133.513 237.012 135.56 237.779 137.607 237.012C139.91 236.5 141.957 234.453 142.469 233.685C143.493 232.15 143.493 230.102 143.237 228.055C143.237 227.543 143.493 226.776 144.26 227.032C147.075 228.311 145.284 230.614 145.028 232.661C149.89 232.917 154.752 230.614 154.496 226.008C154.24 222.937 153.217 219.866 152.449 216.796C152.193 215.772 153.729 215.516 153.985 216.284C154.752 218.587 155.52 220.89 156.288 222.937C156.799 224.473 158.079 226.264 157.823 228.055C157.567 230.358 155.008 232.405 152.961 233.429C150.914 234.453 148.867 234.453 146.564 234.453C144.516 234.453 143.493 235.732 143.237 235.732C140.678 237.523 137.351 240.338 134.28 239.059C132.233 239.827 130.698 239.315 130.954 238.803C131.465 237.268 131.721 235.988 131.721 234.709Z" fill="#B262A7"/>
<path d="M162.941 208.095C163.964 207.071 164.22 205.024 164.22 204.001C164.22 202.977 165.5 202.977 165.755 203.745C166.523 205.28 166.011 207.071 164.988 208.351C165.755 208.351 168.826 209.375 169.082 209.375C169.594 209.63 169.594 210.654 168.826 210.91C167.291 211.166 162.941 210.398 162.429 210.398C160.638 210.142 158.079 209.119 158.59 208.095C158.59 207.839 162.685 208.095 162.941 208.095Z" fill="#B262A7"/>
<path d="M136.582 164.848C137.094 163.569 137.606 162.289 138.118 160.754C138.374 160.242 139.141 159.986 139.653 160.498C139.909 161.266 140.421 161.777 140.421 162.545C141.444 162.289 142.724 162.033 143.747 162.033C144.515 162.033 144.771 163.057 144.003 163.313C141.956 163.825 139.909 164.592 137.862 165.36C136.838 166.128 136.326 165.36 136.582 164.848Z" fill="#B262A7"/>
<path d="M140.933 170.99C142.468 170.222 144.004 170.99 145.283 171.246C146.307 170.478 148.61 169.71 149.377 169.71C150.145 169.454 151.169 169.454 150.401 170.734C149.889 171.757 148.61 172.269 147.586 172.781C148.61 173.549 148.61 174.316 149.122 175.596C150.145 177.899 151.936 178.923 154.239 179.178C155.263 179.178 157.31 178.923 158.59 177.899C159.613 176.875 159.869 175.084 160.125 175.084C160.637 174.572 161.916 175.084 161.661 175.852C161.405 176.364 160.637 178.923 160.381 179.434C161.661 179.946 162.94 180.458 163.196 181.737C164.22 185.064 165.243 185.32 167.034 185.832C168.314 186.088 169.338 186.344 170.361 186.855C170.873 187.111 170.873 188.391 170.105 188.391C169.082 188.647 167.29 187.879 166.267 187.879C167.034 188.647 167.29 190.438 167.034 191.462C166.267 194.021 162.684 196.068 160.637 196.836C159.869 197.091 159.357 196.068 159.869 195.3C160.637 194.532 161.916 194.277 162.94 193.765C163.964 192.997 165.499 191.973 165.243 190.438C164.987 189.159 163.708 188.647 163.452 188.391C162.94 187.623 162.94 186.6 162.684 185.832C162.172 183.529 161.149 181.993 159.102 180.714C157.31 181.482 154.239 181.226 152.704 180.714C150.913 180.202 149.121 179.179 148.098 177.643C147.586 176.62 147.586 175.596 146.818 174.828C145.539 173.549 142.468 173.293 140.933 173.037C140.165 172.525 140.421 171.246 140.933 170.99Z" fill="#B262A7"/>
<path d="M174.967 205.792C175.223 205.536 175.479 205.536 175.479 205.28C177.782 202.465 176.247 199.139 175.991 198.883C176.503 197.347 175.735 194.788 175.479 194.021C175.479 193.509 175.223 193.253 175.223 192.997C175.223 192.741 175.479 191.974 175.735 191.974C175.991 191.974 176.503 192.229 177.015 193.253C177.526 194.277 178.038 196.068 178.038 198.883C178.55 198.883 180.853 200.418 180.853 200.674C181.109 201.442 180.597 201.954 180.085 201.442C179.829 201.442 178.806 201.186 178.55 200.93C178.806 202.977 178.038 205.024 176.503 206.56C176.247 206.816 175.991 207.072 175.735 207.327C174.967 207.839 174.2 206.56 174.967 205.792Z" fill="#B262A7"/>
<path d="M168.826 229.591C170.617 227.543 171.385 225.496 171.641 222.937C171.641 222.425 171.385 222.169 171.385 221.658C171.385 221.402 171.385 220.89 171.897 220.634C174.2 219.611 175.735 217.819 176.503 215.26C176.759 214.493 177.783 214.493 178.039 215.26C179.062 218.331 177.271 220.634 174.712 221.402C175.735 222.169 176.503 223.449 177.271 224.728C177.527 225.496 176.759 226.52 175.991 225.752C175.224 225.24 174.712 224.473 173.944 223.961C173.944 226.52 172.665 229.079 170.362 230.614C170.362 230.614 170.362 230.614 170.106 230.87C169.082 231.638 168.058 230.358 168.826 229.591Z" fill="#C683B8"/>
<path d="M141.189 248.783C143.748 248.271 145.795 246.992 147.331 244.945C147.587 244.689 147.587 244.177 147.842 243.921C147.842 243.665 148.354 243.153 148.866 243.409C151.425 243.921 153.728 243.153 155.519 241.618C156.031 241.106 157.055 241.874 156.799 242.386C155.775 245.456 153.216 246.224 150.401 245.456C150.913 246.736 150.913 248.271 150.657 249.551C150.401 250.574 149.122 250.83 148.866 249.551C148.61 248.783 148.354 247.759 148.354 246.992C146.819 249.039 144.26 250.318 141.701 250.574H141.445C140.165 250.574 140.165 249.039 141.189 248.783Z" fill="#C683B8"/>
<path d="M134.536 173.037C135.304 172.781 136.072 173.037 136.584 173.549C136.839 173.805 138.375 176.364 139.91 176.875C141.701 177.387 144.005 177.131 144.772 177.643C145.284 177.899 146.564 179.434 146.819 179.69C148.355 180.97 149.378 180.97 151.17 181.482C151.937 181.737 152.705 181.482 153.473 181.993C158.079 185.832 146.052 186.344 144.772 186.088C141.446 185.576 141.957 181.993 139.398 180.202C137.351 178.923 134.536 178.923 133.257 176.364C132.745 175.596 132.745 173.549 134.536 173.037Z" fill="#D197C3"/>
<path d="M126.603 183.529C128.139 181.738 130.698 183.017 131.721 184.552C132.745 185.832 133.257 187.367 133.257 188.903C133.768 190.438 134.024 191.973 136.072 192.741C137.351 193.253 139.398 194.532 140.422 195.556C141.701 196.836 141.957 198.115 139.91 198.883C138.631 199.65 136.327 199.139 135.048 199.139C133.513 199.139 131.977 199.139 130.698 198.371C127.371 196.324 129.674 192.997 128.139 189.926C127.115 187.879 124.556 185.576 126.603 183.529Z" fill="#D197C3"/>
<path d="M127.371 211.166C128.395 209.886 129.674 208.863 130.953 207.839C132.233 206.816 134.024 204.257 135.816 206.048C137.095 207.327 136.071 210.142 135.048 211.422C134.536 211.933 131.721 214.492 130.698 215.004C129.162 215.516 126.859 215.516 126.603 213.469C126.347 212.445 126.859 211.678 127.371 211.166Z" fill="#D197C3"/>
<path d="M92.3125 164.848C91.2889 166.128 90.0094 167.151 88.9858 168.431C87.9622 169.71 86.1709 172.269 84.3796 170.478C82.8442 169.198 83.8678 166.384 84.8914 165.104C85.1473 164.592 87.9622 161.777 88.9858 161.266C90.2653 160.754 92.8243 160.498 93.3361 162.289C93.3361 163.313 92.8243 164.08 92.3125 164.848Z" fill="#D197C3"/>
<path d="M153.729 200.418C153.217 198.883 152.961 196.068 155.008 195.556C157.055 195.044 159.359 197.091 160.126 198.627C161.15 200.674 160.638 202.977 159.103 204.768C158.079 206.048 156.032 207.327 154.752 205.536C154.241 204.768 154.241 204.001 154.496 202.977C154.496 202.209 154.241 201.442 153.729 200.418Z" fill="#D197C3"/>
<path d="M164.732 196.58C165.499 194.788 168.058 194.021 169.082 192.229C169.85 190.95 170.873 189.926 172.409 190.694C174.2 191.718 173.944 196.068 170.873 197.859C171.897 199.139 172.665 200.674 172.409 202.209C172.153 203.489 171.385 204.513 169.85 204.001C168.058 203.233 167.803 200.674 166.267 199.65C164.988 199.139 163.964 198.115 164.732 196.58Z" fill="#D197C3"/>
<path d="M147.842 209.631C149.889 210.142 150.913 213.213 151.425 215.004C151.936 216.54 151.936 222.425 151.681 223.705C151.425 224.984 150.401 227.032 148.61 226.52C146.563 226.008 147.074 222.681 147.074 221.402C146.818 219.611 142.212 208.095 147.842 209.631Z" fill="#D197C3"/>
<path d="M130.953 224.729C131.976 223.449 132.744 222.17 133.512 220.89C134.535 219.099 136.071 217.052 138.374 217.563C139.909 217.819 140.933 219.099 141.189 220.378C141.445 221.146 141.445 223.961 138.886 227.543C137.094 229.847 130.697 232.661 129.673 228.055C129.673 226.776 130.441 225.752 130.953 224.729Z" fill="#D197C3"/>
<path d="M100.757 207.839C102.292 205.024 104.34 202.209 107.666 201.186C109.202 200.674 113.808 202.721 113.808 203.745C113.808 204.513 113.04 205.024 112.272 205.28C111.761 205.536 110.737 205.536 110.225 205.536C109.713 205.536 108.946 205.536 108.434 205.536C107.41 206.304 106.131 207.072 105.107 207.583C104.084 209.375 106.131 211.678 105.875 213.725C105.619 214.748 105.107 215.516 104.084 216.284C102.292 217.563 99.2216 218.331 97.6862 216.028C96.1508 213.469 99.7334 210.142 100.757 207.839Z" fill="#D197C3"/>
<path d="M99.7335 237.523C100.501 235.476 100.245 233.685 99.4776 231.638C98.454 229.079 95.6391 225.496 98.454 222.681C100.245 220.89 102.804 221.658 104.596 223.449C105.875 224.728 105.875 226.264 105.875 227.799C106.131 229.59 106.643 231.638 106.899 232.661C107.666 235.988 107.922 239.826 105.363 242.13C103.828 243.665 100.501 244.433 99.2217 242.13C98.7099 241.362 98.7099 240.85 98.9658 239.826C98.9658 239.059 99.4776 238.291 99.7335 237.523Z" fill="#D197C3"/>
<path d="M86.17 235.22C87.1936 235.988 88.2172 236.5 88.9849 237.268C91.0321 238.803 93.0792 241.362 90.5202 243.665C88.2172 245.456 84.6346 244.689 82.5874 242.641C80.7961 241.106 80.2843 238.547 81.052 236.5C81.3079 235.732 83.0992 233.173 86.17 235.22Z" fill="#D197C3"/>
<path d="M80.2852 206.815C80.797 205.536 81.5647 204.768 82.3324 204.256C83.1001 203.745 89.2417 200.93 91.0329 201.953C92.0565 202.465 92.8242 204.001 92.0565 205.024C91.8006 205.536 91.0329 205.792 90.5211 206.048C89.4975 206.56 87.4503 206.56 86.6826 207.327C85.1472 208.607 84.6355 210.654 85.6591 212.189C86.9386 214.492 88.9857 216.796 87.4503 219.61C86.6826 221.402 84.8913 222.169 82.8442 221.658C80.797 220.89 80.797 219.355 81.0529 217.563C81.0529 215.772 81.0529 214.492 80.797 212.701C80.5411 211.678 80.0293 210.91 80.0293 209.886C80.0293 209.119 80.0293 207.839 80.2852 206.815Z" fill="#D197C3"/>
<path d="M95.6397 185.576C96.6633 185.32 97.431 185.576 98.4546 185.832C99.7341 186.344 103.061 186.6 103.573 186.344C107.411 185.064 111.761 184.296 112.529 187.111C112.785 188.391 111.505 188.903 110.482 189.414C108.435 190.182 106.387 190.182 104.596 191.206C103.061 192.229 102.037 194.021 100.502 195.044C99.2223 196.068 97.6869 197.091 96.4074 195.812C95.6397 195.044 95.1279 193.509 94.872 192.485C94.3602 191.462 93.8484 190.438 93.5925 189.414C93.3366 187.879 93.8484 186.088 95.6397 185.576Z" fill="#D197C3"/>
<path d="M124.3 161.522C124.812 161.01 127.371 159.474 128.139 159.218C129.93 158.451 131.977 158.451 133.257 158.963C134.025 159.218 134.792 159.986 134.536 160.754C134.28 161.522 133.769 162.033 133.257 162.545C132.745 163.313 132.233 164.08 131.466 164.592C130.442 165.36 129.418 165.36 128.139 165.104C126.859 164.848 125.324 164.848 124.3 163.825C124.044 163.313 123.789 162.289 124.3 161.522Z" fill="#D197C3"/>
<path d="M112.784 151.797C113.296 151.286 116.11 150.518 117.134 150.262C118.925 150.006 120.973 150.262 122.252 151.03C123.02 151.541 123.532 152.309 123.02 153.077C122.764 153.589 121.996 154.1 121.484 154.612C120.717 155.124 120.205 155.892 119.437 156.403C118.414 156.915 117.134 156.659 116.11 156.403C115.087 155.892 113.296 155.38 112.784 154.356C112.016 153.333 112.016 152.309 112.784 151.797Z" fill="#D197C3"/>
<path d="M56.7418 224.217C56.4859 223.705 56.23 220.634 56.4859 219.61C56.7418 217.819 57.5095 215.772 58.2772 214.748C59.0449 213.981 59.8126 213.981 60.5803 214.492C61.0921 215.004 61.348 215.772 61.6039 216.284C62.1157 217.051 62.6275 217.819 62.6275 218.843C62.8834 220.122 62.3715 221.146 61.8597 221.914C61.0921 222.937 60.3244 224.217 59.0449 224.728C58.2772 225.496 57.2536 225.24 56.7418 224.217Z" fill="#D197C3"/>
<path d="M73.6312 192.229C74.9107 190.95 76.4461 189.926 77.9815 189.158C81.0522 187.367 81.564 184.808 81.0522 181.993C80.5404 179.69 80.0286 177.387 81.0522 175.34C81.3081 174.828 82.0758 174.828 82.3317 175.34C83.0994 176.619 82.3317 179.178 82.8435 180.458C84.3789 183.785 86.1702 179.434 87.4497 178.667C89.241 177.387 90.0087 178.411 88.9851 179.946C88.2174 181.481 86.682 183.017 85.6584 184.04C83.8671 185.832 84.3789 188.391 83.0994 190.438C82.3317 191.462 79.261 190.95 78.2374 191.717C75.9343 192.997 75.1666 197.603 72.8635 197.091C70.5604 196.324 72.3517 193.509 73.6312 192.229Z" fill="#B262A7"/>
<path d="M62.3723 210.91C62.8841 210.142 64.4195 209.119 65.1872 208.351C66.2108 207.583 67.7462 207.071 66.9785 205.024C66.7226 204.512 66.2108 204.001 65.699 203.489C65.1872 202.465 65.1872 200.93 66.7226 201.186C67.4903 201.186 68.0021 201.954 68.5139 202.465C68.7698 201.442 69.2816 200.418 70.3052 200.162C71.8406 199.65 72.0965 200.93 71.8406 201.954C71.5847 202.977 70.817 203.233 70.5611 204.513C70.5611 205.28 70.5611 206.56 68.5139 208.095C67.2344 209.119 65.9549 211.166 63.9077 212.957C62.1164 214.493 61.6046 211.934 62.3723 210.91Z" fill="#B262A7"/>
<path d="M95.8951 159.986C97.6864 158.707 101.781 161.01 102.037 163.313C104.34 162.801 104.852 161.521 105.875 160.242C106.387 159.474 107.411 158.451 108.178 157.939C108.946 157.683 110.481 157.427 110.993 158.451C111.505 159.73 109.97 160.242 109.202 160.754C107.666 161.777 107.155 163.569 105.619 164.08C105.107 164.336 104.084 164.08 103.572 164.336C102.548 164.592 101.781 165.104 101.013 165.872C100.501 166.639 99.9895 167.663 99.2218 168.175C98.4541 168.687 97.1746 168.431 96.6628 167.407C95.8951 166.128 98.9659 163.825 99.7336 163.569C98.9659 162.289 97.4305 161.521 95.8951 161.01C95.6392 161.01 95.3833 160.242 95.8951 159.986Z" fill="#B262A7"/>
<path d="M83.6128 149.75C66.9793 143.353 48.8105 152.821 38.5746 166.128C28.3386 179.179 25.5238 198.371 38.3187 210.91C51.3695 223.705 70.306 216.54 80.0302 203.489C90.0102 190.182 85.1482 170.222 68.0029 166.384C53.4167 163.057 36.7833 176.108 42.4131 191.718C44.9721 198.627 51.3695 203.745 59.0465 202.977C66.2116 202.209 72.3532 196.836 72.3532 189.414C72.3532 183.273 68.2588 176.875 61.6055 176.108C54.9521 175.34 48.8105 180.458 48.2987 187.111C48.2987 187.879 49.3223 187.879 49.3223 187.111C50.09 179.69 59.0465 175.084 65.444 179.434C72.0973 184.041 71.8414 194.021 65.444 198.627C59.8142 202.465 52.1372 201.442 47.531 196.324C42.4131 190.438 42.4131 181.738 47.2751 175.596C56.9993 162.545 77.983 167.151 82.5892 182.249C87.1954 197.091 73.1209 212.445 59.3024 215.26C45.228 218.331 33.2007 205.28 32.433 191.973C31.6653 177.643 41.3895 163.825 53.1608 156.404C64.4204 149.238 78.7507 147.447 90.0102 155.636C100.246 163.057 105.876 176.108 104.341 188.647C102.805 202.721 93.3369 215.26 81.5656 222.681C67.2352 231.638 47.5311 233.429 36.5274 218.587C35.7597 217.563 34.2243 218.587 34.7361 219.611C44.4603 235.732 66.2117 234.197 80.7979 226.008C95.1282 217.819 106.132 202.721 106.9 185.832C106.9 170.734 97.6872 155.38 83.6128 149.75Z" fill="#88BFE1"/>
<path d="M10.9365 184.552C10.9365 197.091 18.6135 211.678 27.8258 217.052C37.2941 222.425 44.7151 216.796 44.7151 204.257C44.7151 191.718 37.0382 177.131 27.8258 171.757C18.6135 166.384 10.9365 172.013 10.9365 184.552Z" fill="#EABD8B"/>
<path d="M17.8461 200.93L11.9604 173.805L17.3343 170.478L40.1093 217.307L34.9913 220.378L17.8461 200.93Z" fill="#EABD8B"/>
<path d="M7.09863 187.111C7.09863 199.65 14.7756 214.237 23.9879 219.61C33.4562 224.984 40.8773 219.355 40.8773 206.816C40.8773 194.276 33.2003 179.69 23.9879 174.316C14.5197 168.687 7.09863 174.572 7.09863 187.111Z" fill="#FFDFB4"/>
<g opacity="0.5">
<path d="M7.86572 189.159C7.86572 199.906 14.5191 212.445 22.452 217.052C30.3848 221.658 37.0382 216.796 37.0382 206.048C37.0382 195.3 30.3848 182.761 22.452 178.155C14.5191 173.293 7.86572 178.411 7.86572 189.159Z" fill="#FFE375"/>
</g>
<g opacity="0.5">
<path d="M9.65723 190.95C9.65723 199.65 15.0311 209.63 21.4286 213.469C27.826 217.307 33.1999 213.213 33.1999 204.512C33.1999 195.812 27.826 185.832 21.4286 181.993C15.0311 178.411 9.65723 182.505 9.65723 190.95Z" fill="#FFE375"/>
</g>
<path d="M22.7084 146.935C20.4054 145.656 18.3582 145.4 16.5669 146.423C14.5197 147.703 13.4961 150.262 13.4961 153.589C13.4961 159.218 16.5669 165.872 20.6612 169.198V167.919C17.0787 164.592 14.2638 158.707 14.2638 153.589C14.2638 150.518 15.2874 148.215 17.0787 147.191C17.5905 146.935 18.3582 146.679 19.1259 146.679C20.1495 146.679 21.173 146.935 22.1966 147.703C26.8028 150.262 30.3854 157.427 30.3854 163.569C30.3854 166.639 29.3618 168.943 27.5705 169.966C26.8028 170.478 25.7792 170.478 25.0115 170.478V171.501C25.2674 171.501 25.5233 171.501 25.7792 171.501C26.5469 171.501 27.5705 171.246 28.0823 170.99C30.1295 169.71 31.1531 167.151 31.1531 163.825C31.409 157.171 27.5705 149.75 22.7084 146.935Z" fill="#EABD8B"/>
<path d="M20.6616 167.663V171.501C20.6616 172.269 21.6852 172.781 22.9647 172.781C24.2442 172.781 25.2678 172.269 25.2678 171.501V167.663H20.6616Z" fill="#FFDFB4"/>
<path d="M18.8706 165.104V167.663C18.8706 168.175 19.1265 168.687 19.6383 168.943V165.104H18.8706Z" fill="#EABD8B"/>
<path d="M23.2207 165.104V169.71C23.9884 169.71 24.5002 169.454 25.012 169.454V165.104H23.2207Z" fill="#EABD8B"/>
<path d="M20.6616 165.104V169.454C21.1734 169.71 21.6852 169.71 22.4529 169.71V165.104H20.6616Z" fill="#EABD8B"/>
<path d="M25.7798 165.104V168.942C26.2916 168.687 26.8034 168.175 26.8034 167.663V165.104H25.7798Z" fill="#EABD8B"/>
<path d="M19.8936 165.104V168.942C20.1495 169.198 20.4053 169.198 20.6612 169.454V165.104H19.8936Z" fill="#FFDFB4"/>
<path d="M22.4521 165.104V169.71C22.708 169.71 22.708 169.71 22.9639 169.71H23.2198V165.104H22.4521Z" fill="#FFDFB4"/>
<path d="M25.0112 165.104V169.454C25.2671 169.454 25.523 169.198 25.7789 169.198V165.36H25.0112V165.104Z" fill="#FFDFB4"/>
<path d="M22.9645 163.057C20.9173 163.057 19.126 164.08 19.126 165.104C19.126 166.384 20.9173 167.151 22.9645 167.151C25.0116 167.151 26.8029 166.128 26.8029 165.104C26.8029 163.825 25.0116 163.057 22.9645 163.057Z" fill="#FFC952"/>
<path d="M22.708 146.935C22.4521 146.935 22.4521 146.935 22.4521 146.679V147.703C27.0583 150.262 30.6409 157.427 30.6409 163.569C30.6409 166.639 29.6173 168.942 27.826 169.966C27.3142 170.222 26.5465 170.478 25.7788 170.478C25.5229 170.478 25.0111 170.478 24.4993 170.222C24.4993 170.222 23.9875 170.222 23.9875 170.734C23.9875 171.246 24.4993 171.246 24.4993 171.246C25.0111 171.501 25.7788 171.501 26.0347 171.501C26.8024 171.501 27.826 171.246 28.3378 170.99C30.385 169.71 31.4086 167.151 31.4086 163.824C31.4086 157.171 27.5701 149.75 22.708 146.935Z" fill="#EABD8B"/>
<path d="M20.6606 72.2129V148.983C20.6606 149.494 21.1724 150.006 21.6842 150.006C22.196 150.006 22.7078 149.494 22.7078 148.983V72.2129H20.6606Z" fill="#FFDFB4"/>
<path d="M39.8537 55.5794C39.8537 55.5794 44.204 60.6974 49.322 55.8353C51.1133 54.2999 53.1605 47.3907 53.1605 47.3907C53.1605 47.3907 60.8374 46.1112 66.2113 43.2963C69.0262 46.3671 70.0498 52.5086 80.2857 54.8117C92.5688 57.6266 81.5652 25.3834 81.5652 25.3834L53.1605 23.848L35.2476 43.5522L39.8537 55.5794Z" fill="#F48176"/>
<path d="M24.7549 63.0005C24.7549 63.0005 32.9436 66.3272 38.3175 63.0005C43.6914 59.6738 44.4591 46.3671 44.4591 46.3671C44.4591 46.3671 50.0889 45.3435 52.9037 42.0168C55.7186 38.6902 57.5099 36.8989 57.5099 36.8989C57.5099 36.8989 63.6515 39.9696 70.3049 39.2019C71.5844 41.505 76.9582 52.7646 82.3321 56.6031C87.706 60.4415 97.1742 27.6865 97.1742 27.6865L61.0925 13.6121C61.0925 13.6121 39.0852 18.4741 38.0616 19.4977C36.7821 20.7772 26.8021 40.2255 26.8021 40.2255L24.7549 63.0005Z" fill="#F7A093"/>
<path d="M175.991 64.28C163.964 59.9297 153.728 54.8117 148.098 49.9496C138.118 41.2491 125.323 26.1511 113.552 16.171C106.387 10.2853 101.013 5.67916 96.6628 3.12018C87.7064 -2.2537 82.5884 1.84069 78.7499 0.817095C68.0022 -1.99779 64.4196 3.37608 60.5811 6.95866C55.2072 6.95866 43.18 8.23816 39.8533 12.8443C34.9912 19.7536 18.8696 29.9895 17.5901 38.6901C16.3106 47.3907 15.5429 56.8589 13.2398 65.8154C12.4721 68.6302 11.4485 69.9097 13.7516 70.6774C14.2634 70.6774 16.5665 70.6774 17.0783 70.6774C15.5429 73.7482 14.5193 76.819 15.287 79.378C16.5665 83.2165 23.7317 81.1693 27.3142 81.6811C33.1999 82.4488 39.8533 80.4016 47.0185 83.2165C49.5774 84.2401 58.0221 86.799 70.817 91.4052C84.1238 96.2673 101.269 93.7083 113.296 90.3816C119.694 94.9878 149.122 108.295 156.031 111.877C162.685 102.665 176.503 70.1656 175.991 64.28ZM52.9041 30.7572C62.1165 34.5957 70.817 33.0603 70.817 33.0603C72.8642 37.1547 77.7263 43.5522 78.494 47.3907C79.7735 54.2999 76.7027 57.3707 71.0729 59.9297C63.9078 63.2564 51.1128 63.5123 46.7626 63.0005C39.3415 62.2328 34.7353 61.721 30.8968 63.7682C32.1763 60.4415 35.503 53.7881 34.4794 45.3435C46.5067 42.2727 49.3215 37.1547 52.9041 30.7572Z" fill="#FBC8B6"/>
<path d="M149.633 97.8027C149.633 110.086 157.054 115.972 166.523 110.598C175.735 105.224 183.412 90.8935 183.412 78.6103C183.412 66.3272 175.991 60.4415 166.523 65.8154C157.31 70.9334 149.633 85.5196 149.633 97.8027Z" fill="#F7A093"/>
<path d="M121.485 67.095C121.485 67.095 116.367 70.6776 114.32 75.7955C112.273 80.9135 114.32 85.7756 114.32 85.7756C114.32 85.7756 115.088 78.6104 116.623 75.7955C118.414 72.9806 121.485 67.095 121.485 67.095Z" fill="#F7A093"/>
<path d="M39.597 66.5831C39.597 66.5831 41.3883 62.7446 38.8293 62.7446C36.2703 62.7446 30.8965 63.2564 26.5462 65.5595C21.94 68.1185 16.5661 71.1893 15.2866 75.0278C14.0071 78.8662 15.0307 82.4488 22.9636 81.4252C30.6405 80.1457 36.7821 72.2129 39.597 66.5831Z" fill="#FBC8B6"/>
<path d="M27.57 72.2129C21.6843 72.7247 17.8458 75.2837 17.334 79.1222C16.5663 83.2165 23.2197 81.6811 27.0581 81.4252C28.0817 77.5868 27.57 72.2129 27.57 72.2129Z" fill="#FCD7CC"/>
<path d="M35.5036 106.503C35.7595 106.503 36.0154 106.503 36.2713 106.503C41.9011 105.735 47.275 97.5467 46.5073 90.8934C45.2278 79.6338 37.8067 74.7717 31.921 70.9333C29.3621 69.3979 27.3149 67.8625 26.0354 66.3271L24.5 67.6066C26.0354 69.3979 28.3385 70.9332 30.8974 72.4686C36.5272 76.0512 43.6924 80.6574 44.716 90.8934C45.4837 97.0349 40.3657 103.688 36.0154 104.456C32.1769 104.968 30.6416 100.106 30.1298 97.2908C27.059 80.6574 23.2205 68.6302 23.2205 68.6302L21.4292 69.142C21.4292 69.142 25.2677 81.1692 28.3385 97.5467C29.8738 105.224 33.4564 106.503 35.5036 106.503Z" fill="#FFDFB4"/>
</svg>
