<svg width="572" height="519" viewBox="0 0 572 519" fill="none" xmlns="http://www.w3.org/2000/svg">
<path d="M154.94 179.308C126.34 161.908 91.94 150.508 59.34 157.908C26.5401 165.108 -2.25995 195.308 0.140049 228.708C3.34005 219.308 12.7401 212.908 22.5401 211.108C32.3401 209.108 42.34 211.108 51.94 214.308C80.74 223.708 104.94 243.708 125.14 266.308C145.34 288.908 162.14 314.308 181.14 337.908C189.54 348.508 198.54 358.908 210.34 365.108C224.94 372.908 247.14 373.108 256.14 356.908C262.54 345.308 262.94 333.508 259.14 321.308C253.54 303.508 247.54 286.108 238.94 269.708C229.74 252.308 218.54 236.108 205.34 221.508C190.74 205.108 173.74 190.708 154.94 179.308Z" fill="#9947E1"/>
<path d="M80.9392 215.708C131.139 251.708 166.939 296.508 208.739 344.108C223.939 359.908 240.939 361.308 256.739 355.308C256.539 355.708 256.339 356.308 255.939 356.708C246.939 373.108 224.739 372.708 210.139 364.908C198.339 358.708 189.139 348.108 180.939 337.708C162.139 313.908 145.139 288.708 124.939 266.108C104.739 243.508 80.5392 223.508 51.7392 214.108C42.3392 210.908 32.3392 208.908 22.5392 210.908C12.7392 212.908 3.53918 219.108 0.139183 228.508C-0.0608169 225.108 -0.0608162 221.908 0.339184 218.708C19.1392 194.308 56.9392 197.108 80.9392 215.708Z" fill="#710FC7"/>
<path d="M63.3407 188.908C79.3407 183.308 96.7407 184.508 112.741 189.908C130.741 195.908 146.341 207.108 159.741 220.308C174.741 234.908 187.941 251.308 200.741 267.908C214.141 285.308 226.741 303.308 238.541 321.908C250.341 340.308 261.141 359.308 271.141 378.708C272.341 381.108 273.541 383.508 274.741 385.908C275.341 386.908 273.541 387.708 272.941 386.708C263.141 367.308 252.541 348.308 241.141 329.908C229.741 311.708 217.741 293.908 204.741 276.708C192.341 260.108 179.141 243.508 164.741 228.508C151.541 214.708 136.541 202.108 118.941 194.708C103.541 188.108 86.3407 185.308 69.7407 189.108C67.7407 189.508 65.5407 190.108 63.5407 190.908C62.7407 191.108 62.1407 189.308 63.3407 188.908Z" fill="#1D3557"/>
<path d="M82.1395 199.308C91.9395 194.308 102.74 191.708 113.74 191.508C105.94 184.708 97.9395 178.108 90.1395 171.308C89.1395 170.508 90.3395 169.108 91.3395 169.908C99.9395 177.108 108.34 184.508 116.94 191.708C117.74 192.308 117.14 193.508 116.14 193.308C104.54 192.908 93.1395 195.508 82.7395 200.908C81.7395 201.508 80.9395 199.708 82.1395 199.308Z" fill="#1D3557"/>
<path d="M139.94 235.308C154.94 239.508 169.54 245.508 183.14 253.108C186.14 254.708 189.14 256.508 191.94 258.308C186.74 244.308 179.94 231.108 171.54 218.708C169.14 214.908 166.34 211.308 163.74 207.708C162.94 206.708 164.54 205.508 165.14 206.508C174.94 219.108 183.14 232.908 189.54 247.308C191.34 251.508 193.14 255.708 194.54 260.108C194.94 261.108 193.94 261.708 193.14 261.308C180.34 252.908 166.34 246.108 151.74 240.908C147.54 239.508 143.34 238.108 139.14 236.908C138.14 236.708 138.74 234.908 139.94 235.308Z" fill="#1D3557"/>
<path d="M193.14 299.108C206.94 303.508 219.94 310.108 231.54 318.508C234.14 320.508 236.74 322.508 239.14 324.508C235.74 307.108 230.94 290.108 224.54 273.508C224.14 272.308 225.94 271.708 226.34 272.708C233.14 290.108 238.14 308.308 241.54 326.708C241.74 327.508 240.54 328.108 239.94 327.508C229.14 317.908 216.94 310.308 203.74 304.708C199.94 303.108 196.14 301.708 192.34 300.508C191.14 300.508 191.94 298.908 193.14 299.108Z" fill="#1D3557"/>
<path d="M124.74 328.508C96.5398 332.108 63.7398 350.308 55.5398 381.908C48.7398 359.908 59.3398 334.908 77.5398 319.908C83.7398 317.308 90.1398 315.708 96.7398 315.108C100.54 314.708 100.34 308.708 96.3398 309.108C95.9398 309.108 95.5398 309.108 95.1398 309.308C111.34 302.508 129.54 300.908 147.54 302.908C154.34 305.908 160.74 309.908 166.34 314.908C169.14 317.508 173.14 312.908 170.34 310.508C168.34 308.708 166.34 307.108 164.34 305.708C166.14 306.108 167.94 306.508 169.74 306.908C181.94 310.108 193.94 314.508 205.34 319.908C213.54 327.508 220.54 336.708 227.34 345.508C229.74 348.508 234.74 345.308 232.34 342.308C228.94 337.908 225.34 333.308 221.54 328.708C235.54 337.108 248.54 347.308 259.94 358.908C271.14 370.108 280.14 382.708 289.14 395.708C295.34 404.508 297.94 414.308 295.74 425.308C295.74 425.508 295.74 425.508 295.54 425.708C246.54 379.308 194.14 323.708 124.74 328.508Z" fill="#710FC7"/>
<path d="M124.741 328.508C194.141 323.708 246.341 379.308 295.541 425.308C292.141 440.508 274.341 445.708 260.741 443.108C250.541 441.108 241.541 435.908 232.741 430.108C239.941 429.108 247.141 428.908 254.541 429.108C258.341 429.308 257.941 423.308 254.141 423.108C244.541 422.908 235.141 423.308 225.541 425.108C216.141 418.508 207.141 411.908 197.941 405.108C202.541 404.708 207.141 404.508 211.741 404.508C215.541 404.508 215.341 398.508 211.341 398.508C204.541 398.508 197.541 398.908 190.541 399.908C182.741 394.508 174.941 389.108 166.741 384.308C155.541 377.508 143.541 371.708 131.341 367.308C137.341 364.708 143.541 362.708 149.941 361.108C153.741 360.108 151.741 354.508 148.141 355.508C139.341 357.708 131.141 360.908 123.141 364.908C113.741 362.308 104.341 360.708 94.5406 360.508C94.1406 360.508 93.5406 360.508 93.1406 360.508C94.1406 359.908 94.9406 359.108 95.9406 358.508C97.3406 357.508 97.7406 355.708 96.7406 354.308C95.9406 352.908 93.9406 352.508 92.5406 353.508C89.1406 355.908 85.7406 358.508 82.5406 361.308C78.1406 361.908 73.9406 363.308 69.9406 365.308C62.5406 369.308 56.5406 376.708 56.3406 385.108C55.9406 383.908 55.5406 382.908 55.1406 381.708C63.9406 350.508 96.5406 332.108 124.741 328.508Z" fill="#9947E1"/>
<path d="M97.7391 337.508C109.339 329.108 123.739 325.708 137.939 325.908C153.939 326.308 169.339 331.508 183.539 338.708C199.339 346.708 214.139 356.708 228.539 366.908C243.739 377.708 258.339 389.108 272.539 401.108C286.739 413.108 300.139 425.708 313.139 438.908C314.739 440.508 316.339 442.108 317.939 443.908C318.739 444.708 317.339 445.708 316.739 444.908C303.939 431.708 290.739 418.908 276.739 406.908C262.939 394.908 248.739 383.708 233.939 372.908C219.739 362.508 204.939 352.508 189.539 343.908C175.539 336.108 160.139 329.708 143.939 327.908C129.939 326.508 115.139 328.508 102.939 335.708C101.339 336.708 99.9391 337.708 98.3391 338.708C97.9391 339.308 96.9391 338.108 97.7391 337.508Z" fill="#1D3557"/>
<path d="M115.54 341.108C122.14 334.508 130.34 329.708 139.14 326.908C131.14 323.508 122.94 319.908 114.94 316.508C113.94 316.108 114.54 314.508 115.54 314.908C124.34 318.708 132.94 322.308 141.74 326.108C142.54 326.508 142.34 327.508 141.54 327.708C132.14 330.308 123.54 335.308 116.54 342.108C115.74 343.108 114.74 341.908 115.54 341.108Z" fill="#1D3557"/>
<path d="M171.34 355.708C184.54 355.308 197.74 356.508 210.74 359.308C213.54 359.908 216.34 360.508 219.14 361.308C211.34 351.308 202.54 342.308 192.74 334.308C189.74 331.908 186.74 329.708 183.74 327.508C182.94 326.908 183.74 325.708 184.74 326.108C195.74 333.908 205.74 342.908 214.54 353.108C217.14 356.108 219.54 359.108 221.74 362.108C222.14 362.708 221.54 363.508 220.94 363.308C208.34 359.908 195.34 357.708 182.34 357.308C178.54 357.108 174.94 357.108 171.14 357.308C170.14 357.308 170.34 355.708 171.34 355.708Z" fill="#1D3557"/>
<path d="M230.34 394.308C242.54 394.308 254.74 396.508 266.34 400.508C268.94 401.308 271.54 402.508 273.94 403.508C266.94 390.308 258.74 377.708 249.54 365.908C248.94 365.108 250.14 364.108 250.74 364.908C260.54 377.308 269.14 390.708 276.54 404.708C276.94 405.308 276.14 406.108 275.54 405.708C264.54 400.708 252.54 397.508 240.54 396.308C237.14 395.908 233.74 395.708 230.34 395.708C229.14 395.708 229.34 394.308 230.34 394.308Z" fill="#1D3557"/>
<path d="M148.14 119.308C120.54 112.508 83.3398 118.108 64.3398 144.308C65.9398 121.308 84.7398 101.708 106.94 94.1084C113.54 93.9084 120.14 94.7084 126.54 96.5084C130.34 97.5084 132.14 91.9084 128.34 90.7084C127.94 90.5084 127.54 90.5084 127.34 90.5084C144.94 89.9084 162.54 95.1084 178.54 103.308C183.74 108.508 188.34 114.508 191.74 121.308C193.54 124.708 198.94 121.908 197.14 118.508C195.94 116.308 194.54 113.908 193.14 111.908C194.74 112.908 196.14 113.908 197.74 114.908C208.14 122.108 217.54 130.508 226.34 139.708C231.34 149.708 234.54 160.908 237.74 171.508C238.94 175.108 244.74 173.908 243.54 170.308C241.94 164.908 240.34 159.308 238.34 153.908C248.34 166.708 256.94 180.908 263.54 195.708C269.94 210.108 273.94 225.108 277.74 240.508C280.34 251.108 279.34 260.908 273.34 270.308C273.34 270.508 273.14 270.508 273.14 270.708C243.74 210.108 214.74 139.508 148.14 119.308Z" fill="#710FC7"/>
<path d="M148.14 119.308C214.74 139.508 243.74 210.108 273.14 270.708C264.54 283.708 246.14 282.108 234.14 274.908C225.34 269.508 218.74 261.308 212.74 252.708C219.74 254.508 226.74 256.908 233.34 259.508C236.94 260.908 238.74 255.308 235.14 253.708C226.34 250.108 217.14 247.108 207.74 245.308C201.34 235.908 195.34 226.308 189.14 216.708C193.54 217.908 197.94 219.508 202.34 221.108C205.94 222.508 207.74 216.708 204.14 215.308C197.74 212.908 191.14 210.708 184.34 209.308C179.14 201.508 173.54 193.708 167.74 186.108C159.74 175.908 150.74 166.108 140.54 157.708C147.14 157.508 153.54 157.708 160.14 158.508C163.94 158.908 164.34 153.108 160.54 152.508C151.54 151.308 142.74 151.508 133.94 152.308C126.14 146.508 117.74 141.708 108.74 138.108C108.34 137.908 107.74 137.708 107.34 137.508C108.34 137.108 109.54 136.908 110.54 136.708C112.14 136.308 113.14 134.908 112.94 133.108C112.54 131.508 110.94 130.308 109.34 130.708C105.34 131.708 101.14 132.908 97.3398 134.508C92.9398 133.508 88.5398 133.308 84.1398 133.708C75.7398 134.708 67.5398 139.708 64.3398 147.508C64.3398 146.308 64.3398 145.108 64.5398 143.908C83.5398 118.108 120.54 112.708 148.14 119.308Z" fill="#9947E1"/>
<path d="M119.74 118.109C133.54 114.309 148.34 116.309 161.34 121.709C176.14 127.709 188.74 138.109 199.34 149.909C211.34 162.909 221.54 177.709 231.34 192.309C241.74 207.709 251.34 223.709 260.34 239.909C269.14 256.109 277.34 272.709 284.74 289.709C285.74 291.909 286.54 293.909 287.54 296.109C287.94 297.109 286.34 297.509 285.94 296.709C278.74 279.709 270.94 263.109 262.14 246.909C253.54 230.909 244.34 215.109 234.34 199.909C224.74 185.109 214.54 170.509 203.34 156.909C192.94 144.509 180.94 133.109 166.54 125.709C153.94 119.309 139.34 116.109 125.34 118.309C123.54 118.509 121.74 118.909 119.94 119.509C119.14 119.909 118.74 118.309 119.74 118.109Z" fill="#1D3557"/>
<path d="M134.939 127.708C143.539 123.908 152.739 122.308 162.139 122.908C155.939 116.908 149.539 110.708 143.339 104.708C142.539 103.908 143.739 102.708 144.339 103.508C151.139 110.108 157.939 116.708 164.739 123.308C165.339 123.908 164.739 124.708 164.139 124.708C154.339 123.708 144.539 125.308 135.539 129.308C134.539 129.708 134.139 128.108 134.939 127.708Z" fill="#1D3557"/>
<path d="M181.94 161.308C194.34 165.708 206.34 171.508 217.34 178.708C219.74 180.308 222.14 181.908 224.54 183.708C220.94 171.708 215.94 160.108 209.54 149.108C207.54 145.908 205.54 142.508 203.54 139.508C202.94 138.708 204.34 137.708 204.94 138.708C212.54 149.908 218.54 161.908 223.14 174.508C224.54 178.108 225.74 181.708 226.74 185.508C226.94 186.308 226.14 186.908 225.54 186.308C214.94 178.508 203.54 172.108 191.54 166.908C188.14 165.508 184.74 164.108 181.14 162.908C180.34 162.508 180.94 160.908 181.94 161.308Z" fill="#1D3557"/>
<path d="M223.34 218.308C234.74 222.708 245.34 229.108 254.74 236.908C256.74 238.708 258.94 240.508 260.74 242.508C258.94 227.708 255.74 212.908 251.34 198.708C250.94 197.708 252.54 197.308 252.94 198.108C257.54 213.308 260.94 228.708 262.74 244.508C262.74 245.108 261.94 245.708 261.34 245.108C252.74 236.508 242.94 229.308 231.94 223.908C228.94 222.308 225.74 220.908 222.54 219.708C221.54 219.308 222.34 217.908 223.34 218.308Z" fill="#1D3557"/>
<path d="M438.187 169.218C465.187 156.618 496.787 150.218 524.987 159.818C553.187 169.618 575.787 199.018 570.187 228.418C568.187 219.818 560.587 213.218 552.187 210.418C543.787 207.818 534.587 208.418 525.987 210.218C499.587 215.618 475.987 231.018 455.987 248.818C435.787 266.818 418.387 287.418 399.187 306.618C390.787 315.018 381.587 323.418 370.587 327.618C356.787 333.018 337.187 331.018 330.987 315.618C326.587 304.818 327.387 294.218 331.987 283.818C338.787 268.618 345.787 253.818 355.187 240.218C364.987 225.818 376.587 212.618 389.787 201.018C403.987 188.418 420.387 177.418 438.187 169.218Z" fill="#9947E1"/>
<path d="M499.788 209.018C451.588 235.818 415.588 271.618 373.788 309.618C358.788 322.018 343.588 321.618 330.188 314.618C330.388 315.018 330.587 315.418 330.587 315.818C336.987 331.218 356.588 333.218 370.188 327.818C381.388 323.418 390.388 315.218 398.788 306.818C417.788 287.818 435.388 267.018 455.588 249.018C475.788 231.018 499.188 215.818 525.588 210.418C534.188 208.618 543.388 208.018 551.788 210.618C560.188 213.218 567.788 219.818 569.788 228.618C570.388 225.818 570.588 222.818 570.588 220.018C556.788 196.218 522.988 194.818 499.788 209.018Z" fill="#710FC7"/>
<path d="M518.187 187.017C504.587 180.617 488.987 179.817 474.387 182.817C457.987 186.217 442.987 194.617 429.787 204.817C414.987 216.217 401.587 229.417 388.787 242.817C375.187 256.817 362.187 271.417 349.787 286.617C337.587 301.817 325.987 317.417 315.187 333.617C313.787 335.617 312.587 337.617 311.187 339.617C310.587 340.617 311.987 341.417 312.587 340.417C323.187 324.217 334.387 308.617 346.387 293.417C358.187 278.417 370.787 263.817 383.987 250.017C396.787 236.617 409.987 223.217 424.187 211.417C437.187 200.617 451.787 191.017 468.187 186.217C482.387 182.017 497.987 181.217 512.187 186.417C513.987 187.017 515.787 187.817 517.387 188.617C518.387 189.017 519.187 187.617 518.187 187.017Z" fill="#1D3557"/>
<path d="M500.588 194.218C492.388 188.818 483.188 185.418 473.388 184.218C480.988 179.018 488.788 174.018 496.388 168.818C497.188 168.218 496.388 166.818 495.588 167.418C487.388 173.018 478.988 178.618 470.788 184.018C469.988 184.418 470.388 185.418 471.188 185.618C481.388 186.418 491.388 190.018 499.788 195.818C500.588 196.418 501.388 194.818 500.588 194.218Z" fill="#1D3557"/>
<path d="M445.788 220.218C432.188 222.418 418.588 226.218 405.788 231.618C402.988 232.818 400.188 234.018 397.388 235.418C403.388 223.618 410.788 212.618 419.388 202.418C421.988 199.418 424.588 196.418 427.388 193.618C428.188 192.818 426.988 191.618 426.188 192.418C416.388 202.618 407.588 213.818 400.588 226.018C398.588 229.618 396.588 233.018 394.788 236.818C394.388 237.618 395.188 238.218 395.988 238.018C408.388 232.018 421.388 227.418 434.788 224.218C438.588 223.418 442.388 222.618 446.188 222.018C447.188 221.618 446.788 220.018 445.788 220.218Z" fill="#1D3557"/>
<path d="M392.188 271.418C379.588 273.818 367.388 278.418 356.188 284.818C353.588 286.218 351.188 287.818 348.788 289.418C353.588 274.418 359.588 259.818 366.788 245.818C367.388 244.818 365.788 244.018 365.388 245.018C357.588 259.818 351.388 275.218 346.588 291.218C346.388 291.818 347.188 292.618 347.788 292.218C358.188 284.818 369.988 279.218 382.188 275.818C385.588 274.818 389.188 274.018 392.588 273.218C393.788 272.818 393.388 271.218 392.188 271.418Z" fill="#1D3557"/>
<path d="M449.588 304.218C474.188 310.218 501.188 329.818 505.388 358.418C513.588 339.618 506.788 316.418 492.188 301.418C486.988 298.618 481.588 296.418 475.588 295.218C472.188 294.618 473.188 289.218 476.388 290.018C476.788 290.018 476.988 290.218 477.388 290.218C463.788 282.618 447.788 279.418 431.788 279.218C425.588 281.218 419.388 284.218 413.988 288.018C411.188 290.018 408.188 285.618 410.988 283.618C412.788 282.218 414.788 281.018 416.788 280.018C415.188 280.218 413.588 280.418 411.988 280.618C400.788 282.218 389.788 284.818 379.188 288.418C371.188 294.418 363.988 301.818 357.188 308.818C354.788 311.218 350.588 307.818 352.988 305.418C356.588 301.818 359.988 298.018 363.788 294.618C350.588 300.618 338.188 308.218 326.788 317.418C315.788 326.218 306.588 336.418 297.188 347.018C290.788 354.218 287.588 362.618 288.388 372.418C288.388 372.618 288.388 372.618 288.388 372.818C336.988 336.818 388.788 293.018 449.588 304.218Z" fill="#710FC7"/>
<path d="M449.589 304.218C388.789 293.018 336.789 336.818 288.789 372.618C290.389 386.418 305.389 392.818 317.789 391.818C326.989 391.218 335.589 387.418 343.789 383.218C337.589 381.618 331.189 380.818 324.589 380.218C321.189 380.018 321.989 374.618 325.389 375.018C333.789 375.818 342.189 377.218 350.389 379.618C359.189 374.818 367.989 369.818 376.789 364.818C372.789 364.018 368.589 363.418 364.589 362.818C361.189 362.418 361.989 357.218 365.389 357.618C371.389 358.418 377.589 359.418 383.589 361.018C390.989 357.018 398.389 353.018 406.189 349.618C416.789 344.818 427.989 340.818 439.189 338.218C434.189 335.218 428.789 332.818 423.389 330.818C420.189 329.618 422.389 324.818 425.589 326.018C433.189 328.818 440.189 332.618 446.789 336.818C455.389 335.418 463.989 335.018 472.589 335.818C472.989 335.818 473.389 335.818 473.789 336.018C472.989 335.418 472.389 334.618 471.589 334.018C470.589 333.018 470.189 331.418 471.189 330.218C471.989 329.218 473.789 328.818 474.989 329.818C477.789 332.418 480.389 335.018 482.989 337.618C486.789 338.618 490.389 340.218 493.789 342.418C499.989 346.618 504.389 353.818 503.789 361.418C504.389 360.418 504.789 359.418 505.189 358.618C501.389 329.818 474.189 310.218 449.589 304.218Z" fill="#9947E1"/>
<path d="M472.588 315.018C463.188 306.418 450.788 301.818 438.188 300.618C423.988 299.218 409.788 302.418 396.588 307.218C381.788 312.618 367.788 320.018 353.788 327.618C339.188 335.618 325.188 344.218 311.388 353.418C297.788 362.618 284.388 372.418 271.588 382.818C269.988 384.018 268.388 385.418 266.788 386.618C265.988 387.218 266.988 388.218 267.788 387.618C280.388 377.218 293.388 367.418 306.988 358.018C320.388 348.818 334.188 340.218 348.188 332.218C361.788 324.418 375.788 317.018 390.388 311.018C403.588 305.418 417.788 301.418 432.188 301.618C444.788 301.818 457.588 305.018 467.788 312.618C468.988 313.618 470.388 314.618 471.588 315.818C472.388 316.618 473.388 315.618 472.588 315.018Z" fill="#1D3557"/>
<path d="M456.589 316.218C451.389 309.818 444.789 304.618 437.189 301.218C444.589 299.018 452.189 296.818 459.589 294.418C460.389 294.218 460.189 292.818 459.189 293.018C451.189 295.418 442.989 297.818 434.989 300.218C434.189 300.418 434.389 301.418 434.989 301.618C442.989 304.818 450.189 310.218 455.589 317.018C456.189 318.018 457.189 317.018 456.589 316.218Z" fill="#1D3557"/>
<path d="M405.789 323.618C394.189 322.018 382.389 321.618 370.589 322.818C367.989 323.018 365.389 323.418 362.789 323.818C370.589 315.818 379.389 308.618 388.789 302.618C391.589 300.818 394.589 299.018 397.589 297.418C398.389 297.018 397.789 295.818 396.989 296.218C386.389 302.018 376.589 309.018 367.789 317.018C365.189 319.418 362.789 321.818 360.389 324.218C359.789 324.818 360.389 325.618 360.989 325.418C372.389 323.618 384.189 323.218 395.789 324.018C398.989 324.218 402.389 324.618 405.589 325.018C406.589 325.218 406.589 323.818 405.789 323.618Z" fill="#1D3557"/>
<path d="M349.789 351.618C338.989 350.418 327.989 351.018 317.389 353.418C314.989 354.018 312.589 354.618 310.389 355.218C317.989 344.218 326.389 334.018 335.789 324.418C336.389 323.818 335.389 322.818 334.789 323.418C324.789 333.418 315.789 344.418 307.989 356.018C307.589 356.418 308.189 357.218 308.789 357.018C319.189 353.618 329.989 352.018 340.789 352.218C343.789 352.218 346.789 352.418 349.989 352.818C350.589 353.218 350.589 351.818 349.789 351.618Z" fill="#1D3557"/>
<path d="M450.188 116.818C475.188 113.618 507.588 122.218 521.788 147.418C522.788 126.818 508.188 107.818 489.188 98.8178C483.388 98.0178 477.388 98.0178 471.588 99.0178C468.188 99.6178 467.188 94.4178 470.588 93.8178C470.988 93.8178 471.188 93.8178 471.588 93.6178C455.988 91.2178 439.988 94.0178 424.988 99.6178C419.788 103.818 415.188 108.618 411.588 114.018C409.588 116.818 405.188 113.818 407.188 111.018C408.388 109.018 409.788 107.218 411.388 105.418C409.988 106.218 408.388 106.818 406.988 107.618C397.188 113.018 387.788 119.418 379.188 126.618C373.788 135.018 369.788 144.618 365.788 153.418C364.388 156.618 359.388 154.818 360.788 151.818C362.788 147.218 364.788 142.418 366.988 137.818C356.788 148.218 347.788 159.818 340.588 172.218C333.388 184.418 328.388 197.218 323.388 210.418C319.988 219.418 319.988 228.418 324.388 237.218C324.388 237.418 324.588 237.418 324.588 237.618C356.588 187.418 389.388 128.018 450.188 116.818Z" fill="#710FC7"/>
<path d="M450.189 116.818C389.389 128.018 356.389 187.418 324.389 238.018C330.789 250.218 347.189 250.818 358.389 245.618C366.789 241.618 373.389 235.218 379.589 228.218C373.189 229.018 366.789 230.418 360.589 232.218C357.189 233.218 356.189 228.018 359.589 227.018C367.789 224.618 376.189 223.018 384.589 222.418C391.189 214.818 397.589 206.818 403.989 199.018C399.989 199.618 395.789 200.618 391.789 201.618C388.389 202.418 387.389 197.218 390.789 196.418C396.789 195.018 402.789 193.818 408.989 193.018C414.389 186.618 419.989 180.218 425.989 174.218C434.189 166.018 443.189 158.218 452.789 151.818C446.989 150.818 441.189 150.418 435.389 150.618C431.989 150.618 432.389 145.418 435.789 145.218C443.789 145.018 451.589 146.018 459.389 147.818C466.789 143.618 474.789 140.018 482.989 137.818C483.389 137.618 483.789 137.618 484.189 137.418C483.189 137.018 482.389 136.618 481.389 136.218C479.989 135.618 479.189 134.218 479.789 132.818C480.189 131.418 481.789 130.618 483.189 131.218C486.589 132.618 490.189 134.018 493.589 135.818C497.589 135.418 501.389 135.618 505.389 136.618C512.589 138.418 519.389 143.618 521.589 150.818C521.789 149.818 521.789 148.618 521.789 147.618C507.589 122.218 475.189 113.818 450.189 116.818Z" fill="#9947E1"/>
<path d="M475.588 118.618C463.788 113.818 450.588 114.218 438.388 117.618C424.588 121.418 412.588 129.418 401.788 138.618C389.988 149.018 379.388 161.018 369.188 173.018C358.388 185.618 348.388 198.618 338.788 212.218C329.188 225.618 320.388 239.618 312.188 253.818C311.188 255.618 310.188 257.418 309.188 259.218C308.788 260.018 309.988 260.618 310.388 259.818C318.388 245.618 327.188 231.618 336.388 218.218C345.588 204.818 355.388 192.018 365.788 179.418C375.788 167.418 386.188 155.418 397.588 144.618C407.988 134.818 419.788 125.818 433.388 120.818C445.188 116.418 458.388 115.018 470.588 118.418C472.188 118.818 473.588 119.418 475.188 120.018C475.788 120.218 476.388 119.018 475.588 118.618Z" fill="#1D3557"/>
<path d="M460.989 125.618C453.789 121.418 445.789 119.018 437.589 118.618C443.789 113.818 449.989 109.018 456.189 104.418C456.989 103.818 456.189 102.618 455.389 103.218C448.789 108.418 441.989 113.618 435.389 118.618C434.789 119.018 435.189 119.818 435.789 119.818C444.589 120.018 452.989 122.418 460.589 126.818C461.189 127.418 461.789 126.018 460.989 125.618Z" fill="#1D3557"/>
<path d="M415.988 150.618C404.588 153.218 393.388 157.218 382.788 162.418C380.388 163.618 378.188 164.818 375.988 166.018C380.388 155.818 385.988 146.018 392.788 137.018C394.788 134.218 396.988 131.618 399.188 129.018C399.788 128.418 398.788 127.418 398.188 128.018C390.388 137.218 383.788 147.218 378.388 157.818C376.788 160.818 375.388 164.018 374.188 167.218C373.988 167.818 374.588 168.418 375.188 168.018C385.188 162.218 395.988 157.618 407.188 154.218C410.388 153.218 413.588 152.418 416.788 151.618C417.388 151.818 416.988 150.418 415.988 150.618Z" fill="#1D3557"/>
<path d="M373.789 196.818C363.189 199.618 353.189 204.018 344.189 210.018C342.189 211.418 340.189 212.818 338.189 214.218C341.389 201.218 345.589 188.618 350.989 176.418C351.389 175.618 349.989 175.018 349.789 175.818C344.189 188.818 339.589 202.218 336.389 215.818C336.189 216.418 336.989 216.818 337.589 216.618C345.989 209.818 355.589 204.418 365.789 200.818C368.589 199.818 371.589 198.818 374.589 198.018C375.189 197.818 374.589 196.618 373.789 196.818Z" fill="#1D3557"/>
<path opacity="0.29" d="M292.809 474.943C406.579 474.943 498.809 467.332 498.809 457.943C498.809 448.554 406.579 440.943 292.809 440.943C179.038 440.943 86.8086 448.554 86.8086 457.943C86.8086 467.332 179.038 474.943 292.809 474.943Z" fill="#477C9E"/>
<path d="M253.208 28.3431C241.208 39.1431 234.608 54.7431 239.008 71.1431C242.008 82.1431 249.008 93.7431 244.008 103.943C239.808 112.743 228.808 115.343 220.808 121.143C212.208 127.343 207.208 138.143 207.808 148.543C208.408 159.143 214.608 169.143 223.808 174.343C229.208 177.343 235.608 178.943 239.808 183.743C244.608 189.143 244.808 197.143 246.208 204.343C251.008 227.543 273.808 245.543 297.408 244.543C307.408 244.143 318.008 240.143 322.608 231.343C326.208 224.943 326.008 216.543 330.408 210.743C336.608 202.743 348.408 202.543 358.008 199.143C369.408 194.943 378.408 184.943 381.208 173.143C384.008 161.343 380.608 148.343 372.408 139.543C367.208 133.943 360.208 129.943 355.208 124.143C348.808 116.543 346.008 106.543 345.408 96.7431C344.808 86.9431 346.208 76.9431 346.808 67.1431C347.808 51.5431 347.008 31.3431 333.208 20.9431C312.208 4.94308 279.208 10.1431 258.608 24.1431C256.808 25.3431 255.008 26.7431 253.208 28.3431Z" fill="#6E4493"/>
<path d="M256.008 35.1433C244.808 45.1433 238.608 59.7433 242.608 74.9433C245.408 85.1433 252.008 95.9433 247.408 105.543C243.408 113.743 233.208 116.143 225.808 121.543C217.808 127.343 213.208 137.343 213.808 147.143C214.408 156.943 220.208 166.343 228.808 171.143C233.808 173.943 239.808 175.543 243.608 179.743C248.008 184.743 248.208 192.143 249.608 198.943C254.008 220.543 275.408 237.343 297.408 236.543C306.608 236.143 316.608 232.343 321.008 224.343C324.208 218.343 324.208 210.543 328.408 205.143C334.208 197.743 345.208 197.543 354.008 194.343C364.608 190.543 373.008 181.143 375.608 170.143C378.208 159.143 375.008 146.943 367.408 138.743C362.608 133.543 356.008 129.943 351.408 124.343C345.408 117.343 342.808 107.943 342.408 98.7433C341.808 89.5433 343.208 80.3433 343.808 71.1433C344.808 56.5433 343.808 37.7433 331.208 28.1433C311.608 13.3433 281.008 17.9433 261.608 31.1433C259.408 32.3433 257.608 33.7433 256.008 35.1433Z" fill="#2A123F"/>
<path d="M254.009 196.343L223.809 233.143L214.209 244.743L176.209 291.143L162.809 259.743L173.609 242.743L197.809 204.743L198.609 203.343L226.409 159.543L252.009 193.743L254.009 196.343Z" fill="#F9B49D"/>
<path d="M254.007 196.343L223.807 233.143L214.207 244.943C205.207 233.143 199.407 218.743 197.607 204.943L198.607 203.543L226.207 159.743L252.007 194.143L254.007 196.343Z" fill="#F58967"/>
<path d="M254.007 196.343L223.807 233.143C220.807 231.543 217.807 228.943 214.607 225.543C208.807 219.343 203.207 210.743 198.607 203.343L226.207 159.543L252.007 193.943L254.007 196.343Z" fill="#8C23E8"/>
<path d="M214.809 225.543C217.809 228.943 221.009 231.543 224.009 233.143L254.209 196.343L252.209 193.743C238.209 203.143 225.209 213.343 214.809 225.543Z" fill="#6A17B3"/>
<path d="M176.809 253.943C167.809 221.343 154.209 190.543 136.609 163.143C133.209 166.143 128.609 167.343 125.209 170.343C130.809 200.943 136.409 230.943 142.009 261.543C143.409 269.343 145.009 277.543 148.809 284.343C151.809 289.743 156.209 293.943 161.409 295.743C166.609 297.343 172.609 295.943 176.409 291.343C180.009 287.143 181.009 280.743 180.609 274.943C180.209 268.743 178.409 259.743 176.809 253.943Z" fill="#F9B49D"/>
<path d="M138.207 164.343C136.207 160.743 133.407 157.543 130.007 154.943C125.807 154.543 119.807 154.143 115.607 153.743C112.607 154.743 109.607 156.143 106.407 157.343C105.807 157.543 105.607 158.543 106.007 158.943C109.407 161.943 112.207 161.543 116.807 159.143C124.007 161.543 122.807 167.543 126.807 168.743C131.207 169.743 136.007 167.743 138.207 164.343Z" fill="#F9B49D"/>
<path d="M122.208 166.743C117.408 167.543 112.808 168.343 108.008 168.943C104.808 167.543 99.6078 166.343 96.4078 164.943C99.0078 163.543 102.808 160.943 104.608 158.743C105.008 158.143 104.608 157.343 103.808 157.343C99.6078 157.943 95.6078 158.943 91.8078 160.743C91.0078 161.143 90.4078 161.943 90.2078 162.943C90.0078 164.743 90.0078 166.343 90.0078 167.943C90.0078 168.943 90.4078 169.943 91.2078 170.543C94.2078 172.543 98.4078 173.743 101.608 174.543C108.408 176.143 114.808 176.343 121.808 175.143V166.743H122.208Z" fill="#F9B49D"/>
<path d="M98.0082 177.343C96.4082 174.143 96.0082 170.143 96.8082 166.943C99.8082 164.943 134.808 159.743 136.408 161.343C137.808 162.743 142.408 170.543 141.808 172.543C141.008 175.143 141.208 177.943 139.008 178.943C131.608 181.943 116.808 185.343 108.808 186.343C103.208 186.743 100.608 182.743 98.0082 177.343Z" fill="#F9B49D"/>
<path d="M111.208 168.343C104.208 169.343 97.4081 170.343 90.4081 171.343C85.6081 169.543 80.4081 168.343 75.0081 168.343C74.0081 168.343 72.6081 168.543 72.2081 169.143C71.8081 169.743 72.0081 170.343 72.6081 170.943C73.0081 171.343 73.8081 171.743 74.4081 172.143C78.0081 173.743 85.6081 175.343 89.2081 176.943C97.6081 176.343 102.208 176.943 110.008 174.743C111.208 174.343 112.408 173.943 113.408 173.143C114.408 172.343 114.808 171.343 114.608 170.343C114.408 169.543 112.608 168.143 111.208 168.343Z" fill="#F9B49D"/>
<path d="M114.407 173.543C107.407 174.543 100.607 175.543 93.6073 176.543C88.8073 174.743 83.6073 173.543 78.2073 173.543C77.2073 173.543 75.8073 173.743 75.4073 174.343C75.0073 174.943 75.2073 175.543 75.8073 176.143C76.4073 176.743 77.0073 176.943 77.6073 177.343C81.2073 178.943 88.8073 180.543 92.4073 182.143C100.807 181.543 105.407 182.143 113.207 179.943C114.407 179.543 115.607 179.143 116.607 178.343C117.607 177.543 118.007 176.543 117.807 175.543C117.407 174.743 115.607 173.343 114.407 173.543Z" fill="#F9B49D"/>
<path d="M120.208 177.943C113.208 178.943 106.408 179.943 99.4081 180.943C94.6081 179.143 89.4081 177.943 84.0081 177.943C83.0081 177.943 81.6081 178.143 81.2081 178.743C80.8081 179.343 81.0081 179.943 81.6081 180.543C82.0081 180.943 82.8081 181.343 83.4081 181.743C87.0081 183.343 94.6081 184.943 98.2081 186.543C106.608 185.943 111.208 186.543 119.008 184.343C120.208 183.943 121.408 183.543 122.408 182.743C123.408 181.943 123.808 180.943 123.608 179.943C123.408 178.943 121.608 177.743 120.208 177.943Z" fill="#F9B49D"/>
<path d="M135.008 168.143C128.408 170.143 121.208 168.943 115.608 164.943C114.808 164.343 114.008 165.543 114.808 166.143C120.808 170.343 128.408 171.543 135.408 169.543C136.208 169.143 135.808 167.743 135.008 168.143Z" fill="#F58967"/>
<path d="M417.007 259.743L353.407 159.543L325.807 196.343L403.607 291.143L417.007 259.743Z" fill="#F9B49D"/>
<path d="M353.407 159.543L382.007 204.743C380.407 218.543 374.407 232.943 365.407 244.743L325.607 196.343L353.407 159.543Z" fill="#F58967"/>
<path d="M353.407 159.543L327.607 193.943L325.607 196.543L355.807 233.343C358.807 231.743 361.807 229.143 365.007 225.743C370.807 219.543 376.407 210.943 381.007 203.543L353.407 159.543Z" fill="#8C23E8"/>
<path d="M365.007 225.543C362.007 228.943 358.807 231.543 355.807 233.143L325.607 196.343L327.607 193.743C341.607 203.143 354.607 213.343 365.007 225.543Z" fill="#6A17B3"/>
<path d="M403.007 253.943C412.007 221.343 425.608 190.543 443.208 163.143C446.608 166.143 451.207 167.343 454.607 170.343C449.007 200.943 443.407 230.943 437.807 261.543C436.407 269.343 434.807 277.543 431.007 284.343C428.007 289.743 423.607 293.943 418.407 295.743C413.207 297.343 407.207 295.943 403.407 291.343C399.807 287.143 398.808 280.743 399.208 274.943C399.608 268.743 401.407 259.743 403.007 253.943Z" fill="#F9B49D"/>
<path d="M441.607 164.343C443.607 160.743 446.407 157.543 449.807 154.943C454.007 154.543 460.007 154.143 464.207 153.743C467.207 154.743 470.207 156.143 473.407 157.343C474.007 157.543 474.207 158.543 473.807 158.943C470.407 161.943 467.607 161.543 463.007 159.143C455.807 161.543 457.007 167.543 453.007 168.743C448.807 169.743 443.807 167.743 441.607 164.343Z" fill="#F9B49D"/>
<path d="M457.607 166.743C462.407 167.543 467.007 168.343 471.807 168.943C475.007 167.543 480.207 166.343 483.407 164.943C480.807 163.543 477.007 160.943 475.207 158.743C474.807 158.143 475.207 157.343 476.007 157.343C480.207 157.943 484.207 158.943 488.007 160.743C488.807 161.143 489.407 161.943 489.607 162.943C489.807 164.743 489.807 166.343 489.807 167.943C489.807 168.943 489.407 169.943 488.607 170.543C485.607 172.543 481.407 173.743 478.207 174.543C471.407 176.143 465.007 176.343 458.007 175.143V166.743H457.607Z" fill="#F9B49D"/>
<path d="M481.807 177.343C483.407 174.143 483.807 170.143 483.007 166.943C480.007 164.943 445.007 159.743 443.407 161.343C442.007 162.743 437.407 170.543 438.007 172.543C438.807 175.143 438.607 177.943 440.807 178.943C448.207 181.943 463.007 185.343 471.007 186.343C476.607 186.743 479.207 182.743 481.807 177.343Z" fill="#F9B49D"/>
<path d="M468.606 168.343C475.606 169.343 482.406 170.343 489.406 171.343C494.206 169.543 499.406 168.343 504.806 168.343C505.806 168.343 507.206 168.543 507.606 169.143C508.006 169.743 507.806 170.343 507.206 170.943C506.806 171.343 506.006 171.743 505.406 172.143C501.806 173.743 494.206 175.343 490.606 176.943C482.206 176.343 477.606 176.943 469.806 174.743C468.606 174.343 467.406 173.943 466.406 173.143C465.406 172.343 465.006 171.343 465.206 170.343C465.406 169.543 467.206 168.143 468.606 168.343Z" fill="#F9B49D"/>
<path d="M465.407 173.543C472.407 174.543 479.207 175.543 486.207 176.543C491.007 174.743 496.207 173.543 501.607 173.543C502.607 173.543 504.007 173.743 504.407 174.343C504.807 174.943 504.607 175.543 504.007 176.143C503.607 176.543 502.807 176.943 502.207 177.343C498.607 178.943 491.007 180.543 487.407 182.143C479.007 181.543 474.407 182.143 466.607 179.943C465.407 179.543 464.207 179.143 463.207 178.343C462.207 177.543 461.807 176.543 462.007 175.543C462.407 174.743 464.207 173.343 465.407 173.543Z" fill="#F9B49D"/>
<path d="M459.606 177.943C466.606 178.943 473.406 179.943 480.406 180.943C485.206 179.143 490.406 177.943 495.806 177.943C496.806 177.943 498.206 178.143 498.606 178.743C499.006 179.343 498.806 179.943 498.206 180.543C497.806 180.943 497.006 181.343 496.406 181.743C492.806 183.343 485.206 184.943 481.606 186.543C473.206 185.943 468.606 186.543 460.806 184.343C459.606 183.943 458.406 183.543 457.406 182.743C456.406 181.943 456.006 180.943 456.206 179.943C456.406 178.943 458.206 177.743 459.606 177.943Z" fill="#F9B49D"/>
<path d="M444.807 168.143C451.407 170.143 458.607 168.943 464.207 164.943C465.007 164.343 465.807 165.543 465.007 166.143C459.007 170.343 451.407 171.543 444.407 169.543C443.607 169.143 444.007 167.743 444.807 168.143Z" fill="#F58967"/>
<path d="M354.608 316.743C349.808 309.543 344.608 302.743 338.808 296.543C330.008 295.943 262.808 296.143 254.808 296.543C247.008 304.943 240.008 314.543 234.008 324.743C274.208 331.343 315.808 328.943 354.608 316.743Z" fill="#F9B49D"/>
<path d="M226.408 159.543C226.408 159.543 284.008 133.543 353.608 159.543L338.808 296.543C303.008 310.943 254.808 296.543 254.808 296.543L226.408 159.543Z" fill="#8C23E8"/>
<path d="M440.409 335.143C438.409 329.743 432.609 326.743 426.809 326.543C421.209 326.343 415.609 328.343 410.409 330.343C396.809 335.943 383.609 342.743 371.009 350.543C367.209 338.943 361.409 327.343 354.609 316.743C315.809 328.943 274.209 331.343 234.209 324.743C229.409 332.943 225.609 341.743 222.609 350.543C210.009 342.743 196.809 335.943 183.209 330.343C178.009 328.143 172.409 326.143 166.809 326.543C161.209 326.743 155.209 329.943 153.209 335.143C150.809 341.943 150.409 349.943 153.409 356.343C156.409 362.743 161.409 368.143 166.209 373.343C182.409 390.343 200.409 406.143 221.009 417.543C241.609 428.943 265.009 435.943 288.409 435.143C288.609 428.743 288.209 428.743 288.409 435.143C312.009 435.943 352.009 428.943 372.609 417.543C393.209 406.143 411.009 390.543 427.409 373.343C432.409 368.143 437.209 362.743 440.209 356.343C443.209 349.943 442.809 341.743 440.409 335.143Z" fill="#8C23E8"/>
<path d="M151.408 344.343C151.208 348.543 151.808 352.543 153.608 356.343C156.608 362.743 161.608 368.143 166.408 373.343C182.608 390.343 200.608 406.143 221.208 417.543C241.808 428.943 265.208 435.943 288.608 435.143C288.808 428.743 288.408 428.743 288.608 435.143C312.208 435.943 352.208 428.943 372.808 417.543C393.408 406.143 411.208 390.543 427.608 373.343C432.608 368.143 437.408 362.743 440.408 356.343C443.408 349.943 443.008 341.943 440.608 335.143C440.008 333.343 438.808 331.743 437.208 330.343C404.208 340.743 374.608 363.543 346.608 386.943C323.808 406.143 290.808 407.943 266.208 391.143C231.008 367.543 190.408 348.543 151.408 344.343Z" fill="#6A17B3"/>
<path d="M282.408 116.743L281.408 142.343C281.208 145.343 279.808 148.143 277.408 150.343C277.208 150.543 276.808 150.943 276.608 151.143C275.608 152.543 275.208 154.543 275.608 156.543C276.008 158.343 292.808 187.343 301.608 179.943C303.008 178.743 311.408 159.343 312.208 157.543C313.008 155.743 313.208 153.543 312.208 151.743C312.008 151.143 311.608 150.743 311.208 150.543C308.808 148.743 307.008 146.343 306.408 143.343C304.808 134.943 304.008 126.543 303.808 117.943L282.408 116.743Z" fill="#F9B49D"/>
<path d="M300.208 134.543C302.008 134.343 303.608 133.543 305.208 132.543C304.608 127.543 304.408 122.543 304.208 117.743L282.408 116.943C282.208 120.343 282.208 123.743 282.008 127.143C287.208 130.943 294.008 135.543 300.208 134.543Z" fill="#F58967"/>
<path d="M269.809 85.3432C268.409 84.7432 267.009 84.1432 265.409 83.9432C263.809 83.7432 262.209 84.3432 261.209 85.5432C260.209 86.9432 260.209 88.9432 261.009 90.5432C262.209 93.5432 265.409 95.5432 268.609 95.5432L269.809 85.3432Z" fill="#F58967"/>
<path d="M318.609 85.3432C320.009 84.7432 321.409 84.1432 323.009 83.9432C324.609 83.7432 326.209 84.3432 327.209 85.5432C328.209 86.9432 328.209 88.9432 327.409 90.5432C326.209 93.5432 323.009 95.5432 319.809 95.5432L318.609 85.3432Z" fill="#F58967"/>
<path d="M294.809 124.943C287.209 125.343 271.009 115.943 269.009 101.143L267.809 92.143L265.209 75.343C265.209 57.943 278.409 45.543 294.609 45.543C296.609 69.343 324.009 58.943 324.009 75.343L320.409 96.743C320.209 97.743 320.209 98.743 320.009 99.743C319.209 115.343 304.209 124.543 294.809 124.943Z" fill="#F9B49D"/>
<path d="M299.608 111.543C296.008 112.543 292.408 112.543 288.808 111.543C288.208 111.343 287.808 112.343 288.408 112.543C292.208 113.543 296.008 113.543 299.808 112.543C300.608 112.543 300.408 111.343 299.608 111.543Z" fill="#F58967"/>
<path d="M284.408 82.9431C281.008 84.1431 277.208 84.1431 273.808 82.7431C273.208 82.5431 272.808 83.5431 273.408 83.7431C277.008 85.1431 281.008 85.3431 284.608 83.9431C285.208 83.9431 285.008 82.7431 284.408 82.9431Z" fill="#1D3557"/>
<path d="M316.209 82.9431C312.809 84.1431 309.009 84.1431 305.609 82.7431C305.009 82.5431 304.609 83.5431 305.209 83.7431C308.809 85.1431 312.809 85.3431 316.409 83.9431C317.209 83.9431 317.009 82.7431 316.209 82.9431Z" fill="#1D3557"/>
<path d="M408.809 333.143C365.609 368.743 312.209 416.343 269.209 451.943C275.809 465.543 274.009 464.143 280.609 477.743C329.609 459.743 390.409 434.543 429.409 399.543C436.409 393.143 443.409 386.543 448.409 378.543C453.409 370.543 456.209 360.743 454.409 351.543C452.609 341.743 445.409 332.943 436.009 329.343C426.609 325.343 416.609 326.743 408.809 333.143Z" fill="#F9B49D"/>
<path d="M269.209 451.743C275.809 465.343 274.009 463.943 280.609 477.543C305.009 468.543 332.409 457.743 358.409 444.943C339.009 441.743 320.609 434.743 305.209 421.343C292.809 432.143 280.609 442.343 269.209 451.743Z" fill="#F58967"/>
<path d="M454.41 351.343C452.61 341.543 445.41 332.743 436.01 329.143C426.61 325.543 416.61 326.943 409.01 333.343C377.41 359.543 340.01 392.143 305.41 421.743C320.81 434.943 339.21 442.143 358.61 445.343C385.01 432.343 410.01 417.343 429.61 399.743C436.61 393.343 443.61 386.743 448.61 378.743C453.21 370.343 456.01 360.543 454.41 351.343Z" fill="#F9B49D"/>
<path d="M270.21 452.543L269.21 451.943L219.61 473.343C217.81 474.143 216.41 474.943 214.81 476.143C205.61 482.943 202.41 495.943 208.21 506.343C215.41 519.143 232.21 522.343 243.41 513.343C244.01 512.943 244.61 512.343 245.21 511.943L280.61 477.743C283.01 467.743 278.81 457.743 270.21 452.543Z" fill="#2A123F"/>
<path d="M184.609 333.143C227.809 368.743 281.209 416.343 324.209 451.943C317.609 465.543 319.209 463.143 312.609 476.743C263.609 458.743 203.009 434.343 164.009 399.543C157.009 393.143 150.009 386.543 145.009 378.543C140.009 370.543 137.209 360.743 139.009 351.543C140.809 341.743 148.009 332.943 157.409 329.343C167.009 325.343 177.009 326.743 184.609 333.143Z" fill="#F9B49D"/>
<path d="M378.808 475.943C377.408 474.943 375.808 473.943 374.008 473.143L324.408 451.743L323.408 452.343C314.808 457.543 310.608 467.743 313.008 477.343L348.408 511.543C349.008 512.143 349.608 512.543 350.208 512.943C361.408 521.943 378.208 518.743 385.408 505.943C391.008 495.743 388.008 482.743 378.808 475.943Z" fill="#2A123F"/>
<path d="M295.007 99.5429C294.007 100.543 292.407 100.343 291.607 99.1429C290.807 98.1429 290.807 96.5429 290.807 95.3429C290.607 91.9429 290.607 88.3429 290.807 84.9429C290.807 83.9429 289.407 83.9429 289.407 84.9429C289.407 87.1429 289.207 89.3429 289.407 91.5429C289.407 93.5429 289.407 95.5429 289.607 97.3429C289.807 98.7429 290.407 100.343 291.607 101.143C293.007 101.943 294.807 101.743 295.807 100.743C296.607 99.9429 295.607 98.9429 295.007 99.5429Z" fill="#F58967"/>
<path d="M299.808 106.343C296.608 109.543 291.408 109.743 288.208 106.543C287.608 105.943 286.408 106.943 287.208 107.543C291.008 111.143 297.208 111.143 300.808 107.343C301.408 106.743 300.408 105.543 299.808 106.343Z" fill="#1D3557"/>
<path d="M342.608 466.543C335.408 470.343 330.808 478.143 331.008 486.343C331.008 487.343 332.408 487.343 332.408 486.343C332.208 478.743 336.608 471.343 343.208 467.743C344.008 467.343 343.408 466.143 342.608 466.543Z" fill="white"/>
<path d="M353.808 471.543C345.408 474.343 340.008 482.543 340.408 491.343C340.408 492.343 341.808 492.343 341.808 491.343C341.408 483.143 346.408 475.543 354.008 472.943C355.008 472.543 354.608 471.143 353.808 471.543Z" fill="white"/>
<path d="M247.808 466.543C255.008 470.343 259.608 478.143 259.408 486.343C259.408 487.343 258.008 487.343 258.008 486.343C258.208 478.743 253.808 471.343 247.208 467.743C246.408 467.343 247.008 466.143 247.808 466.543Z" fill="white"/>
<path d="M236.608 471.543C245.008 474.343 250.408 482.543 250.008 491.343C250.008 492.343 248.608 492.343 248.608 491.343C249.008 483.143 244.008 475.543 236.408 472.943C235.608 472.543 235.808 471.143 236.608 471.543Z" fill="white"/>
<path d="M294.209 186.143C286.209 178.743 278.209 171.343 273.209 161.543C271.809 158.943 270.809 156.143 270.209 153.343C270.009 152.543 268.609 152.743 268.809 153.743C271.409 164.343 278.409 173.143 286.009 180.543C288.409 182.743 290.809 185.143 293.209 187.343C293.809 187.743 295.009 186.743 294.209 186.143Z" fill="#2F5369"/>
<path d="M314.809 161.743C312.009 168.143 309.209 174.343 306.409 180.743C306.009 181.543 307.409 181.943 307.809 181.143C310.609 174.743 313.409 168.543 316.209 162.143C316.609 161.343 315.209 160.943 314.809 161.743Z" fill="#2F5369"/>
<path d="M396.009 335.543C377.409 343.543 360.209 354.943 345.409 368.943C341.409 372.943 337.409 376.943 333.809 381.343C332.809 382.343 334.609 383.743 335.609 382.543C348.609 367.343 364.409 354.343 381.809 344.743C386.609 342.143 391.809 339.543 396.809 337.343C398.209 337.143 397.209 335.143 396.009 335.543Z" fill="#3C3C3C"/>
<path d="M267.608 387.143C257.408 374.943 245.608 363.943 232.608 354.943C228.808 352.343 225.008 349.743 221.008 347.343C219.808 346.543 218.608 348.343 219.808 349.143C233.408 357.343 245.808 367.143 256.808 378.543C260.008 381.743 263.008 385.143 265.808 388.543C266.808 389.543 268.408 388.143 267.608 387.143Z" fill="#3C3C3C"/>
<path d="M349.609 329.743C322.809 340.343 293.409 344.143 264.809 340.743C256.609 339.743 248.609 338.343 240.809 336.143C239.409 335.743 238.609 337.743 240.009 338.143C268.409 345.543 298.609 345.943 327.009 339.143C335.009 337.143 342.809 334.743 350.409 331.743C351.809 331.143 350.809 329.343 349.609 329.743Z" fill="#3C3C3C"/>
<path d="M284.208 379.143C280.808 366.143 280.408 352.543 282.608 339.143C282.808 337.743 280.608 337.543 280.408 338.943C278.008 352.343 278.608 366.343 282.008 379.543C282.408 380.743 284.608 380.543 284.208 379.143Z" fill="#F2F8EE"/>
<path d="M312.209 340.343C311.409 339.143 309.809 340.543 310.609 341.743C318.009 353.743 320.409 368.543 317.009 382.343C316.609 383.743 318.809 383.943 319.209 382.543C322.609 368.343 320.009 352.943 312.209 340.343Z" fill="#F2F8EE"/>
<path d="M316.808 72.5431C312.408 70.5431 307.408 70.5431 303.008 72.3431C301.808 72.9431 302.608 74.7431 303.808 74.3431C307.608 72.7431 312.008 72.9431 315.808 74.5431C317.208 75.1431 318.008 73.1431 316.808 72.5431Z" fill="#1D3557"/>
<path d="M284.008 72.3429C279.408 70.9429 274.408 71.3429 270.208 73.9429C269.808 74.3429 269.408 74.7429 269.608 75.3429C269.808 75.7429 270.608 76.1429 271.008 75.9429C274.608 73.7429 279.008 73.1429 283.208 74.3429C284.608 74.7429 285.208 72.7429 284.008 72.3429Z" fill="#1D3557"/>
<path d="M255.607 257.743C266.407 259.943 279.407 262.143 290.207 257.743C267.407 252.143 251.407 231.543 237.607 213.343L254.807 296.543C254.807 296.543 303.007 310.943 338.807 296.543L339.007 294.943C308.207 298.143 275.407 284.943 255.607 257.743Z" fill="#6A17B3"/>
<circle cx="197.077" cy="18.9231" r="18.9231" fill="url(#paint0_linear_935_142)"/>
<circle cx="405.693" cy="64.1535" r="18.9231" fill="url(#paint1_linear_935_142)"/>
<circle cx="119.538" cy="422.308" r="18.9231" fill="url(#paint2_linear_935_142)"/>
<circle cx="473.077" cy="408.462" r="18.9231" fill="url(#paint3_linear_935_142)"/>
<circle cx="520.154" cy="270" r="18.9231" fill="url(#paint4_linear_935_142)"/>
<circle cx="445.846" cy="47.077" r="9.23077" fill="url(#paint5_linear_935_142)"/>
<circle cx="501.231" cy="382.154" r="9.23077" fill="url(#paint6_linear_935_142)"/>
<circle cx="520.616" cy="306.461" r="9.23077" fill="url(#paint7_linear_935_142)"/>
<circle cx="401.537" cy="28.6155" r="9.23077" fill="url(#paint8_linear_935_142)"/>
<circle cx="132.922" cy="66.4612" r="9.23077" fill="url(#paint9_linear_935_142)"/>
<circle cx="53.5374" cy="302.769" r="9.23077" fill="url(#paint10_linear_935_142)"/>
<circle cx="77.5374" cy="277.846" r="9.23077" fill="url(#paint11_linear_935_142)"/>
<circle cx="35.0765" cy="261.231" r="9.23077" fill="url(#paint12_linear_935_142)"/>
<defs>
<linearGradient id="paint0_linear_935_142" x1="197.077" y1="0" x2="197.077" y2="37.8462" gradientUnits="userSpaceOnUse">
<stop stop-color="#A845FF"/>
<stop offset="1" stop-color="#F500D1"/>
</linearGradient>
<linearGradient id="paint1_linear_935_142" x1="405.693" y1="45.2305" x2="405.693" y2="83.0766" gradientUnits="userSpaceOnUse">
<stop stop-color="#A845FF"/>
<stop offset="1" stop-color="#F500D1"/>
</linearGradient>
<linearGradient id="paint2_linear_935_142" x1="119.538" y1="403.385" x2="119.538" y2="441.231" gradientUnits="userSpaceOnUse">
<stop stop-color="#A845FF"/>
<stop offset="1" stop-color="#F500D1"/>
</linearGradient>
<linearGradient id="paint3_linear_935_142" x1="473.077" y1="389.539" x2="473.077" y2="427.385" gradientUnits="userSpaceOnUse">
<stop stop-color="#A845FF"/>
<stop offset="1" stop-color="#F500D1"/>
</linearGradient>
<linearGradient id="paint4_linear_935_142" x1="520.154" y1="251.077" x2="520.154" y2="288.923" gradientUnits="userSpaceOnUse">
<stop stop-color="#A845FF"/>
<stop offset="1" stop-color="#F500D1"/>
</linearGradient>
<linearGradient id="paint5_linear_935_142" x1="445.846" y1="37.8462" x2="445.846" y2="56.3077" gradientUnits="userSpaceOnUse">
<stop stop-color="#A845FF"/>
<stop offset="1" stop-color="#F500D1"/>
</linearGradient>
<linearGradient id="paint6_linear_935_142" x1="501.231" y1="372.923" x2="501.231" y2="391.384" gradientUnits="userSpaceOnUse">
<stop stop-color="#A845FF"/>
<stop offset="1" stop-color="#F500D1"/>
</linearGradient>
<linearGradient id="paint7_linear_935_142" x1="520.616" y1="297.23" x2="520.616" y2="315.692" gradientUnits="userSpaceOnUse">
<stop stop-color="#A845FF"/>
<stop offset="1" stop-color="#F500D1"/>
</linearGradient>
<linearGradient id="paint8_linear_935_142" x1="401.537" y1="19.3848" x2="401.537" y2="37.8463" gradientUnits="userSpaceOnUse">
<stop stop-color="#A845FF"/>
<stop offset="1" stop-color="#F500D1"/>
</linearGradient>
<linearGradient id="paint9_linear_935_142" x1="132.922" y1="57.2305" x2="132.922" y2="75.692" gradientUnits="userSpaceOnUse">
<stop stop-color="#A845FF"/>
<stop offset="1" stop-color="#F500D1"/>
</linearGradient>
<linearGradient id="paint10_linear_935_142" x1="53.5374" y1="293.539" x2="53.5374" y2="312" gradientUnits="userSpaceOnUse">
<stop stop-color="#A845FF"/>
<stop offset="1" stop-color="#F500D1"/>
</linearGradient>
<linearGradient id="paint11_linear_935_142" x1="77.5374" y1="268.615" x2="77.5374" y2="287.077" gradientUnits="userSpaceOnUse">
<stop stop-color="#A845FF"/>
<stop offset="1" stop-color="#F500D1"/>
</linearGradient>
<linearGradient id="paint12_linear_935_142" x1="35.0765" y1="252" x2="35.0765" y2="270.462" gradientUnits="userSpaceOnUse">
<stop stop-color="#A845FF"/>
<stop offset="1" stop-color="#F500D1"/>
</linearGradient>
</defs>
</svg>
