<svg width="768" height="527" viewBox="0 0 768 527" fill="none" xmlns="http://www.w3.org/2000/svg">
<g clip-path="url(#clip0_982_2)">
<path d="M172.02 491.74C14.0196 428.4 98.4896 284.93 162.83 337.02C139.83 280.34 233.09 264.97 239.76 322.02C252.02 269.94 369.76 228.21 411.82 379.87C453.88 531.53 324.26 559.66 172.02 491.74Z" fill="#6F96BD"/>
<path d="M59.0797 482.34C0.479671 445.78 -0.980328 401.48 52.0197 436.27C-12.1503 360.76 51.0197 354.33 77.4597 404.65C42.9997 337.78 110.78 336.81 115.38 414.85C126.87 343.53 191.21 339.12 160.19 430.94C129.17 522.76 59.0797 482.34 59.0797 482.34Z" fill="#F6D24F"/>
<path d="M99.2894 477.47C99.2894 477.47 48.7394 464.09 52.1894 406.09C83.1894 402.09 105.039 443.63 105.039 443.55C105.039 443.47 77.4594 399.92 105.039 359.66C144.099 382.58 141.799 443.55 141.799 443.55C141.799 443.55 142.949 352.87 187.799 343.55C200.439 380.23 171.719 452.62 171.719 452.62C171.719 452.62 186.649 396.46 249.839 387.2C247.549 437.68 185.499 490.65 185.499 490.65L99.2894 477.47Z" fill="#5D8584"/>
<path d="M372.74 490.71C372.74 490.71 334.34 474.71 337.46 430.94C361.25 427.4 372.74 453.82 372.74 453.82C372.74 453.82 347.84 424.1 352.25 387.26C374.67 389.57 407.7 450.38 407.7 450.38C407.7 450.38 415.25 505.77 372.74 490.71Z" fill="#F6D24F"/>
<path d="M577.25 461.87C577.25 461.87 597.93 407.79 628.95 406.1C631.25 437.74 603.1 461.87 603.1 461.87C603.1 461.87 634.64 420.87 660.25 423.28C670.31 451.53 618.75 482.34 618.75 482.34" fill="#5D8584"/>
<path d="M645.89 149.34C656.33 149.67 666.39 154.17 676.83 153.83C686.83 153.51 696.2 148.83 706.15 148.13C712.09 147.73 718.04 148.79 723.99 148.85C729.94 148.91 736.28 147.85 740.71 143.85C745.14 139.85 746.71 132.32 742.71 127.85C737.57 122.11 728.21 124.96 720.65 123.44C713.09 121.92 707.21 115.71 701.49 110.32C695.77 104.93 688.49 99.76 680.77 101.05C671.05 102.66 665.26 113.64 655.71 116.05C645.51 118.64 634.57 110.6 624.6 114.05C616.13 116.93 611.9 126.05 603.33 129C596.52 131.29 588.09 131 592.59 140.48C602.47 161.32 629.32 148.81 645.89 149.34Z" fill="white"/>
<path d="M473.47 50.3001C477.57 50.1301 481.8 49.9101 485.52 48.1801C489.24 46.4501 492.38 42.7901 492.22 38.6801C492.02 33.0801 486.11 29.4001 480.61 28.3101C475.11 27.2201 469.21 27.5801 464.14 25.1701C452.9 19.8101 449.53 2.68012 437.31 0.270122C426.8 -1.80988 418.54 8.45012 409.97 14.8701C400.57 21.8201 383.32 24.0101 376.36 33.2601C371.81 39.2601 373 49.0001 380.36 51.9001C386 54.1201 395.28 52.2001 401.36 52.1501C409.186 52.0768 417.016 51.9635 424.849 51.8101C441.056 51.5035 457.263 51.0001 473.47 50.3001Z" fill="white"/>
<path d="M316.28 315.09C277.22 351.09 225.81 387.09 251.55 423.72C261.03 437.21 321.71 398.17 367.18 367.39C346.675 353.79 329.319 335.957 316.28 315.09Z" fill="#F5C4BB"/>
<path d="M692.69 312.09C684.9 334.71 670.69 354.92 655.35 374.26C699.89 403.92 752.56 436.64 760.78 423.74C784.96 385.74 733.22 348.61 692.69 312.09Z" fill="#F5C4BB"/>
<path d="M486.28 204.26C474.75 214.6 462.64 211.54 465.06 198.9C467.48 186.26 446.41 200.43 451.77 185.11C457.13 169.79 458.5 146.53 448.62 151.11C438.74 155.69 442.62 125.78 454.45 115.82C466.28 105.86 451.07 103.19 479 86.33C506.93 69.47 513.91 78.91 506.07 86.33C498.23 93.75 544.07 81.33 550.18 91.7C556.29 102.07 545.07 102.04 545.07 102.04C545.07 102.04 563.41 111.23 562.93 125.4C562.45 139.57 561.3 220.4 523.39 203.53C485.48 186.66 486.28 204.26 486.28 204.26Z" fill="#76413C"/>
<path d="M412.85 247.91C412.85 247.91 527.21 214.91 599.47 247.91C628.69 329.45 601.65 351.48 607.66 409.55C613.67 467.62 617.66 489.16 617.66 489.16C617.66 489.16 472.48 547.23 398.39 479.16C418.42 425.58 367.74 293.03 412.85 247.91Z" fill="#D45350"/>
<path d="M546.797 437.086C570.576 413.307 570.576 374.754 546.797 350.975C523.018 327.196 484.465 327.196 460.686 350.975C436.907 374.754 436.907 413.307 460.686 437.086C484.465 460.865 523.018 460.865 546.797 437.086Z" fill="#DB7469"/>
<path d="M541.38 431.67C562.167 410.882 562.167 377.179 541.38 356.391C520.592 335.603 486.889 335.603 466.101 356.391C445.314 377.179 445.314 410.882 466.101 431.67C486.889 452.457 520.592 452.457 541.38 431.67Z" stroke="#D45350" stroke-width="1.42" stroke-linecap="round" stroke-linejoin="round"/>
<path d="M445.859 240.46C476.989 267.16 530.319 275.76 566.269 237.46C524.129 229.14 476.689 234.75 445.859 240.46Z" fill="#F5C4BB"/>
<path d="M367.18 367.39C391.38 351.01 409.73 337.67 409.73 337.67C409.73 337.67 396.83 299.98 412.85 247.91C390.33 256.83 336.08 282.05 301.64 313.71C314.62 334.46 346.73 353.88 367.18 367.39Z" fill="#D45350"/>
<path d="M435.69 351.42C435.69 351.42 285.56 477.96 253.02 429.01C206.71 359.31 359.02 331.34 428.17 321.32C450.47 319.53 435.69 351.42 435.69 351.42Z" fill="#F5C4BB"/>
<path d="M479.02 303.57C479.02 303.57 489.54 325.09 496.13 318.09C502.72 311.09 486.73 298.42 479.02 303.57Z" fill="#F5C4BB"/>
<path d="M466.16 342.75C480.5 347.37 495.45 351.32 501.46 366.38C507.47 381.44 489.36 373.79 477.56 365.6C465.76 357.41 427.25 370.6 419.13 355.76C400.43 344.15 426.84 319.22 443.36 310.95C459.88 302.68 468.23 292.77 480.83 293.81C493.43 294.85 505.66 313.63 499.72 318.62C493.78 323.61 482.02 304.8 482.02 304.8C478.978 304.821 475.971 305.441 473.17 306.627C470.37 307.813 467.831 309.54 465.7 311.71C461.957 315.68 459.776 320.869 459.56 326.32C459.39 334.38 463.02 341.73 466.16 342.75Z" fill="#F5C4BB"/>
<path d="M400.139 324.34C382.309 337.34 411.019 363.06 428.859 345.48C446.699 327.9 461.759 310.79 465.259 304.82C479.009 300.1 486.809 302.97 486.809 302.97C486.809 302.97 495.609 317.1 501.249 314.25C506.889 311.4 495.249 291.62 485.069 288.25C474.889 284.88 444.349 292.22 400.139 324.34Z" fill="#F5C4BB"/>
<path d="M443.37 300.09C443.37 300.09 467.8 276.75 478.23 277.27C488.66 277.79 506.49 296.33 498.9 301.11C491.31 305.89 473.45 293.02 473.45 293.02L443.37 300.09Z" fill="#F5C4BB"/>
<path d="M428.859 345.48C451.689 336.72 461.759 310.79 465.259 304.82C479.009 300.1 486.809 302.97 486.809 302.97C486.809 302.97 495.609 317.1 501.249 314.25" stroke="#2A242D" stroke-width="1.42" stroke-linecap="round" stroke-linejoin="round"/>
<path d="M498.899 301.09C495.419 295.47 490.079 289.88 485.069 288.22C480.059 286.56 470.069 287.5 456.069 292.71" stroke="#2A242D" stroke-width="1.42" stroke-linecap="round" stroke-linejoin="round"/>
<path d="M478.17 305.15L482.01 304.8C482.01 304.8 490.42 316.96 496.01 319.24" stroke="#2A242D" stroke-width="1.42" stroke-linecap="round" stroke-linejoin="round"/>
<path d="M599.47 247.91C615.47 299.98 602.6 337.67 602.6 337.67C602.6 337.67 626.29 354.89 655.35 374.24C670.73 354.9 695.22 334.69 703.02 312.09C669.38 281.76 621.27 256.54 599.47 247.91Z" fill="#D45350"/>
<path d="M483.93 188.01L473.54 241.09C488.92 259.9 531.31 259.9 537.13 237.87L530.02 193.41L483.93 188.01Z" fill="#F5C4BB"/>
<path d="M508.87 98.7104C479.49 95.8004 466.48 122.39 467.31 155.22C468.14 188.05 478.53 217.15 505.54 217.56C532.55 217.97 543.78 203.02 548.76 167.28C553.74 131.54 546.69 102.45 508.87 98.7104Z" fill="#F5C4BB"/>
<path d="M486.279 156.09C488.959 151.68 497.959 150.15 500.639 157.09" stroke="#2A242D" stroke-width="1.42" stroke-linecap="round" stroke-linejoin="round"/>
<path d="M519.02 156.32C522.27 151.32 530.7 150.96 531.85 157.08" stroke="#2A242D" stroke-width="1.42" stroke-linecap="round" stroke-linejoin="round"/>
<path d="M512.069 165.88C520.069 162.12 522.119 171.78 513.989 172.2" stroke="#2A242D" stroke-width="1.42" stroke-linecap="round" stroke-linejoin="round"/>
<path d="M502.66 178.91C502.66 178.91 511.94 186 519.03 177.96" stroke="#2A242D" stroke-width="1.42" stroke-linecap="round" stroke-linejoin="round"/>
<path d="M468.68 157.09C451.24 136.99 457.56 192.33 471.35 177.97Z" fill="#F5C4BB"/>
<path d="M547.559 156.09C560.389 141.53 558.559 162.21 556.449 170.64C554.339 179.07 545.069 179.26 545.069 173.13" fill="#F5C4BB"/>
<path d="M464.71 145.72C463.62 154.66 471.19 164.87 468.71 171.25C478.71 166.15 476.71 140.25 472.08 128.45C557.98 171.25 494.95 91.4502 548.5 137.99C546.12 142.5 544.08 161.39 550.21 166.5C555.57 142.75 558.74 137.81 547.96 115.34C537.18 92.8702 500.29 89.5502 486.31 96.9602C472.33 104.37 463.49 121.72 464.71 145.72Z" fill="#76413C"/>
<path d="M565.389 348.26C565.389 348.26 725.219 480.52 759.289 429.01C805.469 359.22 646.379 331.34 577.199 321.32C554.919 319.53 565.389 348.26 565.389 348.26Z" fill="#F5C4BB"/>
<path d="M526.39 303.57C526.39 303.57 515.84 325.09 509.25 318.09C502.66 311.09 518.65 298.42 526.39 303.57Z" fill="#F5C4BB"/>
<path d="M539.22 342.75C524.89 347.37 509.93 351.32 503.92 366.38C497.91 381.44 516.02 373.79 527.82 365.6C539.62 357.41 578.13 370.6 586.25 355.76C604.95 344.15 578.54 319.22 562.02 310.95C545.5 302.68 537.15 292.77 524.55 293.81C511.95 294.85 499.72 313.63 505.66 318.62C511.6 323.61 523.37 304.8 523.37 304.8C526.411 304.821 529.418 305.441 532.219 306.627C535.02 307.813 537.559 309.54 539.69 311.71C543.433 315.68 545.614 320.869 545.83 326.32C546.02 334.38 542.36 341.73 539.22 342.75Z" fill="#F5C4BB"/>
<path d="M605.24 324.34C623.07 337.34 594.36 363.06 576.52 345.48C558.68 327.9 543.62 310.79 540.12 304.82C526.37 300.1 518.57 302.97 518.57 302.97C518.57 302.97 509.77 317.1 504.13 314.25C498.49 311.4 510.13 291.62 520.31 288.25C530.49 284.88 561.02 292.22 605.24 324.34Z" fill="#F5C4BB"/>
<path d="M562.019 300.09C562.019 300.09 537.589 276.75 527.159 277.27C516.729 277.79 498.889 296.34 506.479 301.09C514.069 305.84 531.929 293 531.929 293L562.019 300.09Z" fill="#F5C4BB"/>
<path d="M576.52 345.48C553.69 336.72 543.62 310.79 540.12 304.82C526.37 300.1 518.57 302.97 518.57 302.97C518.57 302.97 509.77 317.1 504.13 314.25" stroke="#2A242D" stroke-width="1.42" stroke-linecap="round" stroke-linejoin="round"/>
<path d="M506.479 301.09C509.959 295.47 515.299 289.88 520.309 288.22C525.319 286.56 535.309 287.5 549.309 292.71" stroke="#2A242D" stroke-width="1.42" stroke-linecap="round" stroke-linejoin="round"/>
<path d="M527.209 305.15L523.369 304.8C523.369 304.8 514.959 316.96 509.369 319.24" stroke="#2A242D" stroke-width="1.42" stroke-linecap="round" stroke-linejoin="round"/>
<path d="M485.899 208.75C509.379 225.49 529.479 209.64 529.479 209.64" stroke="#2A242D" stroke-width="1.42" stroke-linecap="round" stroke-linejoin="round"/>
<path d="M329.449 341.63C329.449 341.63 285.559 356.51 279.449 363.88" stroke="#2A242D" stroke-width="1.42" stroke-linecap="round" stroke-linejoin="round"/>
<path d="M683.17 343.09C683.17 343.09 729.04 360.22 735.17 363.9" stroke="#2A242D" stroke-width="1.42" stroke-linecap="round" stroke-linejoin="round"/>
<path d="M437.72 242.09C472.56 278.61 531.22 284.71 576.52 239.91" stroke="#2A242D" stroke-width="1.42" stroke-linecap="round" stroke-linejoin="round"/>
<path d="M312.04 304.81L342.45 338.02" stroke="#2A242D" stroke-width="1.42" stroke-linecap="round" stroke-linejoin="round"/>
<path d="M691.54 302.37L669.46 339.24" stroke="#2A242D" stroke-width="1.42" stroke-linecap="round" stroke-linejoin="round"/>
<path d="M471.35 112.09C471.35 112.09 499.42 132.3 510.84 132.37" stroke="#2A242D" stroke-width="1.42" stroke-linecap="round" stroke-linejoin="round"/>
<path d="M485.899 104.01C485.899 104.01 508.029 113.65 512.069 122.19" stroke="#2A242D" stroke-width="1.42" stroke-linecap="round" stroke-linejoin="round"/>
<path d="M509.359 104.01C509.359 104.01 521.939 108.52 545.069 102.01" stroke="#2A242D" stroke-width="1.42" stroke-linecap="round" stroke-linejoin="round"/>
<path d="M527.92 113.09C527.92 113.09 541.78 114.75 547.7 122.18" stroke="#2A242D" stroke-width="1.42" stroke-linecap="round" stroke-linejoin="round"/>
<path d="M493.46 87.7402C493.46 87.7402 475.74 95.4902 473.54 103.74" stroke="#2A242D" stroke-width="1.42" stroke-linecap="round" stroke-linejoin="round"/>
<path d="M457.679 125.37C457.679 125.37 453.549 139.25 464.679 145.72" stroke="#2A242D" stroke-width="1.42" stroke-linecap="round" stroke-linejoin="round"/>
<path d="M427.709 169.21C396.049 157.46 414.939 133.46 425.159 151.33C426.689 125.8 454.259 145.72 427.709 169.21Z" fill="#F6D24F"/>
<path d="M580.25 186.81C573.62 162.81 596.59 157.2 593.02 176.09C624.68 172.52 602.72 199.91 580.25 186.81Z" fill="#F6D24F"/>
<path d="M396.92 101.84C355.02 92.0904 377.65 61.5004 392.67 85.5004C398.45 51.7904 425.02 83.9604 396.92 101.84Z" fill="#F6D24F"/>
<path d="M571.099 58.5402C546.729 23.1402 584.099 15.7602 578.979 43.6102C606.019 22.6302 603.889 64.2902 571.099 58.5402Z" fill="#F6D24F"/>
<path d="M25.208 153.22C24.1227 153.22 23.3453 152.985 22.876 152.516C22.4067 152.017 22.172 151.093 22.172 149.744C22.172 148.835 22.26 147.676 22.436 146.268C22.6413 144.831 22.964 142.865 23.404 140.372C24.1667 135.767 24.768 131.777 25.208 128.404C25.472 126.292 25.604 124.532 25.604 123.124C25.604 121.804 25.12 121.144 24.152 121.144C23.3893 121.144 22.4653 121.54 21.38 122.332C20.324 123.095 19.1507 124.327 17.86 126.028C17.4493 126.585 16.9947 126.864 16.496 126.864C16.0853 126.864 15.7187 126.673 15.396 126.292C15.1027 125.881 14.956 125.427 14.956 124.928C14.956 124.459 15.044 123.989 15.22 123.52C15.4253 123.021 15.748 122.464 16.188 121.848C17.596 119.883 19.1653 118.372 20.896 117.316C22.6267 116.231 24.3573 115.688 26.088 115.688C27.7013 115.688 28.9333 116.201 29.784 117.228C30.664 118.255 31.104 119.751 31.104 121.716C31.104 122.508 31.0307 123.447 30.884 124.532C30.7373 125.588 30.6053 126.453 30.488 127.128C30.3707 127.803 30.2827 128.272 30.224 128.536C31.896 123.755 33.7733 120.425 35.856 118.548C37.9387 116.641 40.2267 115.688 42.72 115.688C44.6267 115.688 46.1227 116.363 47.208 117.712C48.3227 119.061 48.88 120.968 48.88 123.432C48.88 124.4 48.748 125.603 48.484 127.04C49.9507 122.992 51.6667 120.088 53.632 118.328C55.5973 116.568 57.856 115.688 60.408 115.688C62.4613 115.688 64.0307 116.348 65.116 117.668C66.2307 118.988 66.788 120.836 66.788 123.212C66.788 124.503 66.5973 126.072 66.216 127.92L63.532 140.504C63.2387 141.971 63.092 143.232 63.092 144.288C63.092 145.52 63.3707 146.444 63.928 147.06C64.5147 147.676 65.3213 147.984 66.348 147.984C67.316 147.984 68.2547 147.661 69.164 147.016C70.1027 146.371 71.2027 145.3 72.464 143.804C72.816 143.393 73.212 143.188 73.652 143.188C74.0333 143.188 74.3267 143.364 74.532 143.716C74.7667 144.068 74.884 144.552 74.884 145.168C74.884 146.312 74.6053 147.221 74.048 147.896C72.5227 149.744 71.012 151.093 69.516 151.944C68.02 152.795 66.4507 153.22 64.808 153.22C62.3147 153.22 60.364 152.487 58.956 151.02C57.548 149.524 56.844 147.529 56.844 145.036C56.844 143.305 57.196 140.797 57.9 137.512L59.66 129.46C59.7187 129.196 59.8213 128.727 59.968 128.052C60.1147 127.377 60.232 126.747 60.32 126.16C60.408 125.544 60.452 124.943 60.452 124.356C60.452 123.329 60.2467 122.567 59.836 122.068C59.4547 121.54 58.8973 121.276 58.164 121.276C56.7853 121.276 55.3333 122.171 53.808 123.96C52.312 125.72 50.8747 128.653 49.496 132.76C48.1467 136.867 47.0467 142.205 46.196 148.776C45.9907 150.536 45.624 151.724 45.096 152.34C44.5973 152.927 43.776 153.22 42.632 153.22C41.6347 153.22 40.9013 152.985 40.432 152.516C39.992 152.047 39.772 151.167 39.772 149.876C39.772 148.673 39.9333 147.104 40.256 145.168C40.5787 143.203 40.9893 140.9 41.488 138.26C42.8373 131.161 43.512 126.585 43.512 124.532C43.512 123.417 43.292 122.596 42.852 122.068C42.4413 121.54 41.8107 121.276 40.96 121.276C39.5227 121.276 38.0413 122.097 36.516 123.74C34.9907 125.353 33.4947 128.243 32.028 132.408C30.5907 136.544 29.388 142.147 28.42 149.216C28.2147 150.712 27.9067 151.753 27.496 152.34C27.1147 152.927 26.352 153.22 25.208 153.22ZM75.8266 153.22C74.5066 153.22 73.4212 152.619 72.5706 151.416C71.7492 150.184 71.3386 148.659 71.3386 146.84C71.3386 144.64 71.4852 142.631 71.7786 140.812C72.0719 138.964 72.5559 137.013 73.2306 134.96C73.5239 134.08 73.9346 133.449 74.4626 133.068C74.9906 132.687 75.8266 132.496 76.9706 132.496C77.6159 132.496 78.0559 132.599 78.2906 132.804C78.5546 133.009 78.6866 133.317 78.6866 133.728C78.6866 133.963 78.5252 134.755 78.2026 136.104C77.9092 137.189 77.6746 138.172 77.4986 139.052C76.9119 142.132 76.6186 144.185 76.6186 145.212C76.6186 145.828 76.6919 146.268 76.8386 146.532C76.9852 146.767 77.2199 146.884 77.5426 146.884C77.9826 146.884 78.5252 146.444 79.1706 145.564C79.8452 144.684 80.5492 143.349 81.2826 141.56C82.0452 139.771 82.7786 137.571 83.4826 134.96C83.7172 134.08 84.0692 133.449 84.5386 133.068C85.0372 132.687 85.7706 132.496 86.7386 132.496C87.4132 132.496 87.8826 132.584 88.1466 132.76C88.4106 132.907 88.5426 133.2 88.5426 133.64C88.5426 134.373 88.1759 136.383 87.4426 139.668C86.6212 143.423 86.2106 145.74 86.2106 146.62C86.2106 147.177 86.3279 147.617 86.5626 147.94C86.7972 148.233 87.1052 148.38 87.4866 148.38C88.0732 148.38 88.7626 148.028 89.5546 147.324C90.3759 146.591 91.4612 145.417 92.8106 143.804C93.1626 143.393 93.5586 143.188 93.9986 143.188C94.3799 143.188 94.6732 143.364 94.8786 143.716C95.1132 144.068 95.2306 144.552 95.2306 145.168C95.2306 146.341 94.9519 147.251 94.3946 147.896C93.1332 149.451 91.7692 150.727 90.3026 151.724C88.8652 152.721 87.2226 153.22 85.3746 153.22C83.9666 153.22 82.9252 152.677 82.2506 151.592C81.6052 150.507 81.2826 148.981 81.2826 147.016C80.7839 149.011 80.0359 150.551 79.0386 151.636C78.0412 152.692 76.9706 153.22 75.8266 153.22ZM97.4268 129.592C96.1948 129.592 95.2708 129.313 94.6548 128.756C94.0388 128.169 93.7308 127.363 93.7308 126.336C93.7308 125.309 94.1268 124.459 94.9188 123.784C95.7401 123.08 96.7521 122.728 97.9548 122.728C99.0401 122.728 99.9201 122.992 100.595 123.52C101.269 124.048 101.607 124.796 101.607 125.764C101.607 126.937 101.225 127.876 100.463 128.58C99.7001 129.255 98.6881 129.592 97.4268 129.592ZM97.0748 153.22C95.1681 153.22 93.7748 152.545 92.8948 151.196C92.0441 149.847 91.6188 148.057 91.6188 145.828C91.6188 144.508 91.7801 142.821 92.1028 140.768C92.4548 138.685 92.8948 136.749 93.4228 134.96C93.6868 134.021 94.0388 133.376 94.4788 133.024C94.9188 132.672 95.6228 132.496 96.5908 132.496C98.0868 132.496 98.8348 132.995 98.8348 133.992C98.8348 134.725 98.5561 136.427 97.9988 139.096C97.2948 142.323 96.9428 144.508 96.9428 145.652C96.9428 146.532 97.0601 147.207 97.2948 147.676C97.5294 148.145 97.9254 148.38 98.4828 148.38C99.0108 148.38 99.6708 148.013 100.463 147.28C101.255 146.547 102.311 145.388 103.631 143.804C103.983 143.393 104.379 143.188 104.819 143.188C105.2 143.188 105.493 143.364 105.699 143.716C105.933 144.068 106.051 144.552 106.051 145.168C106.051 146.341 105.772 147.251 105.215 147.896C102.311 151.445 99.5974 153.22 97.0748 153.22ZM122.115 143.188C122.496 143.188 122.79 143.364 122.995 143.716C123.23 144.068 123.347 144.552 123.347 145.168C123.347 146.341 123.068 147.251 122.511 147.896C121.25 149.451 119.871 150.727 118.375 151.724C116.879 152.721 115.163 153.22 113.227 153.22C107.243 153.22 104.251 149.011 104.251 140.592C104.251 139.301 104.295 137.996 104.383 136.676H102.667C101.787 136.676 101.186 136.515 100.863 136.192C100.57 135.869 100.423 135.356 100.423 134.652C100.423 133.009 101.083 132.188 102.403 132.188H104.911C105.41 128.961 106.172 126.013 107.199 123.344C108.226 120.675 109.458 118.548 110.895 116.964C112.362 115.38 113.931 114.588 115.603 114.588C116.835 114.588 117.803 115.131 118.507 116.216C119.211 117.301 119.563 118.665 119.563 120.308C119.563 124.855 117.656 128.815 113.843 132.188H118.771C119.24 132.188 119.578 132.291 119.783 132.496C119.988 132.701 120.091 133.083 120.091 133.64C120.091 135.664 118.434 136.676 115.119 136.676H109.751C109.692 138.143 109.663 139.287 109.663 140.108C109.663 143.159 110.015 145.3 110.719 146.532C111.452 147.764 112.596 148.38 114.151 148.38C115.412 148.38 116.527 147.999 117.495 147.236C118.463 146.473 119.607 145.329 120.927 143.804C121.279 143.393 121.675 143.188 122.115 143.188ZM114.415 118.812C113.975 118.812 113.476 119.369 112.919 120.484C112.391 121.569 111.878 123.095 111.379 125.06C110.91 126.996 110.514 129.152 110.191 131.528C111.922 130.032 113.212 128.36 114.063 126.512C114.943 124.635 115.383 122.933 115.383 121.408C115.383 119.677 115.06 118.812 114.415 118.812ZM127.2 153.22C125.47 153.22 123.988 152.795 122.756 151.944C121.554 151.064 120.644 149.92 120.028 148.512C119.412 147.104 119.104 145.593 119.104 143.98C119.104 141.751 119.515 139.771 120.336 138.04C121.187 136.28 122.331 134.916 123.768 133.948C125.206 132.951 126.819 132.452 128.608 132.452C130.339 132.452 131.82 132.892 133.052 133.772C134.284 134.623 135.208 135.752 135.824 137.16C136.44 138.568 136.748 140.079 136.748 141.692C136.748 143.921 136.323 145.916 135.472 147.676C134.622 149.407 133.463 150.771 131.996 151.768C130.559 152.736 128.96 153.22 127.2 153.22ZM127.684 148.468C128.682 148.468 129.518 147.925 130.192 146.84C130.896 145.755 131.248 144.171 131.248 142.088C131.248 140.475 130.955 139.257 130.368 138.436C129.782 137.615 129.078 137.204 128.256 137.204C127.2 137.204 126.32 137.747 125.616 138.832C124.942 139.888 124.604 141.472 124.604 143.584C124.604 145.256 124.898 146.488 125.484 147.28C126.071 148.072 126.804 148.468 127.684 148.468ZM173.786 139.492C174.168 139.492 174.461 139.683 174.666 140.064C174.872 140.445 174.974 140.929 174.974 141.516C174.974 142.924 174.549 143.76 173.698 144.024C171.938 144.64 170.002 144.992 167.89 145.08C167.333 147.544 166.233 149.524 164.59 151.02C162.948 152.487 161.085 153.22 159.002 153.22C157.242 153.22 155.732 152.795 154.47 151.944C153.238 151.093 152.3 149.964 151.654 148.556C151.009 147.148 150.686 145.623 150.686 143.98C150.686 141.751 151.112 139.771 151.962 138.04C152.813 136.28 153.986 134.916 155.482 133.948C156.978 132.951 158.636 132.452 160.454 132.452C162.684 132.452 164.473 133.229 165.822 134.784C167.201 136.309 168.008 138.201 168.242 140.46C169.621 140.372 171.264 140.079 173.17 139.58C173.405 139.521 173.61 139.492 173.786 139.492ZM159.354 148.556C160.293 148.556 161.1 148.175 161.774 147.412C162.478 146.649 162.948 145.549 163.182 144.112C162.273 143.496 161.569 142.689 161.07 141.692C160.601 140.695 160.366 139.639 160.366 138.524C160.366 138.055 160.41 137.585 160.498 137.116H160.278C159.105 137.116 158.122 137.688 157.33 138.832C156.568 139.947 156.186 141.531 156.186 143.584C156.186 145.197 156.494 146.429 157.11 147.28C157.756 148.131 158.504 148.556 159.354 148.556ZM194.606 139.492C194.987 139.492 195.281 139.683 195.486 140.064C195.691 140.445 195.794 140.929 195.794 141.516C195.794 142.249 195.691 142.821 195.486 143.232C195.281 143.613 194.958 143.877 194.518 144.024C192.758 144.64 190.822 144.992 188.71 145.08C188.123 147.515 187.009 149.48 185.366 150.976C183.753 152.472 181.963 153.22 179.998 153.22C177.035 153.22 174.879 152.091 173.53 149.832C172.181 147.573 171.506 144.303 171.506 140.02C171.506 136.236 171.975 132.129 172.914 127.7C173.853 123.241 175.217 119.457 177.006 116.348C178.825 113.209 180.981 111.64 183.474 111.64C184.823 111.64 185.909 112.227 186.73 113.4C187.551 114.544 187.962 116.04 187.962 117.888C187.962 120.293 187.507 122.684 186.598 125.06C185.689 127.436 184.178 129.929 182.066 132.54C184.031 132.687 185.63 133.508 186.862 135.004C188.094 136.471 188.827 138.289 189.062 140.46C190.441 140.372 192.083 140.079 193.99 139.58C194.166 139.521 194.371 139.492 194.606 139.492ZM182.462 115.996C181.875 115.996 181.23 116.876 180.526 118.636C179.851 120.367 179.221 122.728 178.634 125.72C178.047 128.712 177.607 131.983 177.314 135.532C179.25 131.983 180.79 128.859 181.934 126.16C183.107 123.432 183.694 121.012 183.694 118.9C183.694 117.961 183.577 117.243 183.342 116.744C183.137 116.245 182.843 115.996 182.462 115.996ZM180.174 148.556C181.083 148.556 181.89 148.175 182.594 147.412C183.298 146.649 183.767 145.549 184.002 144.112C183.093 143.496 182.389 142.689 181.89 141.692C181.421 140.695 181.186 139.639 181.186 138.524C181.186 138.113 181.245 137.556 181.362 136.852H181.23C180.027 136.852 179.015 137.453 178.194 138.656C177.402 139.829 177.006 141.413 177.006 143.408C177.006 145.08 177.314 146.356 177.93 147.236C178.575 148.116 179.323 148.556 180.174 148.556ZM195.119 153.22C194.004 153.22 193.212 152.633 192.743 151.46C192.303 150.287 192.083 148.409 192.083 145.828C192.083 142.015 192.625 138.392 193.711 134.96C193.975 134.109 194.4 133.493 194.987 133.112C195.603 132.701 196.453 132.496 197.539 132.496C198.125 132.496 198.536 132.569 198.771 132.716C199.005 132.863 199.123 133.141 199.123 133.552C199.123 134.021 198.903 135.077 198.463 136.72C198.169 137.893 197.935 138.92 197.759 139.8C197.583 140.68 197.436 141.765 197.319 143.056C198.287 140.533 199.372 138.48 200.575 136.896C201.777 135.312 202.951 134.183 204.095 133.508C205.268 132.833 206.339 132.496 207.307 132.496C209.213 132.496 210.167 133.449 210.167 135.356C210.167 135.737 210.035 136.661 209.771 138.128C209.536 139.301 209.419 140.035 209.419 140.328C209.419 141.355 209.785 141.868 210.519 141.868C211.34 141.868 212.396 141.223 213.687 139.932C214.068 139.551 214.464 139.36 214.875 139.36C215.256 139.36 215.549 139.536 215.755 139.888C215.989 140.211 216.107 140.651 216.107 141.208C216.107 142.293 215.813 143.144 215.227 143.76C214.405 144.611 213.437 145.344 212.323 145.96C211.237 146.547 210.079 146.84 208.847 146.84C207.292 146.84 206.104 146.444 205.283 145.652C204.491 144.86 204.095 143.789 204.095 142.44C204.095 142 204.139 141.56 204.227 141.12C204.285 140.533 204.315 140.137 204.315 139.932C204.315 139.463 204.153 139.228 203.831 139.228C203.391 139.228 202.804 139.727 202.071 140.724C201.367 141.692 200.663 142.983 199.959 144.596C199.255 146.209 198.683 147.911 198.243 149.7C197.92 151.079 197.539 152.017 197.099 152.516C196.688 152.985 196.028 153.22 195.119 153.22ZM217.782 129.592C216.55 129.592 215.626 129.313 215.01 128.756C214.394 128.169 214.086 127.363 214.086 126.336C214.086 125.309 214.482 124.459 215.274 123.784C216.096 123.08 217.108 122.728 218.31 122.728C219.396 122.728 220.276 122.992 220.95 123.52C221.625 124.048 221.962 124.796 221.962 125.764C221.962 126.937 221.581 127.876 220.818 128.58C220.056 129.255 219.044 129.592 217.782 129.592ZM217.43 153.22C215.524 153.22 214.13 152.545 213.25 151.196C212.4 149.847 211.974 148.057 211.974 145.828C211.974 144.508 212.136 142.821 212.458 140.768C212.81 138.685 213.25 136.749 213.778 134.96C214.042 134.021 214.394 133.376 214.834 133.024C215.274 132.672 215.978 132.496 216.946 132.496C218.442 132.496 219.19 132.995 219.19 133.992C219.19 134.725 218.912 136.427 218.354 139.096C217.65 142.323 217.298 144.508 217.298 145.652C217.298 146.532 217.416 147.207 217.65 147.676C217.885 148.145 218.281 148.38 218.838 148.38C219.366 148.38 220.026 148.013 220.818 147.28C221.61 146.547 222.666 145.388 223.986 143.804C224.338 143.393 224.734 143.188 225.174 143.188C225.556 143.188 225.849 143.364 226.054 143.716C226.289 144.068 226.406 144.552 226.406 145.168C226.406 146.341 226.128 147.251 225.57 147.896C222.666 151.445 219.953 153.22 217.43 153.22ZM245.374 143.276C245.756 143.276 246.049 143.467 246.254 143.848C246.489 144.2 246.606 144.655 246.606 145.212C246.606 145.887 246.504 146.415 246.298 146.796C246.093 147.177 245.77 147.515 245.33 147.808C242.808 149.509 240.96 150.771 239.786 151.592L236.97 153.484C235.856 159.556 234.389 164.323 232.57 167.784C230.781 171.275 228.493 173.02 225.706 173.02C224.21 173.02 222.993 172.551 222.054 171.612C221.116 170.703 220.646 169.5 220.646 168.004C220.646 165.921 221.468 163.677 223.11 161.272C224.753 158.896 227.833 155.963 232.35 152.472L232.614 150.756C232.116 151.548 231.456 152.164 230.634 152.604C229.842 153.015 229.05 153.22 228.258 153.22C226.44 153.22 224.988 152.56 223.902 151.24C222.817 149.92 222.274 148.189 222.274 146.048C222.274 143.701 222.817 141.487 223.902 139.404C224.988 137.292 226.425 135.605 228.214 134.344C230.033 133.053 231.954 132.408 233.978 132.408C234.624 132.408 235.049 132.54 235.254 132.804C235.489 133.039 235.68 133.479 235.826 134.124C236.384 134.007 237.029 133.948 237.762 133.948C238.496 133.948 239.009 134.065 239.302 134.3C239.625 134.505 239.786 134.931 239.786 135.576C239.786 135.928 239.772 136.207 239.742 136.412C239.625 137.321 239.258 139.624 238.642 143.32C238.525 144.024 238.393 144.801 238.246 145.652C238.129 146.473 237.997 147.353 237.85 148.292C240.109 146.532 242.28 144.977 244.362 143.628C244.744 143.393 245.081 143.276 245.374 143.276ZM229.842 148.776C230.517 148.776 231.162 148.365 231.778 147.544C232.394 146.723 232.834 145.549 233.098 144.024L234.506 136.5C233.304 136.529 232.189 136.999 231.162 137.908C230.136 138.788 229.314 139.961 228.698 141.428C228.082 142.895 227.774 144.449 227.774 146.092C227.774 147.001 227.95 147.676 228.302 148.116C228.684 148.556 229.197 148.776 229.842 148.776ZM226.19 168.752C226.924 168.752 227.745 167.872 228.654 166.112C229.593 164.352 230.488 161.551 231.338 157.708C229.08 159.644 227.452 161.389 226.454 162.944C225.457 164.499 224.958 165.863 224.958 167.036C224.958 167.535 225.046 167.945 225.222 168.268C225.428 168.591 225.75 168.752 226.19 168.752ZM248.883 153.22C247.065 153.22 245.613 152.56 244.527 151.24C243.442 149.92 242.899 148.189 242.899 146.048C242.899 143.701 243.442 141.487 244.527 139.404C245.613 137.292 247.05 135.605 248.839 134.344C250.658 133.053 252.579 132.408 254.603 132.408C255.249 132.408 255.674 132.54 255.879 132.804C256.114 133.039 256.305 133.479 256.451 134.124C257.067 134.007 257.713 133.948 258.387 133.948C259.825 133.948 260.543 134.461 260.543 135.488C260.543 136.104 260.323 137.571 259.883 139.888C259.209 143.261 258.871 145.608 258.871 146.928C258.871 147.368 258.974 147.72 259.179 147.984C259.414 148.248 259.707 148.38 260.059 148.38C260.617 148.38 261.291 148.028 262.083 147.324C262.875 146.591 263.946 145.417 265.295 143.804C265.647 143.393 266.043 143.188 266.483 143.188C266.865 143.188 267.158 143.364 267.363 143.716C267.598 144.068 267.715 144.552 267.715 145.168C267.715 146.341 267.437 147.251 266.879 147.896C265.677 149.392 264.401 150.653 263.051 151.68C261.702 152.707 260.397 153.22 259.135 153.22C258.167 153.22 257.273 152.897 256.451 152.252C255.659 151.577 255.058 150.668 254.647 149.524C253.122 151.988 251.201 153.22 248.883 153.22ZM250.467 148.776C251.113 148.776 251.729 148.395 252.315 147.632C252.902 146.869 253.327 145.857 253.591 144.596L255.219 136.5C253.987 136.529 252.843 136.999 251.787 137.908C250.761 138.788 249.939 139.961 249.323 141.428C248.707 142.895 248.399 144.449 248.399 146.092C248.399 147.001 248.575 147.676 248.927 148.116C249.309 148.556 249.822 148.776 250.467 148.776ZM289.131 143.188C289.513 143.188 289.806 143.364 290.011 143.716C290.246 144.068 290.363 144.552 290.363 145.168C290.363 146.341 290.085 147.251 289.527 147.896C288.325 149.363 287.005 150.624 285.567 151.68C284.13 152.707 282.707 153.22 281.299 153.22C279.07 153.22 277.369 151.915 276.195 149.304C274.963 150.859 273.878 151.9 272.939 152.428C272.03 152.956 270.959 153.22 269.727 153.22C267.938 153.22 266.457 152.56 265.283 151.24C264.139 149.891 263.567 148.145 263.567 146.004C263.567 143.657 264.066 141.487 265.063 139.492C266.061 137.468 267.425 135.825 269.155 134.564C270.915 133.273 272.881 132.511 275.051 132.276C275.609 126.585 276.665 121.731 278.219 117.712C279.803 113.664 281.871 111.64 284.423 111.64C285.685 111.64 286.726 112.212 287.547 113.356C288.398 114.5 288.823 116.231 288.823 118.548C288.823 121.833 288.017 125.676 286.403 130.076C284.79 134.476 282.634 138.993 279.935 143.628C280.053 145.329 280.302 146.547 280.683 147.28C281.094 148.013 281.607 148.38 282.223 148.38C283.015 148.38 283.822 148.028 284.643 147.324C285.465 146.62 286.565 145.447 287.943 143.804C288.295 143.393 288.691 143.188 289.131 143.188ZM283.939 115.952C283.382 115.952 282.825 116.949 282.267 118.944C281.71 120.909 281.226 123.491 280.815 126.688C280.434 129.885 280.155 133.229 279.979 136.72C283.265 129.563 284.907 123.813 284.907 119.472C284.907 118.357 284.805 117.492 284.599 116.876C284.423 116.26 284.203 115.952 283.939 115.952ZM271.267 148.776C271.825 148.776 272.382 148.556 272.939 148.116C273.497 147.647 274.201 146.796 275.051 145.564C274.758 143.98 274.611 142.205 274.611 140.24C274.611 139.536 274.641 138.392 274.699 136.808C273.086 137.307 271.737 138.392 270.651 140.064C269.595 141.707 269.067 143.54 269.067 145.564C269.067 147.705 269.801 148.776 271.267 148.776ZM294.22 153.22C292.489 153.22 291.008 152.795 289.776 151.944C288.573 151.064 287.664 149.92 287.048 148.512C286.432 147.104 286.124 145.593 286.124 143.98C286.124 141.751 286.535 139.771 287.356 138.04C288.207 136.28 289.351 134.916 290.788 133.948C292.225 132.951 293.839 132.452 295.628 132.452C297.359 132.452 298.84 132.892 300.072 133.772C301.304 134.623 302.228 135.752 302.844 137.16C303.46 138.568 303.768 140.079 303.768 141.692C303.768 143.921 303.343 145.916 302.492 147.676C301.641 149.407 300.483 150.771 299.016 151.768C297.579 152.736 295.98 153.22 294.22 153.22ZM294.704 148.468C295.701 148.468 296.537 147.925 297.212 146.84C297.916 145.755 298.268 144.171 298.268 142.088C298.268 140.475 297.975 139.257 297.388 138.436C296.801 137.615 296.097 137.204 295.276 137.204C294.22 137.204 293.34 137.747 292.636 138.832C291.961 139.888 291.624 141.472 291.624 143.584C291.624 145.256 291.917 146.488 292.504 147.28C293.091 148.072 293.824 148.468 294.704 148.468ZM341.862 143.188C342.243 143.188 342.537 143.364 342.742 143.716C342.977 144.068 343.094 144.552 343.094 145.168C343.094 146.341 342.815 147.251 342.258 147.896C340.997 149.451 339.633 150.727 338.166 151.724C336.729 152.721 335.086 153.22 333.238 153.22C331.683 153.22 330.422 152.663 329.454 151.548C327.782 152.633 326.037 153.191 324.218 153.22C323.837 158.881 322.971 163.604 321.622 167.388C320.273 171.201 318.293 173.108 315.682 173.108C314.098 173.108 312.925 172.536 312.162 171.392C311.399 170.248 311.018 168.664 311.018 166.64C311.018 163.765 311.678 160.407 312.998 156.564C314.318 152.751 316.357 148.541 319.114 143.936C319.114 139.653 319.085 136.676 319.026 135.004C318.997 134.153 319.334 133.479 320.038 132.98C320.742 132.481 321.622 132.232 322.678 132.232C323.294 132.232 323.734 132.364 323.998 132.628C324.291 132.863 324.453 133.347 324.482 134.08C324.482 134.813 324.497 135.356 324.526 135.708C325.465 134.535 326.389 133.699 327.298 133.2C328.207 132.672 329.175 132.408 330.202 132.408C331.845 132.408 333.179 133.068 334.206 134.388C335.262 135.708 335.79 137.439 335.79 139.58C335.79 141.135 335.541 142.645 335.042 144.112C334.543 145.579 333.854 146.913 332.974 148.116C333.59 148.292 334.103 148.38 334.514 148.38C335.482 148.38 336.406 148.028 337.286 147.324C338.166 146.62 339.295 145.447 340.674 143.804C341.026 143.393 341.422 143.188 341.862 143.188ZM324.438 148.996C325.494 148.761 326.462 148.189 327.342 147.28C328.251 146.341 328.97 145.197 329.498 143.848C330.026 142.469 330.29 141.032 330.29 139.536C330.29 138.656 330.114 137.996 329.762 137.556C329.41 137.087 328.941 136.852 328.354 136.852C327.298 136.852 326.022 137.967 324.526 140.196C324.497 141.487 324.482 143.379 324.482 145.872C324.482 147.221 324.467 148.263 324.438 148.996ZM316.034 168.796C316.826 168.796 317.486 167.065 318.014 163.604C318.542 160.172 318.879 155.889 319.026 150.756C317.765 153.689 316.767 156.491 316.034 159.16C315.301 161.829 314.934 164.073 314.934 165.892C314.934 166.831 315.051 167.549 315.286 168.048C315.491 168.547 315.741 168.796 316.034 168.796ZM361.99 139.492C362.371 139.492 362.664 139.683 362.87 140.064C363.075 140.445 363.178 140.929 363.178 141.516C363.178 142.924 362.752 143.76 361.902 144.024C360.142 144.64 358.206 144.992 356.094 145.08C355.536 147.544 354.436 149.524 352.794 151.02C351.151 152.487 349.288 153.22 347.206 153.22C345.446 153.22 343.935 152.795 342.674 151.944C341.442 151.093 340.503 149.964 339.858 148.556C339.212 147.148 338.889 145.623 338.889 143.98C338.889 141.751 339.315 139.771 340.166 138.04C341.016 136.28 342.19 134.916 343.686 133.948C345.182 132.951 346.839 132.452 348.658 132.452C350.887 132.452 352.676 133.229 354.026 134.784C355.404 136.309 356.211 138.201 356.446 140.46C357.824 140.372 359.467 140.079 361.374 139.58C361.608 139.521 361.814 139.492 361.99 139.492ZM347.558 148.556C348.496 148.556 349.303 148.175 349.978 147.412C350.682 146.649 351.151 145.549 351.386 144.112C350.476 143.496 349.772 142.689 349.274 141.692C348.804 140.695 348.57 139.639 348.57 138.524C348.57 138.055 348.614 137.585 348.702 137.116H348.482C347.308 137.116 346.326 137.688 345.534 138.832C344.771 139.947 344.39 141.531 344.39 143.584C344.39 145.197 344.698 146.429 345.314 147.28C345.959 148.131 346.707 148.556 347.558 148.556ZM377.177 138.524C377.822 138.524 378.365 138.759 378.805 139.228C379.274 139.668 379.509 140.225 379.509 140.9C379.509 141.281 379.421 141.692 379.245 142.132C378.776 143.217 378.116 144.127 377.265 144.86C376.414 145.593 375.476 145.96 374.449 145.96C373.628 145.96 372.924 145.667 372.337 145.08C371.78 144.493 371.501 143.701 371.501 142.704C371.501 142.147 371.53 141.545 371.589 140.9C371.648 140.431 371.677 140.108 371.677 139.932C371.677 139.697 371.618 139.521 371.501 139.404C371.413 139.287 371.296 139.228 371.149 139.228C370.738 139.228 370.181 139.727 369.477 140.724C368.773 141.692 368.069 142.983 367.365 144.596C366.661 146.209 366.089 147.911 365.649 149.7C365.326 151.108 364.96 152.047 364.549 152.516C364.138 152.985 363.464 153.22 362.525 153.22C361.41 153.22 360.618 152.633 360.149 151.46C359.709 150.287 359.489 148.409 359.489 145.828C359.489 142.015 360.032 138.392 361.117 134.96C361.381 134.109 361.806 133.493 362.393 133.112C363.009 132.701 363.86 132.496 364.945 132.496C365.532 132.496 365.942 132.569 366.177 132.716C366.412 132.863 366.529 133.141 366.529 133.552C366.529 134.021 366.309 135.077 365.869 136.72C365.576 137.893 365.341 138.92 365.165 139.8C364.989 140.68 364.842 141.765 364.725 143.056C365.693 140.533 366.778 138.48 367.981 136.896C369.184 135.312 370.357 134.183 371.501 133.508C372.645 132.833 373.686 132.496 374.625 132.496C375.476 132.496 376.121 132.745 376.561 133.244C377.03 133.713 377.265 134.417 377.265 135.356C377.265 135.913 377.104 136.969 376.781 138.524H377.177ZM25.516 230.22C22.6413 230.22 20.3973 229.413 18.784 227.8C17.2 226.157 16.408 224.001 16.408 221.332C16.408 218.956 16.8773 216.873 17.816 215.084C18.7547 213.295 19.972 211.916 21.468 210.948C22.964 209.98 24.5333 209.496 26.176 209.496C27.7893 209.496 29.036 209.98 29.916 210.948C30.8253 211.887 31.28 213.104 31.28 214.6C31.28 215.832 31.0013 216.873 30.444 217.724C29.916 218.575 29.212 219 28.332 219C27.7747 219 27.32 218.868 26.968 218.604C26.6453 218.34 26.484 217.973 26.484 217.504C26.484 217.299 26.5133 217.064 26.572 216.8C26.6307 216.536 26.6747 216.345 26.704 216.228C26.8507 215.788 26.924 215.377 26.924 214.996C26.924 214.615 26.8213 214.321 26.616 214.116C26.44 213.911 26.176 213.808 25.824 213.808C25.1493 213.808 24.5187 214.116 23.932 214.732C23.3453 215.319 22.876 216.125 22.524 217.152C22.172 218.179 21.996 219.308 21.996 220.54C21.996 223.943 23.4773 225.644 26.44 225.644C27.6427 225.644 28.9333 225.248 30.312 224.456C31.72 223.635 33.0987 222.417 34.448 220.804C34.8 220.393 35.196 220.188 35.636 220.188C36.0173 220.188 36.3107 220.364 36.516 220.716C36.7507 221.068 36.868 221.552 36.868 222.168C36.868 223.283 36.5893 224.192 36.032 224.896C34.6533 226.597 32.996 227.917 31.06 228.856C29.1533 229.765 27.3053 230.22 25.516 230.22ZM55.7512 216.492C56.1326 216.492 56.4259 216.683 56.6312 217.064C56.8366 217.445 56.9392 217.929 56.9392 218.516C56.9392 219.924 56.5139 220.76 55.6632 221.024C53.9032 221.64 51.9672 221.992 49.8552 222.08C49.2979 224.544 48.1979 226.524 46.5552 228.02C44.9126 229.487 43.0499 230.22 40.9672 230.22C39.2072 230.22 37.6966 229.795 36.4352 228.944C35.2032 228.093 34.2646 226.964 33.6192 225.556C32.9739 224.148 32.6512 222.623 32.6512 220.98C32.6512 218.751 33.0766 216.771 33.9272 215.04C34.7779 213.28 35.9512 211.916 37.4472 210.948C38.9432 209.951 40.6006 209.452 42.4192 209.452C44.6486 209.452 46.4379 210.229 47.7872 211.784C49.1659 213.309 49.9726 215.201 50.2072 217.46C51.5859 217.372 53.2286 217.079 55.1352 216.58C55.3699 216.521 55.5752 216.492 55.7512 216.492ZM41.3192 225.556C42.2579 225.556 43.0646 225.175 43.7392 224.412C44.4432 223.649 44.9126 222.549 45.1472 221.112C44.2379 220.496 43.5339 219.689 43.0352 218.692C42.5659 217.695 42.3312 216.639 42.3312 215.524C42.3312 215.055 42.3752 214.585 42.4632 214.116H42.2432C41.0699 214.116 40.0872 214.688 39.2952 215.832C38.5326 216.947 38.1512 218.531 38.1512 220.584C38.1512 222.197 38.4592 223.429 39.0752 224.28C39.7206 225.131 40.4686 225.556 41.3192 225.556ZM56.2868 230.22C55.1721 230.22 54.3801 229.633 53.9108 228.46C53.4708 227.287 53.2508 225.409 53.2508 222.828C53.2508 219.015 53.7934 215.392 54.8788 211.96C55.1428 211.109 55.5681 210.493 56.1548 210.112C56.7708 209.701 57.6214 209.496 58.7068 209.496C59.2934 209.496 59.7041 209.569 59.9388 209.716C60.1734 209.863 60.2908 210.141 60.2908 210.552C60.2908 211.021 60.0708 212.077 59.6308 213.72C59.3374 214.893 59.1028 215.92 58.9268 216.8C58.7508 217.68 58.6041 218.765 58.4868 220.056C59.4548 217.533 60.5401 215.48 61.7428 213.896C62.9454 212.312 64.1188 211.183 65.2628 210.508C66.4361 209.833 67.5068 209.496 68.4748 209.496C70.3814 209.496 71.3348 210.449 71.3348 212.356C71.3348 213.5 71.0121 215.568 70.3668 218.56C69.8094 221.112 69.5308 222.799 69.5308 223.62C69.5308 224.793 69.9561 225.38 70.8068 225.38C71.3934 225.38 72.0828 225.028 72.8748 224.324C73.6961 223.591 74.7815 222.417 76.1308 220.804C76.4828 220.393 76.8788 220.188 77.3188 220.188C77.7001 220.188 77.9934 220.364 78.1988 220.716C78.4334 221.068 78.5508 221.552 78.5508 222.168C78.5508 223.341 78.2721 224.251 77.7148 224.896C76.4534 226.451 75.0894 227.727 73.6228 228.724C72.1854 229.721 70.5428 230.22 68.6948 230.22C67.1988 230.22 66.0694 229.795 65.3068 228.944C64.5441 228.064 64.1628 226.803 64.1628 225.16C64.1628 224.339 64.3681 222.872 64.7788 220.76C65.1601 218.912 65.3508 217.636 65.3508 216.932C65.3508 216.463 65.1894 216.228 64.8668 216.228C64.4854 216.228 63.9428 216.727 63.2388 217.724C62.5641 218.692 61.8601 219.983 61.1268 221.596C60.4228 223.209 59.8508 224.911 59.4108 226.7C59.0881 228.079 58.7068 229.017 58.2668 229.516C57.8561 229.985 57.1961 230.22 56.2868 230.22ZM105.175 220.188C105.556 220.188 105.85 220.364 106.055 220.716C106.29 221.068 106.407 221.552 106.407 222.168C106.407 223.341 106.128 224.251 105.571 224.896C104.368 226.363 103.034 227.624 101.567 228.68C100.13 229.707 98.6776 230.22 97.2109 230.22C95.3042 230.22 93.9109 229.545 93.0309 228.196C92.1802 226.847 91.7549 225.057 91.7549 222.828C91.7549 221.684 91.8722 220.276 92.1069 218.604C92.3709 216.932 92.7082 215.289 93.1189 213.676C90.1856 213.676 86.7096 213.808 82.6909 214.072C82.0456 218.179 81.7229 222.007 81.7229 225.556C81.7229 228.284 81.8696 231.129 82.1629 234.092C82.4856 237.084 82.9549 238.58 83.5709 238.58C83.8642 238.58 84.1722 238.067 84.4949 237.04C84.8176 236.013 85.0816 234.605 85.2869 232.816C85.4922 231.027 85.5949 229.047 85.5949 226.876C85.5949 224.5 85.4629 221.933 85.1989 219.176C85.1402 218.355 85.2722 217.753 85.5949 217.372C85.9469 216.961 86.4602 216.756 87.1349 216.756C87.7509 216.756 88.2056 216.917 88.4989 217.24C88.7922 217.563 88.9682 218.105 89.0269 218.868C89.1736 221.009 89.2469 223.561 89.2469 226.524C89.2469 231.305 88.6602 235.397 87.4869 238.8C86.3429 242.203 84.5536 243.904 82.1189 243.904C80.0362 243.904 78.5402 242.393 77.6309 239.372C76.7216 236.38 76.2669 231.877 76.2669 225.864C76.2669 222.315 76.5456 218.516 77.1029 214.468C76.8976 214.497 76.6336 214.512 76.3109 214.512C75.4016 214.512 74.7856 214.351 74.4629 214.028C74.1696 213.705 74.0229 213.207 74.0229 212.532C74.0229 211.799 74.2136 211.212 74.5949 210.772C75.0056 210.332 75.7682 210.068 76.8829 209.98C77.0882 209.951 77.4109 209.936 77.8509 209.936C78.6429 205.976 79.6549 202.383 80.8869 199.156C82.1189 195.929 83.5269 193.377 85.1109 191.5C86.6949 189.593 88.3669 188.64 90.1269 188.64C91.5056 188.64 92.5616 189.183 93.2949 190.268C94.0576 191.324 94.4389 192.688 94.4389 194.36C94.4389 200.256 92.0629 205.272 87.3109 209.408C90.8896 209.261 93.7789 209.188 95.9789 209.188C96.8002 209.188 97.4749 209.349 98.0029 209.672C98.5309 209.965 98.7949 210.552 98.7949 211.432C98.7949 212.019 98.6922 212.913 98.4869 214.116C98.3109 215.319 98.1056 216.521 97.8709 217.724C97.3429 220.217 97.0789 221.86 97.0789 222.652C97.0789 223.532 97.1962 224.207 97.4309 224.676C97.6656 225.145 98.0616 225.38 98.6189 225.38C99.1176 225.38 99.7482 225.043 100.511 224.368C101.303 223.664 102.462 222.476 103.987 220.804C104.339 220.393 104.735 220.188 105.175 220.188ZM89.2909 192.864C88.5869 192.864 87.6922 194.389 86.6069 197.44C85.5216 200.491 84.5389 204.187 83.6589 208.528C85.1256 207.501 86.3429 206.225 87.3109 204.7C88.3082 203.175 89.0416 201.605 89.5109 199.992C90.0096 198.349 90.2589 196.839 90.2589 195.46C90.2589 193.729 89.9362 192.864 89.2909 192.864ZM97.8269 206.592C96.5949 206.592 95.6709 206.313 95.0549 205.756C94.4389 205.169 94.1309 204.363 94.1309 203.336C94.1309 202.309 94.5269 201.459 95.3189 200.784C96.1402 200.08 97.1522 199.728 98.3549 199.728C99.4402 199.728 100.32 199.992 100.995 200.52C101.67 201.048 102.007 201.796 102.007 202.764C102.007 203.937 101.626 204.876 100.863 205.58C100.1 206.255 99.0882 206.592 97.8269 206.592ZM108.247 230.22C106.428 230.22 104.976 229.56 103.891 228.24C102.805 226.92 102.263 225.189 102.263 223.048C102.263 220.701 102.805 218.487 103.891 216.404C104.976 214.292 106.413 212.605 108.203 211.344C110.021 210.053 111.943 209.408 113.967 209.408C114.612 209.408 115.037 209.54 115.243 209.804C115.477 210.039 115.668 210.479 115.815 211.124C116.431 211.007 117.076 210.948 117.751 210.948C119.188 210.948 119.907 211.461 119.907 212.488C119.907 213.104 119.687 214.571 119.247 216.888C118.572 220.261 118.235 222.608 118.235 223.928C118.235 224.368 118.337 224.72 118.543 224.984C118.777 225.248 119.071 225.38 119.423 225.38C119.98 225.38 120.655 225.028 121.447 224.324C122.239 223.591 123.309 222.417 124.659 220.804C125.011 220.393 125.407 220.188 125.847 220.188C126.228 220.188 126.521 220.364 126.727 220.716C126.961 221.068 127.079 221.552 127.079 222.168C127.079 223.341 126.8 224.251 126.243 224.896C125.04 226.392 123.764 227.653 122.415 228.68C121.065 229.707 119.76 230.22 118.499 230.22C117.531 230.22 116.636 229.897 115.815 229.252C115.023 228.577 114.421 227.668 114.011 226.524C112.485 228.988 110.564 230.22 108.247 230.22ZM109.831 225.776C110.476 225.776 111.092 225.395 111.679 224.632C112.265 223.869 112.691 222.857 112.955 221.596L114.583 213.5C113.351 213.529 112.207 213.999 111.151 214.908C110.124 215.788 109.303 216.961 108.687 218.428C108.071 219.895 107.763 221.449 107.763 223.092C107.763 224.001 107.939 224.676 108.291 225.116C108.672 225.556 109.185 225.776 109.831 225.776ZM141.279 215.524C141.924 215.524 142.467 215.759 142.907 216.228C143.376 216.668 143.611 217.225 143.611 217.9C143.611 218.281 143.523 218.692 143.347 219.132C142.877 220.217 142.217 221.127 141.367 221.86C140.516 222.593 139.577 222.96 138.551 222.96C137.729 222.96 137.025 222.667 136.439 222.08C135.881 221.493 135.603 220.701 135.603 219.704C135.603 219.147 135.632 218.545 135.691 217.9C135.749 217.431 135.779 217.108 135.779 216.932C135.779 216.697 135.72 216.521 135.603 216.404C135.515 216.287 135.397 216.228 135.251 216.228C134.84 216.228 134.283 216.727 133.579 217.724C132.875 218.692 132.171 219.983 131.467 221.596C130.763 223.209 130.191 224.911 129.751 226.7C129.428 228.108 129.061 229.047 128.651 229.516C128.24 229.985 127.565 230.22 126.627 230.22C125.512 230.22 124.72 229.633 124.251 228.46C123.811 227.287 123.591 225.409 123.591 222.828C123.591 219.015 124.133 215.392 125.219 211.96C125.483 211.109 125.908 210.493 126.495 210.112C127.111 209.701 127.961 209.496 129.047 209.496C129.633 209.496 130.044 209.569 130.279 209.716C130.513 209.863 130.631 210.141 130.631 210.552C130.631 211.021 130.411 212.077 129.971 213.72C129.677 214.893 129.443 215.92 129.267 216.8C129.091 217.68 128.944 218.765 128.827 220.056C129.795 217.533 130.88 215.48 132.083 213.896C133.285 212.312 134.459 211.183 135.603 210.508C136.747 209.833 137.788 209.496 138.727 209.496C139.577 209.496 140.223 209.745 140.663 210.244C141.132 210.713 141.367 211.417 141.367 212.356C141.367 212.913 141.205 213.969 140.883 215.524H141.279ZM160.056 230.22C158.942 230.22 158.15 229.633 157.68 228.46C157.24 227.287 157.02 225.409 157.02 222.828C157.02 219.015 157.563 215.392 158.648 211.96C158.912 211.109 159.338 210.493 159.924 210.112C160.54 209.701 161.391 209.496 162.476 209.496C163.063 209.496 163.474 209.569 163.708 209.716C163.943 209.863 164.06 210.141 164.06 210.552C164.06 211.021 163.84 212.077 163.4 213.72C163.107 214.893 162.872 215.92 162.696 216.8C162.52 217.68 162.374 218.765 162.256 220.056C163.224 217.533 164.31 215.48 165.512 213.896C166.715 212.312 167.888 211.183 169.032 210.508C170.206 209.833 171.276 209.496 172.244 209.496C174.151 209.496 175.104 210.449 175.104 212.356C175.104 213.5 174.782 215.568 174.136 218.56C173.579 221.112 173.3 222.799 173.3 223.62C173.3 224.793 173.726 225.38 174.576 225.38C175.163 225.38 175.852 225.028 176.644 224.324C177.466 223.591 178.551 222.417 179.9 220.804C180.252 220.393 180.648 220.188 181.088 220.188C181.47 220.188 181.763 220.364 181.968 220.716C182.203 221.068 182.32 221.552 182.32 222.168C182.32 223.341 182.042 224.251 181.484 224.896C180.223 226.451 178.859 227.727 177.392 228.724C175.955 229.721 174.312 230.22 172.464 230.22C170.968 230.22 169.839 229.795 169.076 228.944C168.314 228.064 167.932 226.803 167.932 225.16C167.932 224.339 168.138 222.872 168.548 220.76C168.93 218.912 169.12 217.636 169.12 216.932C169.12 216.463 168.959 216.228 168.636 216.228C168.255 216.228 167.712 216.727 167.008 217.724C166.334 218.692 165.63 219.983 164.896 221.596C164.192 223.209 163.62 224.911 163.18 226.7C162.858 228.079 162.476 229.017 162.036 229.516C161.626 229.985 160.966 230.22 160.056 230.22ZM183.82 230.22C182.148 230.22 180.784 229.56 179.728 228.24C178.702 226.92 178.188 225.189 178.188 223.048C178.188 220.701 178.731 218.487 179.816 216.404C180.902 214.292 182.339 212.605 184.128 211.344C185.947 210.053 187.868 209.408 189.892 209.408C190.538 209.408 190.963 209.54 191.168 209.804C191.403 210.039 191.594 210.479 191.74 211.124C192.298 211.007 192.914 210.948 193.588 210.948C194.292 210.948 194.835 211.124 195.216 211.476C195.598 211.828 195.788 212.327 195.788 212.972C195.788 213.647 195.642 214.82 195.348 216.492C195.026 218.281 194.776 219.997 194.6 221.64C194.424 223.253 194.336 225.072 194.336 227.096C194.336 228.211 194.102 229.017 193.632 229.516C193.192 229.985 192.459 230.22 191.432 230.22C190.435 230.22 189.687 229.985 189.188 229.516C188.719 229.017 188.484 228.225 188.484 227.14L188.528 226.436C187.619 228.959 186.05 230.22 183.82 230.22ZM185.536 225.776C186.358 225.776 187.106 225.204 187.78 224.06C188.455 222.916 189.056 220.877 189.584 217.944L190.42 213.5C189.218 213.529 188.103 213.999 187.076 214.908C186.05 215.788 185.228 216.961 184.612 218.428C183.996 219.895 183.688 221.449 183.688 223.092C183.688 223.972 183.85 224.647 184.172 225.116C184.524 225.556 184.979 225.776 185.536 225.776ZM233.085 220.276C233.467 220.276 233.76 220.467 233.965 220.848C234.2 221.2 234.317 221.655 234.317 222.212C234.317 222.887 234.215 223.415 234.009 223.796C233.804 224.177 233.481 224.515 233.041 224.808C230.519 226.509 228.671 227.771 227.497 228.592L224.681 230.484C223.567 236.556 222.1 241.323 220.281 244.784C218.492 248.275 216.204 250.02 213.417 250.02C211.921 250.02 210.704 249.551 209.765 248.612C208.827 247.703 208.357 246.5 208.357 245.004C208.357 242.921 209.179 240.677 210.821 238.272C212.464 235.896 215.544 232.963 220.061 229.472L220.325 227.756C219.827 228.548 219.167 229.164 218.345 229.604C217.553 230.015 216.761 230.22 215.969 230.22C214.151 230.22 212.699 229.56 211.613 228.24C210.528 226.92 209.985 225.189 209.985 223.048C209.985 220.701 210.528 218.487 211.613 216.404C212.699 214.292 214.136 212.605 215.925 211.344C217.744 210.053 219.665 209.408 221.689 209.408C222.335 209.408 222.76 209.54 222.965 209.804C223.2 210.039 223.391 210.479 223.537 211.124C224.095 211.007 224.74 210.948 225.473 210.948C226.207 210.948 226.72 211.065 227.013 211.3C227.336 211.505 227.497 211.931 227.497 212.576C227.497 212.928 227.483 213.207 227.453 213.412C227.336 214.321 226.969 216.624 226.353 220.32C226.236 221.024 226.104 221.801 225.957 222.652C225.84 223.473 225.708 224.353 225.561 225.292C227.82 223.532 229.991 221.977 232.073 220.628C232.455 220.393 232.792 220.276 233.085 220.276ZM217.553 225.776C218.228 225.776 218.873 225.365 219.489 224.544C220.105 223.723 220.545 222.549 220.809 221.024L222.217 213.5C221.015 213.529 219.9 213.999 218.873 214.908C217.847 215.788 217.025 216.961 216.409 218.428C215.793 219.895 215.485 221.449 215.485 223.092C215.485 224.001 215.661 224.676 216.013 225.116C216.395 225.556 216.908 225.776 217.553 225.776ZM213.901 245.752C214.635 245.752 215.456 244.872 216.365 243.112C217.304 241.352 218.199 238.551 219.049 234.708C216.791 236.644 215.163 238.389 214.165 239.944C213.168 241.499 212.669 242.863 212.669 244.036C212.669 244.535 212.757 244.945 212.933 245.268C213.139 245.591 213.461 245.752 213.901 245.752ZM251.236 220.188C251.617 220.188 251.911 220.364 252.116 220.716C252.351 221.068 252.468 221.552 252.468 222.168C252.468 223.341 252.189 224.251 251.632 224.896C250.547 226.216 249.007 227.433 247.012 228.548C245.047 229.663 242.935 230.22 240.676 230.22C237.596 230.22 235.205 229.384 233.504 227.712C231.803 226.04 230.952 223.752 230.952 220.848C230.952 218.824 231.377 216.947 232.228 215.216C233.079 213.456 234.252 212.063 235.748 211.036C237.273 210.009 238.989 209.496 240.896 209.496C242.597 209.496 243.961 210.009 244.988 211.036C246.015 212.033 246.528 213.397 246.528 215.128C246.528 217.152 245.795 218.897 244.328 220.364C242.891 221.801 240.441 222.945 236.98 223.796C237.713 225.145 239.107 225.82 241.16 225.82C242.48 225.82 243.976 225.365 245.648 224.456C247.349 223.517 248.816 222.3 250.048 220.804C250.4 220.393 250.796 220.188 251.236 220.188ZM240.148 213.808C239.063 213.808 238.139 214.439 237.376 215.7C236.643 216.961 236.276 218.487 236.276 220.276V220.364C238.007 219.953 239.371 219.337 240.368 218.516C241.365 217.695 241.864 216.741 241.864 215.656C241.864 215.099 241.703 214.659 241.38 214.336C241.087 213.984 240.676 213.808 240.148 213.808ZM252.009 230.22C250.895 230.22 250.103 229.633 249.633 228.46C249.193 227.287 248.973 225.409 248.973 222.828C248.973 219.015 249.516 215.392 250.601 211.96C250.865 211.109 251.291 210.493 251.877 210.112C252.493 209.701 253.344 209.496 254.429 209.496C255.016 209.496 255.427 209.569 255.661 209.716C255.896 209.863 256.013 210.141 256.013 210.552C256.013 211.021 255.793 212.077 255.353 213.72C255.06 214.893 254.825 215.92 254.649 216.8C254.473 217.68 254.327 218.765 254.209 220.056C255.177 217.533 256.263 215.48 257.465 213.896C258.668 212.312 259.841 211.183 260.985 210.508C262.159 209.833 263.229 209.496 264.197 209.496C266.104 209.496 267.057 210.449 267.057 212.356C267.057 213.5 266.735 215.568 266.089 218.56C265.532 221.112 265.253 222.799 265.253 223.62C265.253 224.793 265.679 225.38 266.529 225.38C267.116 225.38 267.805 225.028 268.597 224.324C269.419 223.591 270.504 222.417 271.853 220.804C272.205 220.393 272.601 220.188 273.041 220.188C273.423 220.188 273.716 220.364 273.921 220.716C274.156 221.068 274.273 221.552 274.273 222.168C274.273 223.341 273.995 224.251 273.437 224.896C272.176 226.451 270.812 227.727 269.345 228.724C267.908 229.721 266.265 230.22 264.417 230.22C262.921 230.22 261.792 229.795 261.029 228.944C260.267 228.064 259.885 226.803 259.885 225.16C259.885 224.339 260.091 222.872 260.501 220.76C260.883 218.912 261.073 217.636 261.073 216.932C261.073 216.463 260.912 216.228 260.589 216.228C260.208 216.228 259.665 216.727 258.961 217.724C258.287 218.692 257.583 219.983 256.849 221.596C256.145 223.209 255.573 224.911 255.133 226.7C254.811 228.079 254.429 229.017 253.989 229.516C253.579 229.985 252.919 230.22 252.009 230.22ZM290.338 220.188C290.719 220.188 291.012 220.364 291.218 220.716C291.452 221.068 291.57 221.552 291.57 222.168C291.57 223.341 291.291 224.251 290.734 224.896C289.472 226.451 288.094 227.727 286.598 228.724C285.102 229.721 283.386 230.22 281.45 230.22C275.466 230.22 272.474 226.011 272.474 217.592C272.474 216.301 272.518 214.996 272.606 213.676H270.89C270.01 213.676 269.408 213.515 269.086 213.192C268.792 212.869 268.646 212.356 268.646 211.652C268.646 210.009 269.306 209.188 270.626 209.188H273.134C273.632 205.961 274.395 203.013 275.422 200.344C276.448 197.675 277.68 195.548 279.118 193.964C280.584 192.38 282.154 191.588 283.826 191.588C285.058 191.588 286.026 192.131 286.73 193.216C287.434 194.301 287.786 195.665 287.786 197.308C287.786 201.855 285.879 205.815 282.066 209.188H286.994C287.463 209.188 287.8 209.291 288.006 209.496C288.211 209.701 288.314 210.083 288.314 210.64C288.314 212.664 286.656 213.676 283.342 213.676H277.974C277.915 215.143 277.886 216.287 277.886 217.108C277.886 220.159 278.238 222.3 278.942 223.532C279.675 224.764 280.819 225.38 282.374 225.38C283.635 225.38 284.75 224.999 285.718 224.236C286.686 223.473 287.83 222.329 289.15 220.804C289.502 220.393 289.898 220.188 290.338 220.188ZM282.638 195.812C282.198 195.812 281.699 196.369 281.142 197.484C280.614 198.569 280.1 200.095 279.602 202.06C279.132 203.996 278.736 206.152 278.414 208.528C280.144 207.032 281.435 205.36 282.286 203.512C283.166 201.635 283.606 199.933 283.606 198.408C283.606 196.677 283.283 195.812 282.638 195.812ZM303.739 221.508C304.12 221.508 304.414 221.684 304.619 222.036C304.854 222.388 304.971 222.872 304.971 223.488C304.971 224.544 304.722 225.453 304.223 226.216C303.402 227.477 302.316 228.46 300.967 229.164C299.647 229.868 298.063 230.22 296.215 230.22C293.399 230.22 291.214 229.384 289.659 227.712C288.104 226.011 287.327 223.723 287.327 220.848C287.327 218.824 287.752 216.947 288.603 215.216C289.454 213.456 290.627 212.063 292.123 211.036C293.648 210.009 295.364 209.496 297.271 209.496C298.972 209.496 300.336 210.009 301.363 211.036C302.39 212.033 302.903 213.397 302.903 215.128C302.903 217.152 302.17 218.897 300.703 220.364C299.266 221.801 296.802 222.945 293.311 223.796C294.015 225.145 295.203 225.82 296.875 225.82C298.078 225.82 299.06 225.541 299.823 224.984C300.615 224.427 301.524 223.488 302.551 222.168C302.903 221.728 303.299 221.508 303.739 221.508ZM296.523 213.808C295.438 213.808 294.514 214.439 293.751 215.7C293.018 216.961 292.651 218.487 292.651 220.276V220.364C294.382 219.953 295.746 219.337 296.743 218.516C297.74 217.695 298.239 216.741 298.239 215.656C298.239 215.099 298.078 214.659 297.755 214.336C297.462 213.984 297.051 213.808 296.523 213.808ZM312.981 219.704C312.395 219.704 311.911 219.572 311.529 219.308C311.148 219.044 310.957 218.633 310.957 218.076L311.001 217.724C311.5 214.439 312.175 210.699 313.025 206.504C313.876 202.309 314.668 198.687 315.401 195.636C315.871 193.759 317.147 192.82 319.229 192.82C321.107 192.82 322.045 193.421 322.045 194.624C322.045 194.888 322.001 195.181 321.913 195.504C321.151 198.613 320.139 202.383 318.877 206.812C317.616 211.212 316.413 215.04 315.269 218.296C314.947 219.235 314.184 219.704 312.981 219.704ZM311.309 230.22C310.019 230.22 309.036 229.868 308.361 229.164C307.716 228.46 307.393 227.536 307.393 226.392C307.393 225.072 307.76 224.016 308.493 223.224C309.256 222.432 310.312 222.036 311.661 222.036C312.952 222.036 313.92 222.359 314.565 223.004C315.24 223.62 315.577 224.544 315.577 225.776C315.577 227.125 315.196 228.211 314.433 229.032C313.671 229.824 312.629 230.22 311.309 230.22Z" fill="white"/>
</g>
<defs>
<clipPath id="clip0_982_2">
<rect width="767.56" height="526.65" fill="white"/>
</clipPath>
</defs>
</svg>
